<svg xmlns:xlink="http://www.w3.org/1999/xlink" width="180" xmlns="http://www.w3.org/2000/svg" height="260" id="screenshot-cf397e4b-3ad5-8026-8002-ec5cb92a314f" viewBox="0 0 180 260" style="-webkit-print-color-adjust: exact;" fill="none" version="1.1"><g id="shape-cf397e4b-3ad5-8026-8002-ec5cb92a314f" rx="0" ry="0" style="fill: rgb(0, 0, 0);"><g id="shape-cf397e4b-3ad5-8026-8002-ec5cb92a3150"><g class="fills" id="fills-cf397e4b-3ad5-8026-8002-ec5cb92a3150"><path rx="0" ry="0" d="M68.614,185.488C68.614,185.488,73.209,209.634,92.586,220.572C98.925,224.150,106.196,217.720,103.500,210.942C103.454,210.828,103.408,210.714,103.360,210.600C103.360,210.600,101.276,206.502,97.366,203.711C93.457,200.922,83.989,186.797,83.207,183.657C82.426,180.519,68.614,185.488,68.614,185.488Z" style="fill-rule: nonzero; fill: rgb(252, 175, 3); fill-opacity: 1;"/></g></g><g id="shape-cf397e4b-3ad5-8026-8002-ec5cb92a3151"><g class="fills" id="fills-cf397e4b-3ad5-8026-8002-ec5cb92a3151"><path rx="0" ry="0" d="M100.963,217.806C100.251,216.657,99.242,215.417,97.993,214.879C97.967,213.996,97.784,213.083,97.418,212.162C97.374,212.049,97.328,211.935,97.280,211.820C97.280,211.820,95.195,207.722,91.286,204.932C89.081,203.358,85.105,198.176,81.919,193.394C83.471,193.347,85.003,193.176,86.510,192.852C89.877,197.912,94.124,203.394,96.426,205.037C99.732,207.398,101.657,210.856,101.892,211.294C101.926,211.378,101.960,211.462,101.993,211.546C103.015,214.113,102.214,216.355,100.963,217.806Z" style="fill-rule: nonzero; fill: rgb(176, 122, 37); fill-opacity: 1;"/></g></g><g id="shape-cf397e4b-3ad5-8026-8002-ec5cb92a3152"><g class="fills" id="fills-cf397e4b-3ad5-8026-8002-ec5cb92a3152"><path rx="0" ry="0" d="M70.524,186.548C71.834,191.712,77.506,210.192,93.381,219.154C96.139,220.711,98.789,219.800,100.348,218.429C101.918,217.048,103.175,214.515,101.993,211.546C101.960,211.462,101.926,211.378,101.892,211.294C101.657,210.856,99.732,207.398,96.426,205.037C92.519,202.249,83.005,188.399,81.712,184.325C80.424,183.888,75.526,184.873,70.524,186.548ZM96.379,223.213C94.818,223.213,93.243,222.810,91.792,221.990C71.986,210.811,67.214,186.810,67.021,185.794C66.872,185.007,67.315,184.228,68.067,183.956C70.856,182.953,80.203,179.811,83.382,181.516C84.301,182.009,84.650,182.738,84.780,183.263C85.457,185.983,94.696,199.808,98.306,202.385C102.491,205.372,104.711,209.677,104.804,209.859C104.822,209.895,104.839,209.932,104.855,209.970C104.906,210.094,104.956,210.215,105.005,210.337C106.496,214.084,105.506,218.222,102.486,220.877C100.729,222.421,98.568,223.213,96.379,223.213Z" style="fill-rule: nonzero; fill: rgb(0, 0, 114); fill-opacity: 1;"/></g></g><g id="shape-cf397e4b-3ad5-8026-8002-ec5cb92a3153"><g class="fills" id="fills-cf397e4b-3ad5-8026-8002-ec5cb92a3153"><path rx="0" ry="0" d="M136.614,141.895C134.789,143.341,133.424,148.117,131.210,152.943C128.827,158.154,125.450,163.428,119.430,164.648C107.832,166.996,103.835,154.297,103.835,154.297C99.052,143.292,99.494,106.843,119.430,103.836C121.205,103.567,122.864,103.453,124.408,103.474C140.185,103.637,144.174,117.308,144.174,117.308C150.671,138.494,136.614,141.895,136.614,141.895Z" style="fill-rule: nonzero; fill: rgb(255, 39, 101); fill-opacity: 1;"/></g></g><g id="shape-cf397e4b-3ad5-8026-8002-ec5cb92a3154"><g class="fills" id="fills-cf397e4b-3ad5-8026-8002-ec5cb92a3154"><path rx="0" ry="0" d="M116.682,163.304C114.290,163.304,112.341,162.526,110.778,161.414C114.043,153.075,118.103,143.428,122.286,133.797C123.207,140.612,125.455,147.085,129.971,151.758C127.696,156.869,124.620,161.935,119.109,163.051C118.253,163.224,117.445,163.304,116.682,163.304Z" style="fill-rule: nonzero; fill: rgb(178, 27, 105); fill-opacity: 1;"/></g></g><g id="shape-cf397e4b-3ad5-8026-8002-ec5cb92a3155"><g class="fills" id="fills-cf397e4b-3ad5-8026-8002-ec5cb92a3155"><path rx="0" ry="0" d="M135.531,143.107C134.931,142.568,120.892,129.603,126.249,103.410L129.426,104.064C126.829,116.762,129.213,126.035,131.670,131.579C134.336,137.591,137.664,140.654,137.697,140.684L135.531,143.107Z" style="fill-rule: nonzero; fill: rgb(0, 0, 114); fill-opacity: 1;"/></g></g><g id="shape-cf397e4b-3ad5-8026-8002-ec5cb92a3156"><g class="fills" id="fills-cf397e4b-3ad5-8026-8002-ec5cb92a3156"><path rx="0" ry="0" d="M105.378,153.803C105.527,154.265,109.101,165.078,119.109,163.051C126.027,161.649,129.109,154.024,131.585,147.898C132.946,144.534,134.019,141.876,135.608,140.617C135.791,140.471,136.005,140.367,136.232,140.312C136.384,140.274,140.166,139.271,142.488,135.126C144.826,130.950,144.871,125.115,142.622,117.785C142.434,117.152,137.914,102.691,119.671,105.446C114.786,106.182,110.840,109.220,107.946,114.474C101.573,126.038,101.955,145.900,105.320,153.647C105.342,153.698,105.362,153.750,105.378,153.803ZM116.676,166.561C108.370,166.561,103.721,159.246,102.313,154.869C98.761,146.570,98.062,125.685,105.108,112.898C108.516,106.713,113.253,103.122,119.189,102.226C130.158,100.573,136.794,104.614,140.429,108.298C144.366,112.289,145.675,116.664,145.729,116.849C148.256,125.087,148.104,131.806,145.272,136.797C142.709,141.314,138.737,142.924,137.424,143.351C136.553,144.267,135.557,146.732,134.590,149.123C131.968,155.610,128.377,164.494,119.751,166.242C118.676,166.460,117.649,166.561,116.676,166.561Z" style="fill-rule: nonzero; fill: rgb(0, 0, 114); fill-opacity: 1;"/></g></g><g id="shape-cf397e4b-3ad5-8026-8002-ec5cb92a3157"><g class="fills" id="fills-cf397e4b-3ad5-8026-8002-ec5cb92a3157"><path rx="0" ry="0" d="M172.793,159.013C172.793,159.013,170.535,168.343,163.238,165.202C163.238,165.202,160.547,178.279,150.729,169.564C150.729,169.564,142.520,172.091,137.960,161.760C137.777,161.344,137.611,160.934,137.473,160.527C135.442,154.790,137.396,150.290,139.305,147.592C140.599,145.761,141.872,144.756,141.872,144.756C141.872,144.756,133.922,136.582,147.408,129.587C160.895,122.589,164.345,134.360,164.345,134.360C164.345,134.360,166.198,134.564,168.528,135.683C170.892,136.809,173.741,138.881,175.639,142.620C175.639,142.620,175.639,142.624,175.643,142.636C175.866,143.072,176.072,143.531,176.267,144.015C179.745,152.735,179.137,159.188,172.793,159.013Z" style="fill-rule: nonzero; fill: rgb(255, 255, 255); fill-opacity: 1;"/></g></g><g id="shape-cf397e4b-3ad5-8026-8002-ec5cb92a3158"><g class="fills" id="fills-cf397e4b-3ad5-8026-8002-ec5cb92a3158"><path rx="0" ry="0" d="M156.837,170.928C155.112,170.928,153.201,169.583,151.805,168.343C151.505,168.077,151.117,167.937,150.724,167.937C150.570,167.937,150.416,167.958,150.266,168.003C150.180,168.028,149.508,168.214,148.503,168.214C146.367,168.213,142.733,167.373,140.056,162.360C143.889,164.483,148.349,164.937,148.349,164.937C150.980,166.506,153.125,167.110,154.868,167.110C160.761,167.110,162.067,160.198,162.067,160.198C162.790,160.396,163.478,160.485,164.129,160.485C169.251,160.485,172.100,155.030,172.100,155.030C174.686,153.563,175.539,150.272,175.763,147.447C176.982,151.427,177.087,154.580,175.997,156.149C175.422,156.979,174.459,157.389,173.066,157.389C172.991,157.389,172.916,157.388,172.838,157.385C172.822,157.385,172.805,157.384,172.788,157.384C172.055,157.384,171.399,157.899,171.219,158.624C170.948,159.723,169.785,162.803,167.695,163.845C167.193,164.096,166.657,164.222,166.080,164.222C165.406,164.222,164.675,164.050,163.878,163.707C163.673,163.619,163.455,163.575,163.238,163.575C162.980,163.575,162.723,163.637,162.489,163.760C162.057,163.986,161.750,164.395,161.651,164.873C161.386,166.158,160.106,170.001,157.768,170.782C157.467,170.882,157.156,170.928,156.837,170.928Z" style="fill-rule: nonzero; fill: rgb(178, 178, 212); fill-opacity: 1;"/></g></g><g id="shape-cf397e4b-3ad5-8026-8002-ec5cb92a3159"><g class="fills" id="fills-cf397e4b-3ad5-8026-8002-ec5cb92a3159"><path rx="0" ry="0" d="M162.793,140.501C162.344,140.501,162.067,140.439,162.067,140.439C163.751,138.721,164.296,137.138,164.433,136.017C164.989,136.113,166.306,136.400,167.865,137.150C166.246,140.090,163.950,140.501,162.793,140.501Z" style="fill-rule: nonzero; fill: rgb(178, 178, 212); fill-opacity: 1;"/></g></g><g id="shape-cf397e4b-3ad5-8026-8002-ec5cb92a315a"><g class="fills" id="fills-cf397e4b-3ad5-8026-8002-ec5cb92a315a"><path rx="0" ry="0" d="M142.136,148.142C141.761,148.142,141.369,148.114,140.963,148.050C141.915,146.816,142.774,146.115,142.875,146.034C142.976,145.953,143.067,145.862,143.146,145.761C143.837,146.118,144.888,146.514,146.472,146.847C146.472,146.847,144.691,148.142,142.136,148.142Z" style="fill-rule: nonzero; fill: rgb(178, 178, 212); fill-opacity: 1;"/></g></g><g id="shape-cf397e4b-3ad5-8026-8002-ec5cb92a315b"><g class="fills" id="fills-cf397e4b-3ad5-8026-8002-ec5cb92a315b"><path rx="0" ry="0" d="M150.724,167.937C151.117,167.937,151.505,168.077,151.805,168.343C153.458,169.811,155.834,171.427,157.768,170.782C160.106,170.001,161.386,166.158,161.651,164.873C161.750,164.395,162.057,163.986,162.489,163.760C162.920,163.534,163.430,163.514,163.878,163.707C165.357,164.344,166.607,164.389,167.695,163.845C169.785,162.803,170.948,159.723,171.219,158.624C171.403,157.883,172.085,157.361,172.838,157.385C174.355,157.432,175.390,157.023,175.997,156.149C177.334,154.225,176.873,149.915,174.764,144.620C171.710,136.958,164.469,136.013,164.162,135.977C163.518,135.900,162.974,135.444,162.791,134.820C162.781,134.787,161.606,131.021,158.194,129.575C155.551,128.456,152.173,128.945,148.152,131.032C143.979,133.197,141.651,135.613,141.233,138.211C140.754,141.183,143.008,143.596,143.030,143.620C143.352,143.951,143.518,144.403,143.488,144.864C143.458,145.324,143.235,145.748,142.875,146.034C142.571,146.277,135.467,152.090,139.443,161.100C143.334,169.913,149.984,168.085,150.266,168.003C150.416,167.958,150.570,167.937,150.724,167.937ZM156.821,174.190C154.789,174.190,152.597,173.227,150.273,171.310C147.735,171.690,140.624,171.809,136.479,162.418C132.581,153.589,137.339,147.085,139.695,144.592C138.748,143.163,137.551,140.674,138.031,137.692C138.623,134.018,141.527,130.805,146.663,128.140C151.599,125.580,155.916,125.059,159.496,126.593C163.083,128.131,164.844,131.307,165.536,132.920C168.076,133.480,174.681,135.651,177.774,143.411C179.608,148.012,181.249,154.280,178.657,158.011C177.905,159.093,176.507,160.341,173.994,160.596C173.374,162.301,171.924,165.362,169.155,166.752C167.670,167.497,166.052,167.670,164.328,167.273C163.592,169.394,161.948,172.816,158.792,173.870C158.154,174.083,157.496,174.190,156.821,174.190Z" style="fill-rule: nonzero; fill: rgb(0, 0, 114); fill-opacity: 1;"/></g></g><g id="shape-cf397e4b-3ad5-8026-8002-ec5cb92a315c"><g class="fills" id="fills-cf397e4b-3ad5-8026-8002-ec5cb92a315c"><path rx="0" ry="0" d="M142.903,143.503L143.648,144.295C143.916,144.579,144.197,144.861,144.489,145.144C144.780,145.430,145.091,145.691,145.418,145.965C145.748,146.234,146.102,146.473,146.490,146.729L146.495,146.732C146.556,146.773,146.573,146.855,146.533,146.915C146.515,146.943,146.488,146.961,146.458,146.970C146.005,147.095,145.522,147.162,145.042,147.164C144.559,147.177,144.073,147.132,143.597,147.047C143.118,146.966,142.648,146.842,142.191,146.680C141.963,146.596,141.737,146.505,141.516,146.400C141.288,146.286,141.094,146.194,140.838,146.011L140.774,145.967C140.037,145.445,139.861,144.422,140.381,143.683C140.901,142.943,141.919,142.766,142.656,143.287C142.745,143.350,142.831,143.427,142.903,143.503Z" style="fill-rule: nonzero; fill: rgb(0, 0, 114); fill-opacity: 1;"/></g></g><g id="shape-cf397e4b-3ad5-8026-8002-ec5cb92a315d"><g class="fills" id="fills-cf397e4b-3ad5-8026-8002-ec5cb92a315d"><path rx="0" ry="0" d="M165.948,134.102C165.983,134.352,165.986,134.494,165.990,134.679C165.988,134.853,165.986,135.025,165.967,135.194C165.941,135.533,165.880,135.867,165.801,136.195C165.644,136.852,165.371,137.486,165.027,138.066C164.692,138.650,164.239,139.167,163.740,139.583C163.250,140.011,162.649,140.281,162.081,140.461C162.067,140.466,162.052,140.458,162.048,140.444L162.050,140.422L162.051,140.421C162.359,139.890,162.622,139.404,162.759,138.879C162.909,138.368,162.993,137.873,163.004,137.374C163.021,136.879,162.979,136.394,162.930,135.922C162.902,135.684,162.871,135.451,162.837,135.222L162.745,134.617L162.739,134.575C162.605,133.686,163.213,132.856,164.098,132.721C164.984,132.586,165.811,133.197,165.948,134.102ZL165.948,134.102Z" style="fill-rule: nonzero; fill: rgb(0, 0, 114); fill-opacity: 1;"/></g></g><g id="shape-cf397e4b-3ad5-8026-8002-ec5cb92a315e"><g class="fills" id="fills-cf397e4b-3ad5-8026-8002-ec5cb92a315e"><path rx="0" ry="0" d="M149.485,170.604L149.336,170.429L149.213,170.273C149.132,170.173,149.060,170.068,148.990,169.968C148.842,169.765,148.718,169.556,148.590,169.348C148.340,168.930,148.127,168.496,147.928,168.058C147.546,167.175,147.251,166.261,147.061,165.327C146.875,164.393,146.754,163.448,146.808,162.500C146.851,161.555,147.035,160.615,147.408,159.731C147.430,159.677,147.493,159.652,147.547,159.676C147.572,159.686,147.590,159.704,147.601,159.727L147.604,159.731C148.018,160.601,148.289,161.418,148.637,162.203C148.951,162.990,149.270,163.750,149.619,164.485C149.961,165.222,150.351,165.928,150.758,166.610C150.953,166.956,151.174,167.284,151.377,167.616L151.976,168.519L152.064,168.653C152.560,169.400,152.358,170.408,151.614,170.905C150.924,171.366,150.009,171.224,149.485,170.604Z" style="fill-rule: nonzero; fill: rgb(0, 0, 114); fill-opacity: 1;"/></g></g><g id="shape-cf397e4b-3ad5-8026-8002-ec5cb92a315f"><g class="fills" id="fills-cf397e4b-3ad5-8026-8002-ec5cb92a315f"><path rx="0" ry="0" d="M161.624,165.342C161.578,165.069,161.534,164.713,161.494,164.393L161.375,163.401C161.297,162.739,161.216,162.073,161.113,161.417C161.004,160.763,160.881,160.107,160.740,159.452C160.594,158.791,160.422,158.143,160.160,157.403L160.157,157.396C160.132,157.325,160.169,157.247,160.239,157.223C160.267,157.213,160.298,157.213,160.324,157.221C161.104,157.469,161.755,158.009,162.299,158.601C162.854,159.199,163.242,159.890,163.596,160.589C163.952,161.291,164.217,162.019,164.437,162.758C164.543,163.129,164.636,163.502,164.705,163.882C164.778,164.268,164.831,164.623,164.855,165.063C164.901,165.961,164.214,166.727,163.320,166.774C162.486,166.818,161.767,166.222,161.624,165.342ZL161.624,165.342Z" style="fill-rule: nonzero; fill: rgb(0, 0, 114); fill-opacity: 1;"/></g></g><g id="shape-cf397e4b-3ad5-8026-8002-ec5cb92a3160"><g class="fills" id="fills-cf397e4b-3ad5-8026-8002-ec5cb92a3160"><path rx="0" ry="0" d="M171.173,159.049C171.202,158.852,171.233,158.556,171.249,158.298C171.269,158.031,171.291,157.758,171.302,157.486C171.317,156.941,171.339,156.385,171.313,155.829C171.288,155.274,171.254,154.712,171.169,154.149C171.102,153.577,170.974,153.017,170.828,152.423L170.827,152.420C170.818,152.383,170.841,152.345,170.878,152.335C170.900,152.330,170.922,152.336,170.938,152.349C171.415,152.736,171.844,153.198,172.222,153.700C172.577,154.212,172.933,154.747,173.200,155.318C173.474,155.885,173.737,156.468,173.932,157.071C174.031,157.372,174.131,157.676,174.211,157.987C174.289,158.308,174.364,158.592,174.415,158.975L174.428,159.071C174.548,159.974,173.916,160.803,173.017,160.924C172.116,161.045,171.290,160.410,171.170,159.507C171.150,159.354,171.152,159.195,171.173,159.049Z" style="fill-rule: nonzero; fill: rgb(0, 0, 114); fill-opacity: 1;"/></g></g><g id="shape-cf397e4b-3ad5-8026-8002-ec5cb92a3161"><g class="fills" id="fills-cf397e4b-3ad5-8026-8002-ec5cb92a3161"><path rx="0" ry="0" d="M46.898,50.737C42.730,54.880,42.467,60.983,42.467,60.983C43.180,62.317,43.613,63.538,43.853,64.641C45.008,70.016,41.412,72.640,41.412,72.640C33.499,75.061,25.299,75.793,25.299,75.793C16.239,76.038,17.504,66.109,17.536,65.865L17.536,65.861C14.236,63.412,12.238,57.671,12.238,57.671C12.238,57.671,-0.965,49.387,2.075,42.063C5.002,35.012,16.446,47.714,17.293,48.666C16.531,47.739,6.680,35.565,12.128,30.597C17.722,25.499,27.301,43.617,27.565,44.113C22.490,30.182,22.664,24.014,29.179,24.884C33.070,25.405,35.948,31.037,37.634,35.479C38.769,38.470,39.362,40.927,39.362,40.927C39.362,40.927,39.365,40.923,39.369,40.911C39.483,40.655,39.612,40.399,39.755,40.150C42.130,35.899,47.753,32.823,50.764,35.044C53.955,37.396,51.069,46.595,46.898,50.737Z" style="fill-rule: nonzero; fill: rgb(255, 255, 255); fill-opacity: 1;"/></g></g><g id="shape-cf397e4b-3ad5-8026-8002-ec5cb92a3162"><g class="fills" id="fills-cf397e4b-3ad5-8026-8002-ec5cb92a3162"><path rx="0" ry="0" d="M24.963,56.186C24.963,56.186,24.676,47.496,32.819,43.359C33.756,42.883,34.422,42.014,34.639,40.983C34.856,39.943,35.351,38.503,36.460,36.927C37.016,38.478,37.467,39.995,37.787,41.313C37.901,41.782,38.211,42.165,38.621,42.376C38.066,43.493,37.369,44.970,37.168,45.725C37.168,45.725,29.612,46.246,24.963,56.186Z" style="fill-rule: nonzero; fill: rgb(178, 178, 212); fill-opacity: 1;"/></g></g><g id="shape-cf397e4b-3ad5-8026-8002-ec5cb92a3163"><g class="fills" id="fills-cf397e4b-3ad5-8026-8002-ec5cb92a3163"><path rx="0" ry="0" d="M23.016,73.947C22.059,73.697,21.288,73.236,20.685,72.563C18.969,70.647,19.036,67.479,19.112,66.432C20.049,66.737,21.366,67.119,22.953,67.454C22.650,67.801,22.486,68.038,22.452,68.087C22.241,68.398,22.143,68.772,22.177,69.147C22.324,70.815,22.611,72.415,23.016,73.947ZM41.679,69.867C41.001,68.533,40.554,67.359,40.265,66.462C40.971,66.180,41.673,65.858,42.367,65.494C42.682,67.464,42.228,68.906,41.679,69.867Z" style="fill-rule: nonzero; fill: rgb(178, 178, 212); fill-opacity: 1;"/></g></g><g id="shape-cf397e4b-3ad5-8026-8002-ec5cb92a3164"><g class="fills" id="fills-cf397e4b-3ad5-8026-8002-ec5cb92a3164"><path rx="0" ry="0" d="M5.001,41.564C4.888,41.564,4.779,41.573,4.676,41.590C4.467,41.624,3.981,41.704,3.572,42.688C1.517,47.639,9.752,54.185,13.099,56.290C13.411,56.486,13.648,56.784,13.769,57.132C13.788,57.184,15.648,62.436,18.501,64.550C18.979,64.905,19.225,65.494,19.144,66.084C19.139,66.121,18.615,70.253,20.685,72.563C21.693,73.689,23.174,74.222,25.204,74.168C25.878,74.103,33.387,73.349,40.636,71.178C41.461,70.438,44.080,67.474,41.037,61.748C40.901,61.491,40.835,61.203,40.848,60.913C40.859,60.637,41.188,54.120,45.757,49.581C48.521,46.836,50.730,41.494,50.486,38.150C50.448,37.639,50.310,36.728,49.803,36.356C49.010,35.770,47.912,35.894,47.130,36.099C44.619,36.762,41.974,39.074,40.841,41.598C40.557,42.231,39.899,42.612,39.213,42.549C38.524,42.485,37.951,41.989,37.787,41.313C36.465,35.865,32.900,27.026,28.963,26.499C26.918,26.227,26.404,26.864,26.235,27.074C25.247,28.310,24.940,32.175,29.093,43.566C29.386,44.370,29.008,45.265,28.227,45.613C27.446,45.960,26.531,45.640,26.135,44.881C23.570,39.981,18.199,31.975,14.707,31.355C14.122,31.250,13.677,31.384,13.220,31.802C9.538,35.158,16.021,44.623,18.582,47.675C19.155,48.357,19.074,49.375,18.400,49.957C17.727,50.540,16.710,50.469,16.124,49.797C13.047,46.282,7.699,41.564,5.001,41.564ZM24.967,77.425C22.113,77.425,19.858,76.517,18.259,74.724C15.917,72.095,15.775,68.321,15.854,66.577C13.195,64.176,11.473,60.189,10.908,58.742C8.414,57.077,-2.626,49.156,0.579,41.436C1.488,39.245,3.023,38.563,4.151,38.378C5.968,38.076,8.083,38.897,10.128,40.166C8.546,36.306,8.023,32.141,11.040,29.391C12.238,28.300,13.702,27.871,15.272,28.150C17.851,28.608,20.534,31.075,22.842,33.903C22.009,29.587,22.314,26.778,23.706,25.037C24.916,23.523,26.828,22.929,29.391,23.272C34.873,24.006,38.348,32.214,39.945,37.099C41.682,35.113,44.001,33.559,46.306,32.951C48.406,32.397,50.279,32.667,51.723,33.732C52.539,34.333,53.547,35.547,53.720,37.911C54.033,42.199,51.484,48.471,48.038,51.894C44.945,54.968,44.261,59.318,44.122,60.649C47.594,67.609,44.525,72.384,42.368,73.959C42.222,74.065,42.058,74.146,41.886,74.200C33.902,76.638,25.786,77.384,25.443,77.414C25.411,77.417,25.377,77.419,25.344,77.420C25.217,77.423,25.092,77.425,24.967,77.425Z" style="fill-rule: nonzero; fill: rgb(0, 0, 114); fill-opacity: 1;"/></g></g><g id="shape-cf397e4b-3ad5-8026-8002-ec5cb92a3165"><g class="fills" id="fills-cf397e4b-3ad5-8026-8002-ec5cb92a3165"><path rx="0" ry="0" d="M41.296,62.108C41.132,61.865,40.921,61.543,40.733,61.247L40.148,60.322L39.527,59.380C39.311,59.061,39.093,58.726,38.819,58.366C39.256,58.260,39.713,58.267,40.147,58.327C40.583,58.388,40.994,58.512,41.397,58.654C41.801,58.795,42.186,58.969,42.560,59.163C42.937,59.366,43.278,59.559,43.639,59.857L41.296,62.108Z" style="fill-rule: nonzero; fill: rgb(0, 0, 114); fill-opacity: 1;"/></g></g><g id="shape-cf397e4b-3ad5-8026-8002-ec5cb92a3166"><g class="fills" id="fills-cf397e4b-3ad5-8026-8002-ec5cb92a3166"><path rx="0" ry="0" d="M40.689,41.865C40.479,42.170,40.241,42.549,40.032,42.902C39.819,43.262,39.617,43.628,39.430,43.994C39.058,44.726,38.744,45.476,38.568,46.162L38.568,46.162C38.372,46.836,37.803,47.297,37.153,47.388L37.137,47.389L36.974,47.411C36.910,47.419,36.838,47.432,36.766,47.446C36.624,47.472,36.479,47.498,36.330,47.532C36.035,47.586,35.739,47.678,35.440,47.748C34.848,47.924,34.256,48.121,33.679,48.365C32.528,48.855,31.404,49.460,30.390,50.244C30.118,50.418,29.895,50.650,29.645,50.854C29.397,51.061,29.141,51.263,28.921,51.503L28.228,52.198L27.596,52.958C27.139,53.447,26.787,54.015,26.324,54.534C25.898,55.075,25.507,55.649,24.988,56.196L24.986,56.197C24.976,56.208,24.960,56.208,24.949,56.198L24.941,56.178C24.986,55.450,25.085,54.714,25.284,54.011C25.392,53.663,25.511,53.314,25.642,52.971C25.760,52.619,25.926,52.292,26.106,51.970C26.282,51.646,26.462,51.323,26.650,51.002L27.285,50.084C27.490,49.769,27.732,49.485,27.978,49.200C28.229,48.922,28.456,48.616,28.738,48.364L29.556,47.575C29.848,47.334,30.148,47.100,30.447,46.863C31.060,46.415,31.698,45.987,32.378,45.633C32.708,45.438,33.065,45.296,33.411,45.127C33.761,44.969,34.126,44.841,34.487,44.704C34.857,44.583,35.224,44.465,35.610,44.374C35.797,44.322,35.994,44.282,36.194,44.246C36.292,44.227,36.391,44.208,36.500,44.193C36.606,44.177,36.701,44.161,36.853,44.146L35.422,45.373L35.422,45.372C35.697,44.308,36.100,43.391,36.541,42.515C36.764,42.079,36.998,41.655,37.244,41.239C37.495,40.817,37.735,40.431,38.036,39.992C38.544,39.252,39.554,39.065,40.291,39.575C41.029,40.085,41.215,41.099,40.689,41.865ZL40.689,41.865ZL40.689,41.865Z" style="fill-rule: nonzero; fill: rgb(0, 0, 114); fill-opacity: 1;"/></g></g><g id="shape-cf397e4b-3ad5-8026-8002-ec5cb92a3167"><g class="fills" id="fills-cf397e4b-3ad5-8026-8002-ec5cb92a3167"><path rx="0" ry="0" d="M50.544,99.741C50.544,99.741,25.616,89.624,23.792,69.004C23.792,69.004,28.091,62.671,38.190,64.895C38.190,64.895,40.316,78.038,56.039,84.884C58.345,85.887,59.083,88.809,57.533,90.795L50.544,99.741Z" style="fill-rule: nonzero; fill: rgb(252, 175, 3); fill-opacity: 1;"/></g></g><g id="shape-cf397e4b-3ad5-8026-8002-ec5cb92a3168"><g class="fills" id="fills-cf397e4b-3ad5-8026-8002-ec5cb92a3168"><path rx="0" ry="0" d="M49.736,97.590C44.623,95.139,27.332,85.709,25.472,69.503C26.276,68.603,28.493,66.580,32.452,66.136C32.113,66.313,31.795,66.498,31.499,66.686C29.205,68.147,28.176,70.990,28.992,73.592C32.621,85.157,43.450,92.248,50.563,95.788C50.284,96.390,50.008,96.992,49.736,97.590Z" style="fill-rule: nonzero; fill: rgb(176, 122, 37); fill-opacity: 1;"/></g></g><g id="shape-cf397e4b-3ad5-8026-8002-ec5cb92a3169"><g class="fills" id="fills-cf397e4b-3ad5-8026-8002-ec5cb92a3169"><path rx="0" ry="0" d="M54.580,87.525C54.217,87.102,53.754,86.752,53.202,86.511C41.656,81.485,37.442,73.063,36.018,68.941C35.494,67.426,34.174,66.351,32.613,66.120C33.068,66.074,33.544,66.049,34.044,66.049C34.906,66.049,35.839,66.123,36.841,66.290C37.751,69.766,41.554,80.272,55.210,86.296C54.999,86.705,54.789,87.113,54.580,87.525Z" style="fill-rule: nonzero; fill: rgb(254, 231, 179); fill-opacity: 1;"/></g></g><g id="shape-cf397e4b-3ad5-8026-8002-ec5cb92a316a"><g class="fills" id="fills-cf397e4b-3ad5-8026-8002-ec5cb92a316a"><path rx="0" ry="0" d="M25.472,69.503C27.371,86.056,45.371,95.541,50.048,97.737L56.256,89.791C56.683,89.244,56.831,88.545,56.660,87.872C56.490,87.198,56.029,86.653,55.394,86.376C41.587,80.366,37.755,69.783,36.841,66.290C30.071,65.158,26.536,68.313,25.472,69.503ZM50.543,101.369C50.339,101.369,50.133,101.330,49.935,101.250C48.880,100.822,24.067,90.514,22.177,69.147C22.143,68.772,22.241,68.398,22.452,68.087C22.652,67.791,27.496,60.875,38.537,63.305C39.187,63.448,39.683,63.975,39.790,64.634C39.873,65.131,42.027,77.009,56.684,83.390C58.249,84.071,59.385,85.413,59.804,87.071C60.223,88.730,59.860,90.453,58.808,91.799L51.819,100.745C51.505,101.148,51.030,101.369,50.543,101.369Z" style="fill-rule: nonzero; fill: rgb(0, 0, 114); fill-opacity: 1;"/></g></g><g id="shape-cf397e4b-3ad5-8026-8002-ec5cb92a316b"><g class="fills" id="fills-cf397e4b-3ad5-8026-8002-ec5cb92a316b"><path rx="0" ry="0" d="M24.743,70.321C24.683,70.333,24.555,70.391,24.449,70.425L24.105,70.549L23.381,70.807C23.129,70.894,22.893,71.000,22.625,71.102C22.359,71.206,22.062,71.301,21.686,71.424C21.542,71.059,21.518,70.686,21.560,70.348C21.607,70.011,21.708,69.695,21.819,69.382C21.936,69.075,22.075,68.777,22.238,68.495C22.321,68.356,22.406,68.217,22.503,68.086C22.602,67.946,22.685,67.836,22.840,67.686L24.743,70.321Z" style="fill-rule: nonzero; fill: rgb(0, 0, 114); fill-opacity: 1;"/></g></g><g id="shape-cf397e4b-3ad5-8026-8002-ec5cb92a316c"><g class="fills" id="fills-cf397e4b-3ad5-8026-8002-ec5cb92a316c"><path rx="0" ry="0" d="M38.274,63.270C38.351,63.278,38.376,63.283,38.414,63.290L38.513,63.311C38.576,63.327,38.636,63.344,38.689,63.362C38.805,63.396,38.906,63.442,39.012,63.483C39.214,63.577,39.407,63.677,39.586,63.798C39.947,64.032,40.265,64.317,40.532,64.636C40.796,64.957,41.018,65.300,41.165,65.674C41.324,66.037,41.398,66.436,41.415,66.824C41.037,66.702,40.699,66.601,40.376,66.533C40.058,66.460,39.752,66.426,39.469,66.408C39.188,66.387,38.917,66.403,38.671,66.422C38.547,66.434,38.430,66.446,38.320,66.462L38.169,66.490C38.143,66.492,38.123,66.498,38.106,66.504C38.097,66.506,38.087,66.507,38.085,66.510C38.084,66.513,38.068,66.515,38.105,66.520L38.274,63.270Z" style="fill-rule: nonzero; fill: rgb(0, 0, 114); fill-opacity: 1;"/></g></g><g id="shape-cf397e4b-3ad5-8026-8002-ec5cb92a316d"><g class="fills" id="fills-cf397e4b-3ad5-8026-8002-ec5cb92a316d"><path rx="0" ry="0" d="M150.274,32.826C149.975,47.551,148.495,65.186,144.186,81.473C144.186,81.473,124.996,122.199,112.482,152.796C110.958,156.527,109.531,160.104,108.250,163.440C107.492,165.418,106.783,167.310,106.138,169.096C95.456,198.656,77.823,193.249,58.365,186.275C58.365,186.275,27.788,177.555,34.476,148.170C34.476,148.170,35.198,144.288,36.962,137.738C41.554,120.677,53.229,85.502,77.697,53.696C88.517,39.634,101.837,26.227,118.153,15.339C125.693,10.305,133.870,5.810,142.739,2.034C145.872,0.699,149.391,2.848,149.630,6.257C150.044,12.222,150.497,21.690,150.274,32.826Z" style="fill-rule: nonzero; fill: rgb(252, 175, 3); fill-opacity: 1;"/></g></g><g id="shape-cf397e4b-3ad5-8026-8002-ec5cb92a316e"><g class="fills" id="fills-cf397e4b-3ad5-8026-8002-ec5cb92a316e"><path rx="0" ry="0" d="M66.116,145.388C59.372,142.557,46.673,134.337,46.673,134.337C53.325,102.397,78.430,62.203,78.430,62.203L78.431,62.202L78.431,62.203L97.117,55.494L101.015,54.094L102.576,63.294L104.402,74.060C85.987,89.145,66.116,145.388,66.116,145.388Z" style="fill-rule: nonzero; fill: rgb(253, 207, 104); fill-opacity: 1;"/></g></g><g id="shape-cf397e4b-3ad5-8026-8002-ec5cb92a316f"><g class="fills" id="fills-cf397e4b-3ad5-8026-8002-ec5cb92a316f"><path rx="0" ry="0" d="M144.186,81.473C144.186,81.473,124.996,122.199,112.482,152.796L104.403,152.796C112.916,132.220,133.500,86.617,133.500,86.617L144.186,81.473Z" style="fill-rule: nonzero; fill: rgb(255, 233, 125); fill-opacity: 1;"/></g></g><g id="shape-cf397e4b-3ad5-8026-8002-ec5cb92a3170"><g class="fills" id="fills-cf397e4b-3ad5-8026-8002-ec5cb92a3170"><path rx="0" ry="0" d="M108.250,163.440C107.492,165.418,106.783,167.310,106.138,169.096C95.456,198.656,77.823,193.249,58.365,186.275C58.365,186.275,27.788,177.555,34.476,148.170C34.476,148.170,35.198,144.288,36.962,137.738C36.962,137.738,56.509,164.498,108.250,163.440Z" style="fill-rule: nonzero; fill: rgb(255, 74, 148); fill-opacity: 1;"/></g></g><g id="shape-cf397e4b-3ad5-8026-8002-ec5cb92a3171"><g class="fills" id="fills-cf397e4b-3ad5-8026-8002-ec5cb92a3171"><path rx="0" ry="0" d="M150.274,32.826C149.975,47.551,148.495,65.186,144.186,81.473L133.500,86.617L128.466,66.736L104.403,74.060L101.014,54.094L78.431,62.203L77.697,53.696C88.517,39.634,101.837,26.227,118.153,15.339C125.693,10.305,133.870,5.810,142.739,2.034C145.872,0.699,149.391,2.848,149.630,6.257C150.044,12.222,150.497,21.690,150.274,32.826Z" style="fill-rule: nonzero; fill: rgb(255, 218, 165); fill-opacity: 1;"/></g></g><g id="shape-cf397e4b-3ad5-8026-8002-ec5cb92a3172"><g class="fills" id="fills-cf397e4b-3ad5-8026-8002-ec5cb92a3172"><path rx="0" ry="0" d="M108.252,163.441C56.508,164.497,36.960,137.739,36.960,137.739L40.030,127.304C40.030,127.304,57.946,154.825,112.532,152.676L108.252,163.441Z" style="fill-rule: nonzero; fill: rgb(0, 177, 255); fill-opacity: 1;"/></g></g><g id="shape-cf397e4b-3ad5-8026-8002-ec5cb92a3173"><g class="fills" id="fills-cf397e4b-3ad5-8026-8002-ec5cb92a3173"><path rx="0" ry="0" d="M150.274,32.826C124.809,35.162,118.274,15.709,118.153,15.339C125.693,10.305,133.870,5.810,142.739,2.034C145.872,0.699,149.391,2.848,149.630,6.257C150.044,12.222,150.497,21.690,150.274,32.826Z" style="fill-rule: nonzero; fill: rgb(0, 0, 114); fill-opacity: 1;"/></g></g><g id="shape-cf397e4b-3ad5-8026-8002-ec5cb92a3174"><g class="fills" id="fills-cf397e4b-3ad5-8026-8002-ec5cb92a3174"><path rx="0" ry="0" d="M37.311,156.060C36.595,155.175,35.915,154.232,35.287,153.232C35.435,151.705,35.691,150.139,36.057,148.534C36.062,148.514,36.066,148.492,36.070,148.470C36.086,148.386,36.593,145.720,37.755,141.146C38.342,141.766,39.056,142.485,39.904,143.276C38.652,148.186,38.125,151.018,38.125,151.018C37.726,152.772,37.459,154.451,37.311,156.060Z" style="fill-rule: nonzero; fill: rgb(255, 200, 223); fill-opacity: 1;"/></g></g><g id="shape-cf397e4b-3ad5-8026-8002-ec5cb92a3175"><g class="fills" id="fills-cf397e4b-3ad5-8026-8002-ec5cb92a3175"><path rx="0" ry="0" d="M43.341,131.223C42.457,130.315,41.763,129.525,41.243,128.896C44.537,118.382,49.615,104.566,57.055,89.819C62.309,79.406,69.167,67.739,77.912,56.185L78.294,60.616C59.594,86.242,48.917,113.435,43.341,131.223Z" style="fill-rule: nonzero; fill: rgb(254, 231, 179); fill-opacity: 1;"/></g></g><g id="shape-cf397e4b-3ad5-8026-8002-ec5cb92a3176"><g class="fills" id="fills-cf397e4b-3ad5-8026-8002-ec5cb92a3176"><path rx="0" ry="0" d="M78.294,60.616L77.912,56.185C88.566,42.108,102.021,28.195,118.796,16.902C119.103,17.564,119.530,18.399,120.098,19.340C104.556,30.015,91.786,42.975,81.345,56.544C80.306,57.895,79.288,59.255,78.294,60.616Z" style="fill-rule: nonzero; fill: rgb(255, 244, 228); fill-opacity: 1;"/></g></g><g id="shape-cf397e4b-3ad5-8026-8002-ec5cb92a3177"><g class="fills" id="fills-cf397e4b-3ad5-8026-8002-ec5cb92a3177"><path rx="0" ry="0" d="M40.860,139.664C39.869,138.670,39.172,137.879,38.751,137.378C39.432,134.888,40.258,132.040,41.243,128.896C41.763,129.525,42.457,130.315,43.341,131.223C42.362,134.347,41.540,137.180,40.860,139.664Z" style="fill-rule: nonzero; fill: rgb(178, 231, 255); fill-opacity: 1;"/></g></g><g id="shape-cf397e4b-3ad5-8026-8002-ec5cb92a3178"><g class="fills" id="fills-cf397e4b-3ad5-8026-8002-ec5cb92a3178"><path rx="0" ry="0" d="M120.098,19.340C119.530,18.399,119.103,17.564,118.796,16.902C126.308,11.846,134.483,7.316,143.372,3.532C143.799,3.350,144.245,3.260,144.690,3.260C145.294,3.260,145.893,3.427,146.432,3.759C146.792,3.980,147.100,4.260,147.345,4.583C147.025,4.648,146.704,4.746,146.387,4.882C137.517,8.658,129.341,13.153,121.802,18.187C121.230,18.568,120.662,18.952,120.098,19.340Z" style="fill-rule: nonzero; fill: rgb(178, 178, 212); fill-opacity: 1;"/></g></g><g id="shape-cf397e4b-3ad5-8026-8002-ec5cb92a3179"><g class="fills" id="fills-cf397e4b-3ad5-8026-8002-ec5cb92a3179"><path rx="0" ry="0" d="M80.967,190.179C80.967,190.179,80.965,190.179,80.967,190.179ZC77.231,190.179,73.315,189.388,69.290,188.226C69.017,185.550,68.718,182.393,68.504,179.546C70.810,182.191,74.180,184.945,78.224,184.945C79.433,184.945,80.703,184.698,82.023,184.129C84.942,182.869,86.661,180.337,86.861,176.999C86.940,175.676,86.771,174.206,86.342,172.633C90.061,171.322,93.517,168.867,96.640,164.824C99.424,165.002,102.322,165.098,105.334,165.098C105.517,165.098,105.702,165.098,105.888,165.097C105.442,166.283,105.016,167.434,104.615,168.542C98.600,185.184,90.354,190.179,80.967,190.179ZM48.765,179.859C47.478,179.013,46.165,178.042,44.887,176.937C43.055,175.352,41.480,173.664,40.163,171.874C37.971,167.595,36.730,162.375,37.311,156.060C41.307,161.001,46.454,164.205,50.325,166.104C49.414,170.925,48.975,175.935,48.765,179.859Z" style="fill-rule: nonzero; fill: rgb(178, 52, 138); fill-opacity: 1;"/></g></g><g id="shape-cf397e4b-3ad5-8026-8002-ec5cb92a317a"><g class="fills" id="fills-cf397e4b-3ad5-8026-8002-ec5cb92a317a"><path rx="0" ry="0" d="M40.163,171.874C36.234,166.535,34.601,160.298,35.287,153.232C35.915,154.232,36.595,155.175,37.311,156.060C36.730,162.375,37.971,167.595,40.163,171.874Z" style="fill-rule: nonzero; fill: rgb(178, 140, 190); fill-opacity: 1;"/></g></g><g id="shape-cf397e4b-3ad5-8026-8002-ec5cb92a317b"><g class="fills" id="fills-cf397e4b-3ad5-8026-8002-ec5cb92a317b"><path rx="0" ry="0" d="M104.410,152.780C103.978,152.773,103.549,152.765,103.123,152.755C103.319,152.245,103.513,151.726,103.706,151.193C104.350,149.407,105.060,147.514,105.818,145.537C107.098,142.201,108.525,138.624,110.050,134.893C111.013,132.538,112.016,130.122,113.047,127.670C113.572,127.938,114.154,128.133,114.784,128.237C114.840,128.246,114.896,128.255,114.952,128.264C110.924,137.443,107.076,146.335,104.410,152.780Z" style="fill-rule: nonzero; fill: rgb(176, 122, 37); fill-opacity: 1;"/></g></g><g id="shape-cf397e4b-3ad5-8026-8002-ec5cb92a317c"><g class="fills" id="fills-cf397e4b-3ad5-8026-8002-ec5cb92a317c"><path rx="0" ry="0" d="M106.532,152.795C105.817,152.795,105.112,152.790,104.410,152.780C107.076,146.335,110.924,137.443,114.952,128.264C116.664,128.542,118.669,128.811,120.840,128.997C117.321,137.041,113.830,145.210,110.759,152.736C109.324,152.775,107.915,152.795,106.532,152.795Z" style="fill-rule: nonzero; fill: rgb(178, 163, 122); fill-opacity: 1;"/></g></g><g id="shape-cf397e4b-3ad5-8026-8002-ec5cb92a317d"><g class="fills" id="fills-cf397e4b-3ad5-8026-8002-ec5cb92a317d"><path rx="0" ry="0" d="M105.305,161.844C103.070,161.844,100.902,161.790,98.798,161.687C100.336,159.187,101.781,156.228,103.123,152.755C103.549,152.765,103.978,152.773,104.410,152.780C105.112,152.790,105.817,152.795,106.532,152.795C107.915,152.795,109.324,152.775,110.759,152.736C109.466,155.902,108.249,158.951,107.134,161.832C106.519,161.839,105.909,161.844,105.305,161.844Z" style="fill-rule: nonzero; fill: rgb(0, 124, 212); fill-opacity: 1;"/></g></g><g id="shape-cf397e4b-3ad5-8026-8002-ec5cb92a317e"><g class="fills" id="fills-cf397e4b-3ad5-8026-8002-ec5cb92a317e"><path rx="0" ry="0" d="M118.336,115.304C123.308,103.853,128.452,92.435,132.648,83.250L133.500,86.617C133.500,86.617,127.560,99.775,120.743,115.145C120.594,115.133,120.517,115.127,120.517,115.127C119.738,115.153,119.013,115.213,118.336,115.304Z" style="fill-rule: nonzero; fill: rgb(176, 122, 37); fill-opacity: 1;"/></g></g><g id="shape-cf397e4b-3ad5-8026-8002-ec5cb92a317f"><g class="fills" id="fills-cf397e4b-3ad5-8026-8002-ec5cb92a317f"><path rx="0" ry="0" d="M126.754,115.638C125.853,115.563,125.019,115.494,124.270,115.432L124.266,115.432C122.511,115.288,121.238,115.185,120.743,115.145C127.560,99.775,133.500,86.617,133.500,86.617L133.500,86.617L141.872,82.587C139.694,87.243,133.610,100.318,126.754,115.638Z" style="fill-rule: nonzero; fill: rgb(178, 163, 122); fill-opacity: 1;"/></g></g><g id="shape-cf397e4b-3ad5-8026-8002-ec5cb92a3180"><g class="fills" id="fills-cf397e4b-3ad5-8026-8002-ec5cb92a3180"><path rx="0" ry="0" d="M133.500,86.617L133.500,86.617ZL132.648,83.250C134.602,78.973,136.349,75.182,137.779,72.095C141.040,65.057,143.371,57.623,144.691,49.975C145.672,44.286,146.378,38.578,146.874,33.015C147.451,33.004,148.039,32.982,148.638,32.949C148.335,47.448,146.882,64.886,142.658,80.911C142.541,81.159,142.272,81.730,141.872,82.587L133.500,86.617Z" style="fill-rule: nonzero; fill: rgb(178, 152, 150); fill-opacity: 1;"/></g></g><g id="shape-cf397e4b-3ad5-8026-8002-ec5cb92a3181"><g class="fills" id="fills-cf397e4b-3ad5-8026-8002-ec5cb92a3181"><path rx="0" ry="0" d="M146.874,33.015C147.435,26.715,147.726,20.603,147.843,14.924C147.907,11.672,147.914,8.566,147.882,5.645C147.950,5.877,147.994,6.121,148.011,6.371C148.407,12.038,148.875,21.592,148.638,32.949C148.039,32.982,147.451,33.004,146.874,33.015Z" style="fill-rule: nonzero; fill: rgb(0, 0, 114); fill-opacity: 1;"/></g></g><g id="shape-cf397e4b-3ad5-8026-8002-ec5cb92a3182"><g class="fills" id="fills-cf397e4b-3ad5-8026-8002-ec5cb92a3182"><path rx="0" ry="0" d="M144.690,3.260C144.245,3.260,143.799,3.350,143.372,3.532C98.340,22.703,71.577,61.037,57.055,89.819C41.271,121.104,36.120,148.199,36.070,148.470C36.066,148.492,36.062,148.514,36.057,148.534C33.436,160.046,36.407,169.602,44.887,176.937C51.344,182.521,58.734,184.687,58.808,184.708C58.842,184.718,58.876,184.729,58.909,184.740C66.584,187.492,74.082,190.179,80.965,190.179C90.352,190.180,98.599,185.185,104.615,168.542C114.954,139.942,141.172,84.069,142.658,80.911C150.189,52.335,148.912,19.274,148.011,6.371C147.935,5.281,147.360,4.329,146.432,3.759C145.893,3.427,145.294,3.260,144.690,3.260ZM81.047,193.406C73.456,193.407,65.450,190.542,57.866,187.823C57.090,187.595,49.626,185.296,42.857,179.478C36.310,173.849,29.269,163.793,32.888,147.839C33.106,146.703,38.407,119.605,54.119,88.434C63.507,69.810,74.725,53.375,87.462,39.586C103.411,22.320,121.796,9.181,142.106,0.535C144.093,-0.312,146.288,-0.147,148.127,0.984C149.959,2.110,151.096,3.991,151.246,6.142C152.160,19.230,153.452,52.809,145.753,81.890C145.729,81.985,145.694,82.079,145.652,82.167C145.379,82.748,118.200,140.505,107.664,169.653C101.013,188.052,91.420,193.406,81.047,193.406Z" style="fill-rule: nonzero; fill: rgb(0, 0, 114); fill-opacity: 1;"/></g></g><g id="shape-cf397e4b-3ad5-8026-8002-ec5cb92a3183"><g class="fills" id="fills-cf397e4b-3ad5-8026-8002-ec5cb92a3183"><path rx="0" ry="0" d="M133.502,88.244C133.267,88.244,133.033,88.193,132.815,88.091C132.375,87.884,132.050,87.490,131.931,87.017L127.311,68.788L104.873,75.619C104.428,75.754,103.945,75.690,103.549,75.445C103.154,75.200,102.882,74.794,102.804,74.334L99.741,56.280L78.976,63.735C78.503,63.905,77.978,63.846,77.555,63.572C77.131,63.300,76.857,62.846,76.814,62.343L76.082,53.837L79.312,53.556L79.864,59.959L100.469,52.562C100.920,52.400,101.419,52.448,101.833,52.689C102.247,52.933,102.533,53.347,102.614,53.821L105.691,71.967L127.994,65.180C128.418,65.052,128.876,65.101,129.261,65.320C129.646,65.538,129.927,65.905,130.036,66.336L134.586,84.290L143.486,80.005L144.888,82.939L134.204,88.084C133.982,88.190,133.742,88.244,133.502,88.244Z" style="fill-rule: nonzero; fill: rgb(0, 0, 114); fill-opacity: 1;"/></g></g><g id="shape-cf397e4b-3ad5-8026-8002-ec5cb92a3184"><g class="fills" id="fills-cf397e4b-3ad5-8026-8002-ec5cb92a3184"><path rx="0" ry="0" d="M106.626,154.421C81.403,154.421,64.744,147.905,54.995,142.202C43.494,135.474,38.864,128.489,38.673,128.194L41.388,126.413L40.030,127.304L41.385,126.411C41.429,126.478,45.901,133.163,56.826,139.504C66.934,145.373,84.792,152.144,112.468,151.049L112.596,154.302C110.556,154.382,108.564,154.421,106.626,154.421Z" style="fill-rule: nonzero; fill: rgb(0, 0, 114); fill-opacity: 1;"/></g></g><g id="shape-cf397e4b-3ad5-8026-8002-ec5cb92a3185"><g class="fills" id="fills-cf397e4b-3ad5-8026-8002-ec5cb92a3185"><path rx="0" ry="0" d="M105.334,165.098C79.850,165.098,62.545,158.260,52.393,152.397C40.875,145.745,35.860,138.986,35.653,138.702L38.266,136.775C38.314,136.840,43.189,143.365,54.187,149.677C64.350,155.509,81.974,162.355,108.219,161.813L108.285,165.068C107.291,165.088,106.304,165.098,105.334,165.098Z" style="fill-rule: nonzero; fill: rgb(0, 0, 114); fill-opacity: 1;"/></g></g><g id="shape-cf397e4b-3ad5-8026-8002-ec5cb92a3186"><g class="fills" id="fills-cf397e4b-3ad5-8026-8002-ec5cb92a3186"><path rx="0" ry="0" d="M88.350,110.346C88.131,111.806,87.690,113.658,86.794,115.464C85.010,119.066,81.427,122.491,74.235,122.333C72.087,122.288,70.044,121.413,68.540,119.876C67.717,119.033,66.841,117.959,66.116,116.657C64.361,113.500,63.493,109.012,66.480,103.311C67.446,101.468,69.723,100.760,71.564,101.716C74.868,103.425,80.446,105.980,86.096,107.107C87.585,107.404,88.573,108.837,88.350,110.346Z" style="fill-rule: nonzero; fill: rgb(0, 0, 114); fill-opacity: 1;"/></g></g><g id="shape-cf397e4b-3ad5-8026-8002-ec5cb92a3187"><g class="fills" id="fills-cf397e4b-3ad5-8026-8002-ec5cb92a3187"><path rx="0" ry="0" d="M86.794,115.464C85.010,119.066,81.427,122.491,74.235,122.333C72.087,122.288,70.044,121.413,68.540,119.876C67.717,119.033,66.841,117.959,66.116,116.657C69.208,113.235,76.615,107.485,86.794,115.464Z" style="fill-rule: nonzero; fill: rgb(255, 74, 148); fill-opacity: 1;"/></g></g><g id="shape-cf397e4b-3ad5-8026-8002-ec5cb92a3188"><g class="fills" id="fills-cf397e4b-3ad5-8026-8002-ec5cb92a3188"><path rx="0" ry="0" d="M69.830,102.513C68.906,102.513,68.013,103.011,67.557,103.879C63.825,111.007,66.505,116.047,69.410,119.019C70.690,120.329,72.413,121.073,74.261,121.114C83.549,121.314,86.390,115.273,87.146,110.168C87.277,109.292,86.710,108.473,85.858,108.303C80.203,107.177,74.661,104.689,71.007,102.800C70.631,102.605,70.228,102.513,69.830,102.513ZZM74.707,123.560C74.542,123.560,74.377,123.558,74.208,123.555C71.722,123.500,69.402,122.496,67.674,120.729C64.831,117.821,60.757,111.618,65.405,102.744C66.674,100.319,69.688,99.371,72.121,100.629C75.635,102.447,80.953,104.838,86.332,105.909C88.459,106.333,89.873,108.360,89.552,110.528C88.967,114.476,86.348,123.560,74.707,123.560Z" style="fill-rule: nonzero; fill: rgb(0, 0, 114); fill-opacity: 1;"/></g></g><g id="shape-cf397e4b-3ad5-8026-8002-ec5cb92a3189"><g class="fills" id="fills-cf397e4b-3ad5-8026-8002-ec5cb92a3189"><path rx="0" ry="0" d="M78.192,88.292C75.658,92.697,71.003,94.760,67.796,92.901C64.587,91.042,64.040,85.965,66.575,81.559C69.108,77.155,73.762,75.091,76.971,76.950C80.179,78.809,80.725,83.887,78.192,88.292Z" style="fill-rule: nonzero; fill: rgb(0, 0, 114); fill-opacity: 1;"/></g></g><g id="shape-cf397e4b-3ad5-8026-8002-ec5cb92a318a"><g class="fills" id="fills-cf397e4b-3ad5-8026-8002-ec5cb92a318a"><path rx="0" ry="0" d="M76.902,86.135C75.992,87.718,74.319,88.460,73.166,87.792C72.015,87.123,71.818,85.299,72.728,83.716C73.639,82.134,75.310,81.392,76.463,82.060C77.616,82.727,77.813,84.553,76.902,86.135Z" style="fill-rule: nonzero; fill: rgb(255, 255, 255); fill-opacity: 1;"/></g></g><g id="shape-cf397e4b-3ad5-8026-8002-ec5cb92a318b"><g class="fills" id="fills-cf397e4b-3ad5-8026-8002-ec5cb92a318b"><path rx="0" ry="0" d="M103.817,98.754C101.283,103.160,96.628,105.223,93.421,103.364C90.212,101.505,89.665,96.427,92.199,92.022C94.733,87.618,99.387,85.553,102.596,87.412C105.804,89.271,106.350,94.350,103.817,98.754Z" style="fill-rule: nonzero; fill: rgb(0, 0, 114); fill-opacity: 1;"/></g></g><g id="shape-cf397e4b-3ad5-8026-8002-ec5cb92a318c"><g class="fills" id="fills-cf397e4b-3ad5-8026-8002-ec5cb92a318c"><path rx="0" ry="0" d="M102.528,96.598C101.617,98.181,99.944,98.922,98.792,98.254C97.640,97.586,97.443,95.762,98.353,94.179C99.264,92.596,100.936,91.855,102.088,92.523C103.241,93.191,103.438,95.015,102.528,96.598Z" style="fill-rule: nonzero; fill: rgb(255, 255, 255); fill-opacity: 1;"/></g></g><g id="shape-cf397e4b-3ad5-8026-8002-ec5cb92a318d"><g class="fills" id="fills-cf397e4b-3ad5-8026-8002-ec5cb92a318d"><path rx="0" ry="0" d="M116.047,97.213C113.992,100.798,109.337,107.812,103.532,109.380C100.868,110.102,98.294,109.574,95.670,107.757C92.759,105.749,91.126,103.301,90.680,100.285C89.889,94.955,93.082,89.304,94.733,86.811C95.057,86.322,95.583,86.016,96.166,85.986C99.651,85.812,108.198,86.401,115.830,95.072C116.350,95.661,116.438,96.527,116.047,97.213ZZM79.793,81.532C79.067,84.258,77.088,90.047,72.847,92.814C70.448,94.379,67.709,94.749,64.477,93.947C61.562,93.217,59.585,91.727,58.428,89.390C55.909,84.299,57.931,76.620,59.173,72.925C59.408,72.222,60.074,71.747,60.816,71.747C71.673,71.738,77.424,77.427,79.476,80.002C79.820,80.432,79.934,81.000,79.793,81.532ZZM121.760,94.459C120.219,93.541,119.436,93.006,119.149,92.803C119.064,92.742,118.987,92.674,118.916,92.598C108.000,80.883,94.450,82.450,93.885,82.560C93.461,82.645,93.080,82.874,92.810,83.212C92.752,83.283,92.449,83.671,92.005,84.312C91.507,85.036,90.522,85.216,89.789,84.734C87.866,83.470,86.154,82.836,84.775,82.534C83.918,82.347,83.356,81.517,83.520,80.652L83.520,80.649C83.591,80.245,83.515,79.831,83.311,79.480C83.037,79.010,75.682,68.437,60.637,68.017C60.532,68.014,60.426,68.000,60.324,67.976C59.995,67.897,59.131,67.674,57.543,67.161C56.182,66.723,54.691,67.285,53.969,68.517C53.799,68.809,53.638,69.120,53.510,69.452C53.089,70.517,53.408,71.733,54.288,72.467L54.596,72.723C55.086,73.130,55.291,73.784,55.124,74.401C53.878,78.967,52.804,85.770,55.347,90.917C55.787,91.813,56.319,92.623,56.939,93.349C58.575,95.268,60.818,96.586,63.647,97.293C67.803,98.329,71.532,97.792,74.734,95.702C78.206,93.432,80.393,89.731,81.716,86.566C81.994,85.901,82.668,85.488,83.381,85.576C84.507,85.714,86.262,86.206,88.429,87.738C89.055,88.180,89.291,89.010,88.981,89.713C87.587,92.869,86.481,96.831,87.068,100.808C87.664,104.835,89.859,108.189,93.602,110.773C96.148,112.535,98.777,113.400,101.444,113.357C102.453,113.340,103.473,113.193,104.490,112.917C110.382,111.317,115.028,105.630,117.764,101.423C118.112,100.889,118.735,100.611,119.363,100.709L119.846,100.785C121.045,100.973,122.236,100.372,122.782,99.285C122.951,98.952,123.087,98.604,123.199,98.264C123.666,96.817,123.061,95.235,121.760,94.459Z" style="fill-rule: nonzero; fill: rgb(0, 177, 255); fill-opacity: 1;"/></g></g><g id="shape-cf397e4b-3ad5-8026-8002-ec5cb92a318e"><g class="fills" id="fills-cf397e4b-3ad5-8026-8002-ec5cb92a318e"><path rx="0" ry="0" d="M60.841,72.560C60.425,72.563,60.069,72.804,59.941,73.185C58.891,76.306,56.715,84.097,59.154,89.028C60.198,91.138,62.004,92.489,64.673,93.158C67.675,93.902,70.205,93.568,72.405,92.132C76.472,89.479,78.378,83.689,79.009,81.321C79.085,81.038,79.023,80.736,78.844,80.511C76.937,78.119,71.369,72.560,60.841,72.560ZZM67.629,95.174C66.568,95.174,65.456,95.028,64.283,94.737C61.122,93.946,58.971,92.315,57.702,89.752C55.090,84.472,57.021,76.781,58.404,72.665C58.753,71.622,59.751,70.918,60.842,70.934C72.074,70.934,78.057,76.918,80.109,79.494C80.609,80.120,80.784,80.961,80.576,81.741L80.576,81.742C79.732,84.906,77.663,90.643,73.289,93.497C71.571,94.617,69.701,95.174,67.629,95.174ZZM97.103,86.777C96.772,86.777,96.473,86.786,96.207,86.799C95.884,86.815,95.592,86.984,95.407,87.262C93.974,89.428,90.719,95.023,91.482,100.166C91.894,102.950,93.414,105.214,96.129,107.087C98.543,108.759,100.896,109.252,103.321,108.594C108.947,107.075,113.601,99.848,115.343,96.809C115.562,96.423,115.514,95.941,115.223,95.612C108.402,87.862,100.810,86.777,97.103,86.777ZZM101.239,110.509C99.210,110.509,97.219,109.819,95.209,108.427C92.104,106.285,90.360,103.661,89.878,100.405C89.062,94.909,92.146,89.247,94.058,86.361C94.529,85.650,95.282,85.217,96.125,85.173C99.604,85.000,108.542,85.564,116.438,94.532C117.190,95.384,117.315,96.624,116.751,97.617L116.750,97.618C114.463,101.611,109.732,108.549,103.744,110.165C102.900,110.394,102.066,110.509,101.239,110.509ZZM83.196,84.750C83.290,84.750,83.384,84.756,83.479,84.768C84.668,84.913,86.573,85.432,88.896,87.073C89.840,87.740,90.187,88.989,89.722,90.042C88.020,93.896,87.397,97.478,87.871,100.689C88.433,104.487,90.515,107.655,94.061,110.103C96.460,111.763,98.944,112.578,101.431,112.543C102.372,112.528,103.330,112.389,104.278,112.131C109.852,110.617,114.320,105.230,117.086,100.978C117.606,100.179,118.550,99.758,119.489,99.905L119.972,99.981C120.833,100.117,121.671,99.688,122.058,98.918C122.194,98.650,122.318,98.345,122.429,98.009C122.774,96.940,122.319,95.740,121.346,95.159C119.829,94.254,119.025,93.711,118.682,93.468C118.554,93.377,118.434,93.271,118.324,93.154C107.509,81.548,94.168,83.337,94.038,83.359C93.805,83.406,93.592,83.535,93.441,83.722C93.434,83.731,93.146,84.088,92.672,84.776C91.920,85.866,90.458,86.148,89.344,85.415C87.760,84.373,86.164,83.671,84.602,83.330C83.302,83.045,82.478,81.803,82.724,80.500L82.724,80.494C82.757,80.287,82.717,80.073,82.612,79.891C82.549,79.788,75.488,69.246,60.615,68.831C60.448,68.825,60.289,68.805,60.138,68.768C59.751,68.675,58.870,68.445,57.294,67.935C56.298,67.616,55.193,68.033,54.667,68.930C54.494,69.228,54.363,69.495,54.265,69.747C53.972,70.489,54.190,71.328,54.806,71.842L55.113,72.096C55.846,72.704,56.157,73.693,55.905,74.615C54.655,79.201,53.669,85.689,56.074,90.555C56.479,91.382,56.977,92.143,57.554,92.820C59.074,94.601,61.189,95.840,63.843,96.503C67.770,97.483,71.285,96.982,74.292,95.019C77.718,92.779,79.814,89.015,80.968,86.252C81.349,85.338,82.240,84.750,83.196,84.750ZZM101.254,114.172C98.487,114.172,95.760,113.255,93.141,111.444C89.211,108.730,86.897,105.191,86.267,100.927C85.747,97.406,86.411,93.523,88.240,89.383C88.392,89.037,88.275,88.625,87.962,88.404C85.915,86.956,84.287,86.507,83.283,86.384C82.941,86.340,82.603,86.546,82.464,86.881C81.221,89.855,78.948,93.917,75.177,96.383C71.777,98.603,67.832,99.175,63.452,98.084C60.464,97.337,58.066,95.922,56.323,93.878C55.658,93.099,55.084,92.223,54.619,91.276C51.990,85.954,53.017,79.044,54.342,74.185C54.425,73.879,54.322,73.552,54.080,73.351L53.771,73.095C52.613,72.128,52.206,70.544,52.756,69.152C52.882,68.826,53.050,68.483,53.269,68.107C54.176,66.558,56.079,65.836,57.790,66.386C59.372,66.897,60.221,67.115,60.513,67.185C60.557,67.196,60.607,67.202,60.663,67.204C76.385,67.643,83.944,78.956,84.011,79.069C84.312,79.586,84.422,80.197,84.320,80.788C84.318,80.798,84.316,80.807,84.314,80.816C84.241,81.241,84.517,81.646,84.947,81.739C86.704,82.124,88.482,82.901,90.233,84.053C90.606,84.298,91.091,84.209,91.339,83.849C91.777,83.216,92.096,82.803,92.182,82.697C92.566,82.217,93.116,81.883,93.728,81.762C93.868,81.735,108.138,79.840,119.508,92.041C119.544,92.080,119.580,92.112,119.618,92.139C119.877,92.323,120.649,92.851,122.173,93.759L122.174,93.759C123.819,94.741,124.557,96.696,123.970,98.515C123.833,98.934,123.676,99.316,123.504,99.654C122.800,101.054,121.281,101.831,119.721,101.589L119.239,101.513C118.928,101.464,118.616,101.604,118.443,101.868C115.524,106.357,110.769,112.055,104.701,113.702C103.624,113.995,102.533,114.153,101.457,114.170C101.389,114.171,101.322,114.172,101.254,114.172Z" style="fill-rule: nonzero; fill: rgb(0, 0, 114); fill-opacity: 1;"/></g></g><g id="shape-cf397e4b-3ad5-8026-8002-ec5cb92a318f"><g class="fills" id="fills-cf397e4b-3ad5-8026-8002-ec5cb92a318f"><path rx="0" ry="0" d="M157.478,132.871C157.478,132.871,155.739,139.455,144.794,138.929C144.794,138.929,142.276,127.858,131.506,128.989C125.426,129.628,119.122,128.949,114.784,128.237C110.111,127.467,108.164,121.710,111.485,118.321C113.167,116.608,115.952,115.282,120.517,115.127C120.517,115.127,121.983,115.245,124.266,115.432L124.270,115.432C130.598,115.953,143.189,117.027,148.357,117.698C154.255,118.468,156.675,128.611,157.304,131.870C157.426,132.497,157.478,132.871,157.478,132.871Z" style="fill-rule: nonzero; fill: rgb(252, 175, 3); fill-opacity: 1;"/></g></g><g id="shape-cf397e4b-3ad5-8026-8002-ec5cb92a3190"><g class="fills" id="fills-cf397e4b-3ad5-8026-8002-ec5cb92a3190"><path rx="0" ry="0" d="M146.012,138.960C145.619,138.960,145.214,138.950,144.794,138.929C144.794,138.929,144.344,136.951,143.011,134.753C142.486,133.887,141.824,132.987,140.998,132.159C139.203,130.361,136.633,128.908,133.019,128.908C132.533,128.908,132.030,128.934,131.506,128.989C131.227,129.019,130.948,129.045,130.670,129.069C129.530,129.167,128.386,129.220,127.253,129.238C126.961,129.242,126.671,129.244,126.382,129.244C125.677,129.244,124.979,129.231,124.290,129.207C123.108,129.166,121.952,129.092,120.840,128.997C118.597,128.805,116.532,128.523,114.784,128.237C111.717,127.732,109.825,125.079,109.825,122.357C109.825,120.982,110.307,119.590,111.364,118.447C110.064,119.853,109.635,121.637,109.904,123.301C110.175,122.687,110.563,122.103,111.079,121.576C112.673,119.954,115.254,118.678,119.400,118.416C118.241,119.430,117.495,120.552,117.870,121.637C118.954,124.770,142.706,120.478,146.163,130.009C146.661,131.380,147.567,132.584,148.859,133.257C149.636,133.661,150.598,133.962,151.743,133.962C153.035,133.962,154.558,133.579,156.307,132.526C156.487,133.216,156.632,133.843,156.746,134.374C155.570,136.177,152.676,138.960,146.012,138.960Z" style="fill-rule: nonzero; fill: rgb(176, 122, 37); fill-opacity: 1;"/></g></g><g id="shape-cf397e4b-3ad5-8026-8002-ec5cb92a3191"><g class="fills" id="fills-cf397e4b-3ad5-8026-8002-ec5cb92a3191"><path rx="0" ry="0" d="M157.244,133.478C157.244,133.477,157.244,133.477,157.244,133.478ZC157.244,133.477,157.244,133.477,157.244,133.478Z" style="fill-rule: nonzero; fill: rgb(176, 122, 37); fill-opacity: 1;"/></g></g><g id="shape-cf397e4b-3ad5-8026-8002-ec5cb92a3192"><g class="fills" id="fills-cf397e4b-3ad5-8026-8002-ec5cb92a3192"><path rx="0" ry="0" d="M157.246,133.472C157.246,133.472,157.247,133.472,157.246,133.472ZC157.247,133.472,157.246,133.472,157.246,133.472Z" style="fill-rule: nonzero; fill: rgb(176, 122, 37); fill-opacity: 1;"/></g></g><g id="shape-cf397e4b-3ad5-8026-8002-ec5cb92a3193"><g class="fills" id="fills-cf397e4b-3ad5-8026-8002-ec5cb92a3193"><path rx="0" ry="0" d="M157.249,133.467C157.250,133.466,157.250,133.465,157.249,133.467ZC157.250,133.465,157.250,133.466,157.249,133.467Z" style="fill-rule: nonzero; fill: rgb(176, 122, 37); fill-opacity: 1;"/></g></g><g id="shape-cf397e4b-3ad5-8026-8002-ec5cb92a3194"><g class="fills" id="fills-cf397e4b-3ad5-8026-8002-ec5cb92a3194"><path rx="0" ry="0" d="M157.253,133.459C157.407,133.120,157.469,132.901,157.477,132.874C157.469,132.901,157.407,133.120,157.253,133.459Z" style="fill-rule: nonzero; fill: rgb(176, 122, 37); fill-opacity: 1;"/></g></g><g id="shape-cf397e4b-3ad5-8026-8002-ec5cb92a3195"><g class="fills" id="fills-cf397e4b-3ad5-8026-8002-ec5cb92a3195"><path rx="0" ry="0" d="M111.365,118.446C111.368,118.444,111.370,118.441,111.365,118.446ZC111.370,118.441,111.368,118.444,111.365,118.446ZM111.373,118.439C111.380,118.431,111.386,118.424,111.373,118.439ZC111.386,118.424,111.380,118.431,111.373,118.439ZM111.397,118.413C111.398,118.411,111.400,118.409,111.397,118.413ZC111.400,118.409,111.398,118.411,111.397,118.413ZM111.406,118.403C111.407,118.402,111.409,118.400,111.406,118.403ZC111.409,118.400,111.407,118.402,111.406,118.403ZM111.415,118.393C111.417,118.392,111.417,118.391,111.415,118.393ZC111.417,118.391,111.417,118.392,111.415,118.393ZM111.424,118.384C111.425,118.382,111.427,118.381,111.424,118.384ZC111.427,118.381,111.425,118.382,111.424,118.384ZM111.436,118.371C111.437,118.370,111.438,118.370,111.436,118.371ZC111.438,118.370,111.437,118.370,111.436,118.371ZM111.445,118.361C111.446,118.360,111.447,118.359,111.445,118.361ZC111.447,118.359,111.446,118.360,111.445,118.361ZM111.455,118.352C111.455,118.351,111.456,118.350,111.455,118.352ZC111.456,118.350,111.455,118.351,111.455,118.352ZM111.464,118.343C111.465,118.342,111.465,118.341,111.464,118.343ZC111.465,118.341,111.465,118.342,111.464,118.343ZM111.473,118.333C111.474,118.332,111.475,118.331,111.473,118.333ZC111.475,118.331,111.474,118.332,111.473,118.333Z" style="fill-rule: nonzero; fill: rgb(176, 122, 37); fill-opacity: 1;"/></g></g><g id="shape-cf397e4b-3ad5-8026-8002-ec5cb92a3196"><g class="fills" id="fills-cf397e4b-3ad5-8026-8002-ec5cb92a3196"><path rx="0" ry="0" d="M156.746,134.374L156.746,134.374ZC156.969,134.032,157.130,133.724,157.244,133.478C157.130,133.724,156.969,134.032,156.746,134.374ZM157.245,133.477C157.246,133.475,157.246,133.474,157.245,133.477ZC157.246,133.473,157.246,133.475,157.245,133.477ZM157.247,133.471C157.248,133.469,157.249,133.468,157.247,133.471ZC157.249,133.467,157.248,133.469,157.247,133.471ZM157.250,133.465C157.251,133.462,157.252,133.461,157.250,133.465ZC157.252,133.461,157.251,133.462,157.250,133.465ZM157.477,132.874L157.477,132.874ZL157.477,132.874ZM157.477,132.874C157.478,132.873,157.478,132.873,157.477,132.874ZC157.478,132.873,157.478,132.873,157.477,132.874ZM157.478,132.872L157.478,132.872ZL157.478,132.872ZM157.478,132.871L157.478,132.871ZL157.478,132.871ZL157.478,132.871Z" style="fill-rule: nonzero; fill: rgb(255, 255, 255); fill-opacity: 1;"/></g></g><g id="shape-cf397e4b-3ad5-8026-8002-ec5cb92a3197"><g class="fills" id="fills-cf397e4b-3ad5-8026-8002-ec5cb92a3197"><path rx="0" ry="0" d="M156.307,132.526C155.184,128.239,152.691,121.571,147.952,120.953C142.783,120.282,130.193,119.208,123.865,118.687L123.861,118.687C121.579,118.500,120.111,118.382,120.111,118.382C119.869,118.390,119.632,118.402,119.400,118.416C120.832,117.165,122.896,116.079,124.266,115.432L124.266,115.432L124.270,115.432C130.598,115.953,143.189,117.027,148.357,117.698C154.255,118.468,156.675,128.611,157.304,131.870C156.964,132.113,156.631,132.331,156.307,132.526Z" style="fill-rule: nonzero; fill: rgb(254, 231, 179); fill-opacity: 1;"/></g></g><g id="shape-cf397e4b-3ad5-8026-8002-ec5cb92a3198"><g class="fills" id="fills-cf397e4b-3ad5-8026-8002-ec5cb92a3198"><path rx="0" ry="0" d="M111.364,118.447C111.364,118.447,111.364,118.447,111.364,118.447ZC111.364,118.447,111.364,118.447,111.364,118.447Z" style="fill-rule: nonzero; fill: rgb(254, 231, 179); fill-opacity: 1;"/></g></g><g id="shape-cf397e4b-3ad5-8026-8002-ec5cb92a3199"><g class="fills" id="fills-cf397e4b-3ad5-8026-8002-ec5cb92a3199"><path rx="0" ry="0" d="M111.394,118.416C111.395,118.414,111.396,118.414,111.394,118.416ZC111.396,118.414,111.395,118.414,111.394,118.416Z" style="fill-rule: nonzero; fill: rgb(254, 231, 179); fill-opacity: 1;"/></g></g><g id="shape-cf397e4b-3ad5-8026-8002-ec5cb92a319a"><g class="fills" id="fills-cf397e4b-3ad5-8026-8002-ec5cb92a319a"><path rx="0" ry="0" d="M111.401,118.408C111.403,118.406,111.405,118.404,111.401,118.408ZC111.405,118.404,111.403,118.406,111.401,118.408Z" style="fill-rule: nonzero; fill: rgb(254, 231, 179); fill-opacity: 1;"/></g></g><g id="shape-cf397e4b-3ad5-8026-8002-ec5cb92a319b"><g class="fills" id="fills-cf397e4b-3ad5-8026-8002-ec5cb92a319b"><path rx="0" ry="0" d="M111.410,118.398C111.412,118.397,111.413,118.395,111.410,118.398ZC111.413,118.396,111.412,118.397,111.410,118.398Z" style="fill-rule: nonzero; fill: rgb(254, 231, 179); fill-opacity: 1;"/></g></g><g id="shape-cf397e4b-3ad5-8026-8002-ec5cb92a319c"><g class="fills" id="fills-cf397e4b-3ad5-8026-8002-ec5cb92a319c"><path rx="0" ry="0" d="M111.419,118.389C111.421,118.387,111.423,118.386,111.419,118.389ZC111.423,118.386,111.421,118.387,111.419,118.389Z" style="fill-rule: nonzero; fill: rgb(254, 231, 179); fill-opacity: 1;"/></g></g><g id="shape-cf397e4b-3ad5-8026-8002-ec5cb92a319d"><g class="fills" id="fills-cf397e4b-3ad5-8026-8002-ec5cb92a319d"><path rx="0" ry="0" d="M111.428,118.381C111.430,118.377,111.433,118.374,111.428,118.381ZC111.433,118.374,111.430,118.377,111.428,118.381Z" style="fill-rule: nonzero; fill: rgb(254, 231, 179); fill-opacity: 1;"/></g></g><g id="shape-cf397e4b-3ad5-8026-8002-ec5cb92a319e"><g class="fills" id="fills-cf397e4b-3ad5-8026-8002-ec5cb92a319e"><path rx="0" ry="0" d="M111.439,118.369C111.441,118.366,111.443,118.364,111.439,118.369ZC111.443,118.364,111.441,118.366,111.439,118.369Z" style="fill-rule: nonzero; fill: rgb(254, 231, 179); fill-opacity: 1;"/></g></g><g id="shape-cf397e4b-3ad5-8026-8002-ec5cb92a319f"><g class="fills" id="fills-cf397e4b-3ad5-8026-8002-ec5cb92a319f"><path rx="0" ry="0" d="M111.448,118.359C111.450,118.357,111.452,118.354,111.448,118.359ZC111.452,118.354,111.450,118.356,111.448,118.359Z" style="fill-rule: nonzero; fill: rgb(254, 231, 179); fill-opacity: 1;"/></g></g><g id="shape-cf397e4b-3ad5-8026-8002-ec5cb92a31a0"><g class="fills" id="fills-cf397e4b-3ad5-8026-8002-ec5cb92a31a0"><path rx="0" ry="0" d="M111.457,118.349C111.460,118.347,111.461,118.345,111.457,118.349ZC111.462,118.344,111.460,118.347,111.457,118.349Z" style="fill-rule: nonzero; fill: rgb(254, 231, 179); fill-opacity: 1;"/></g></g><g id="shape-cf397e4b-3ad5-8026-8002-ec5cb92a31a1"><g class="fills" id="fills-cf397e4b-3ad5-8026-8002-ec5cb92a31a1"><path rx="0" ry="0" d="M111.467,118.339C111.469,118.338,111.470,118.335,111.467,118.339ZC111.470,118.335,111.469,118.338,111.467,118.339Z" style="fill-rule: nonzero; fill: rgb(254, 231, 179); fill-opacity: 1;"/></g></g><g id="shape-cf397e4b-3ad5-8026-8002-ec5cb92a31a2"><g class="fills" id="fills-cf397e4b-3ad5-8026-8002-ec5cb92a31a2"><path rx="0" ry="0" d="M111.476,118.330C111.479,118.327,111.481,118.324,111.476,118.330ZC111.481,118.324,111.479,118.327,111.476,118.330Z" style="fill-rule: nonzero; fill: rgb(254, 231, 179); fill-opacity: 1;"/></g></g><g id="shape-cf397e4b-3ad5-8026-8002-ec5cb92a31a3"><g class="fills" id="fills-cf397e4b-3ad5-8026-8002-ec5cb92a31a3"><path rx="0" ry="0" d="M156.746,134.374C156.632,133.843,156.487,133.216,156.307,132.526C156.631,132.331,156.964,132.113,157.304,131.870L157.304,131.870C157.426,132.497,157.478,132.871,157.478,132.871L157.478,132.871C157.478,132.871,157.478,132.871,157.478,132.872L157.478,132.872C157.478,132.872,157.478,132.872,157.478,132.873C157.478,132.873,157.478,132.873,157.477,132.874L157.477,132.874L157.477,132.874C157.469,132.901,157.407,133.120,157.253,133.459C157.252,133.461,157.251,133.462,157.250,133.465C157.250,133.465,157.250,133.466,157.249,133.467C157.249,133.468,157.248,133.469,157.247,133.471C157.247,133.472,157.246,133.472,157.246,133.472C157.246,133.474,157.246,133.475,157.245,133.477C157.244,133.477,157.244,133.477,157.244,133.478C157.130,133.724,156.969,134.032,156.746,134.374ZM109.904,123.301C109.635,121.637,110.064,119.853,111.364,118.447C111.364,118.447,111.364,118.447,111.365,118.446C111.368,118.444,111.370,118.441,111.373,118.439L111.373,118.439C111.380,118.431,111.386,118.424,111.394,118.416C111.395,118.414,111.396,118.414,111.397,118.413C111.398,118.411,111.400,118.409,111.401,118.408C111.403,118.406,111.405,118.404,111.406,118.403C111.407,118.402,111.409,118.400,111.410,118.398C111.412,118.397,111.413,118.396,111.415,118.393C111.417,118.392,111.417,118.391,111.419,118.389C111.421,118.387,111.423,118.386,111.424,118.384C111.425,118.382,111.427,118.381,111.428,118.381C111.430,118.377,111.433,118.374,111.436,118.371C111.437,118.370,111.438,118.370,111.439,118.369C111.441,118.366,111.443,118.364,111.445,118.361C111.446,118.360,111.447,118.359,111.448,118.359C111.450,118.356,111.452,118.354,111.455,118.352C111.455,118.351,111.456,118.350,111.457,118.349C111.460,118.347,111.462,118.344,111.464,118.343C111.465,118.342,111.465,118.341,111.467,118.339C111.469,118.338,111.470,118.335,111.473,118.333C111.474,118.332,111.475,118.331,111.476,118.330C111.479,118.327,111.481,118.324,111.485,118.321L111.485,118.321C113.167,116.608,115.952,115.282,120.517,115.127C120.517,115.127,121.983,115.245,124.266,115.432C122.896,116.079,120.832,117.165,119.400,118.416C115.254,118.678,112.673,119.954,111.079,121.576C110.563,122.103,110.175,122.687,109.904,123.301Z" style="fill-rule: nonzero; fill: rgb(231, 215, 189); fill-opacity: 1;"/></g></g><g id="shape-cf397e4b-3ad5-8026-8002-ec5cb92a31a4"><g class="fills" id="fills-cf397e4b-3ad5-8026-8002-ec5cb92a31a4"><path rx="0" ry="0" d="M144.877,140.555C144.745,140.621,144.625,140.598,144.498,140.559L144.123,140.442C143.873,140.357,143.624,140.263,143.377,140.132C143.130,140.005,142.882,139.862,142.639,139.689C142.396,139.509,142.154,139.322,141.924,139.073C141.863,139.009,141.868,138.906,141.932,138.845C142.179,138.614,142.416,138.439,142.650,138.261C142.885,138.091,143.116,137.947,143.346,137.814C143.576,137.676,143.805,137.571,144.034,137.472L144.375,137.330C144.487,137.283,144.606,137.250,144.712,137.304L144.886,137.391C145.755,137.830,146.105,138.893,145.668,139.765C145.490,140.122,145.207,140.391,144.877,140.555Z" style="fill-rule: nonzero; fill: rgb(0, 0, 114); fill-opacity: 1;"/></g></g><g id="shape-cf397e4b-3ad5-8026-8002-ec5cb92a31a5"><g class="fills" id="fills-cf397e4b-3ad5-8026-8002-ec5cb92a31a5"><path rx="0" ry="0" d="M156.806,131.388C156.755,131.420,156.787,131.413,156.806,131.388ZC156.796,131.424,156.814,131.425,156.806,131.388ZC156.857,131.429,156.893,131.434,156.931,131.433C157.006,131.432,157.094,131.431,157.183,131.423C157.367,131.413,157.566,131.390,157.782,131.359C158.210,131.290,158.678,131.186,159.323,131.104C159.404,131.418,159.427,131.721,159.404,132.007C159.388,132.299,159.315,132.567,159.226,132.839C159.133,133.108,159.011,133.369,158.853,133.621C158.772,133.744,158.685,133.869,158.579,133.985C158.529,134.043,158.472,134.102,158.409,134.159C158.377,134.188,158.348,134.217,158.308,134.246C158.263,134.278,158.248,134.297,158.148,134.352L156.806,131.388Z" style="fill-rule: nonzero; fill: rgb(0, 0, 114); fill-opacity: 1;"/></g></g><g id="shape-cf397e4b-3ad5-8026-8002-ec5cb92a31a6"><g class="fills" id="fills-cf397e4b-3ad5-8026-8002-ec5cb92a31a6"><path rx="0" ry="0" d="M133.001,127.282C140.690,127.282,144.659,133.198,146.028,137.331C153.310,137.326,155.364,133.762,155.811,132.712C155.169,128.836,152.746,119.912,148.148,119.313C141.470,118.444,121.999,116.878,120.481,116.756C116.905,116.892,114.268,117.803,112.642,119.463C111.532,120.595,111.167,122.181,111.662,123.707C112.172,125.272,113.438,126.365,115.049,126.630C119.200,127.314,125.395,127.997,131.335,127.371C131.909,127.311,132.464,127.282,133.001,127.282ZZM146.023,140.587C145.601,140.587,145.167,140.577,144.717,140.555C143.990,140.520,143.376,140.004,143.214,139.292C143.123,138.901,140.857,129.649,131.673,130.608C125.377,131.271,118.872,130.559,114.524,129.843C111.737,129.384,109.459,127.419,108.580,124.717C107.701,122.014,108.355,119.196,110.329,117.180C112.572,114.892,115.981,113.653,120.460,113.501C120.522,113.498,120.582,113.500,120.644,113.505C121.495,113.572,141.569,115.175,148.564,116.085C156.587,117.129,158.849,131.049,159.082,132.634C159.113,132.852,159.101,133.074,159.045,133.287C158.963,133.596,156.986,140.586,146.023,140.587Z" style="fill-rule: nonzero; fill: rgb(0, 0, 114); fill-opacity: 1;"/></g></g><g id="shape-cf397e4b-3ad5-8026-8002-ec5cb92a31a7"><g class="fills" id="fills-cf397e4b-3ad5-8026-8002-ec5cb92a31a7"><path rx="0" ry="0" d="M136.679,116.503C136.756,115.631,136.460,114.731,135.792,114.066C135.507,113.782,128.707,107.113,120.526,108.197C115.565,108.854,111.359,112.105,108.022,117.861C103.953,124.881,102.842,131.666,104.719,138.026C107.812,148.504,117.955,153.751,118.385,153.969C118.824,154.192,119.291,154.297,119.751,154.297C120.858,154.297,121.925,153.686,122.461,152.627C123.222,151.128,122.625,149.292,121.134,148.525C121.052,148.482,112.855,144.188,110.536,136.249C109.172,131.577,110.094,126.424,113.278,120.930C115.611,116.904,118.309,114.657,121.296,114.251C123.647,113.930,125.952,114.739,127.774,115.724L136.679,116.503Z" style="fill-rule: nonzero; fill: rgb(255, 39, 101); fill-opacity: 1;"/></g></g><g id="shape-cf397e4b-3ad5-8026-8002-ec5cb92a31a8"><g class="fills" id="fills-cf397e4b-3ad5-8026-8002-ec5cb92a31a8"><path rx="0" ry="0" d="M122.359,109.704C121.825,109.704,121.286,109.738,120.738,109.811C116.300,110.398,112.494,113.382,109.424,118.679C105.588,125.297,104.528,131.651,106.273,137.563C109.170,147.376,118.712,152.311,119.117,152.516C119.317,152.617,119.531,152.669,119.751,152.669C120.288,152.669,120.773,152.370,121.017,151.889C121.370,151.191,121.092,150.332,120.395,149.974C120.306,149.928,111.493,145.311,108.981,136.707C107.485,131.589,108.461,126.006,111.877,120.112C114.474,115.629,117.570,113.115,121.079,112.637C123.322,112.330,125.732,112.834,128.240,114.132L134.013,114.637C132.376,113.210,127.798,109.704,122.359,109.704ZZM119.751,155.925C119.027,155.925,118.302,155.750,117.653,155.421C117.198,155.190,106.453,149.633,103.164,138.488C101.154,131.681,102.318,124.466,106.620,117.042C110.222,110.828,114.829,107.310,120.314,106.583C129.272,105.401,136.626,112.604,136.935,112.911C137.921,113.894,138.417,115.256,138.295,116.647C138.216,117.541,137.430,118.201,136.539,118.125L127.634,117.346C127.413,117.327,127.200,117.262,127.005,117.158C125.004,116.075,123.158,115.638,121.514,115.864C119.048,116.198,116.749,118.179,114.680,121.749C111.729,126.840,110.858,131.565,112.092,135.792C114.195,142.990,121.803,147.040,121.879,147.079C124.157,148.252,125.069,151.073,123.906,153.366C123.107,154.944,121.514,155.925,119.751,155.925Z" style="fill-rule: nonzero; fill: rgb(0, 0, 114); fill-opacity: 1;"/></g></g><g id="shape-cf397e4b-3ad5-8026-8002-ec5cb92a31a9"><g class="fills" id="fills-cf397e4b-3ad5-8026-8002-ec5cb92a31a9"><path rx="0" ry="0" d="M111.752,252.292C104.805,261.951,79.513,259.628,76.238,250.705C75.071,247.519,76.206,245.086,78.151,243.275C81.657,240.008,87.787,238.763,87.787,238.763C90.912,231.247,91.212,223.712,91.212,223.712C90.454,221.067,89.919,218.520,94.553,215.346C99.190,212.169,102.173,220.221,102.173,220.221C103.503,218.284,103.908,216.380,103.872,214.716C103.807,211.578,102.173,209.308,102.173,209.308C102.173,209.308,107.147,210.904,109.762,210.171C109.916,210.130,110.062,210.081,110.196,210.020C112.644,208.950,114.696,210.334,114.696,210.334C121.737,227.602,118.704,242.632,111.752,252.292Z" style="fill-rule: nonzero; fill: rgb(255, 39, 101); fill-opacity: 1;"/></g></g><g id="shape-cf397e4b-3ad5-8026-8002-ec5cb92a31aa"><g class="fills" id="fills-cf397e4b-3ad5-8026-8002-ec5cb92a31aa"><path rx="0" ry="0" d="M111.754,252.292C104.804,261.952,79.512,259.627,76.239,250.705C72.961,241.779,87.789,238.761,87.789,238.761C87.789,238.761,98.628,238.949,104.671,246.217C105.686,247.436,107.562,247.440,108.605,246.250C112.320,242.005,118.242,231.196,109.762,210.172C109.916,210.130,110.061,210.080,110.195,210.022C112.644,208.949,114.695,210.335,114.695,210.335C121.737,227.602,118.704,242.631,111.754,252.292Z" style="fill-rule: nonzero; fill: rgb(255, 255, 255); fill-opacity: 1;"/></g></g><g id="shape-cf397e4b-3ad5-8026-8002-ec5cb92a31ab"><g class="fills" id="fills-cf397e4b-3ad5-8026-8002-ec5cb92a31ab"><path rx="0" ry="0" d="M101.191,239.021C100.916,239.021,100.639,238.931,100.406,238.745C95.760,235.030,89.241,237.404,89.177,237.428C88.525,237.671,87.797,237.339,87.553,236.683C87.309,236.027,87.642,235.298,88.296,235.054C88.616,234.934,96.229,232.166,101.979,236.763C102.524,237.199,102.614,237.996,102.180,238.543C101.930,238.858,101.563,239.021,101.191,239.021Z" style="fill-rule: nonzero; fill: rgb(255, 255, 255); fill-opacity: 1;"/></g></g><g id="shape-cf397e4b-3ad5-8026-8002-ec5cb92a31ac"><g class="fills" id="fills-cf397e4b-3ad5-8026-8002-ec5cb92a31ac"><path rx="0" ry="0" d="M102.841,232.759C102.559,232.759,102.274,232.664,102.040,232.470C96.960,228.275,90.974,231.444,90.913,231.478C90.299,231.810,89.534,231.581,89.203,230.966C88.871,230.350,89.099,229.582,89.713,229.249C90.018,229.083,97.268,225.247,103.643,230.514C104.182,230.958,104.259,231.757,103.816,232.297C103.567,232.602,103.205,232.759,102.841,232.759Z" style="fill-rule: nonzero; fill: rgb(255, 255, 255); fill-opacity: 1;"/></g></g><g id="shape-cf397e4b-3ad5-8026-8002-ec5cb92a31ad"><g class="fills" id="fills-cf397e4b-3ad5-8026-8002-ec5cb92a31ad"><path rx="0" ry="0" d="M104.667,226.139C104.433,226.139,104.195,226.074,103.983,225.935C99.277,222.879,91.682,225.801,91.606,225.830C90.956,226.087,90.224,225.763,89.971,225.111C89.718,224.459,90.038,223.725,90.687,223.470C91.048,223.329,99.574,220.055,105.355,223.809C105.940,224.189,106.107,224.973,105.729,225.561C105.487,225.935,105.081,226.139,104.667,226.139Z" style="fill-rule: nonzero; fill: rgb(255, 255, 255); fill-opacity: 1;"/></g></g><g id="shape-cf397e4b-3ad5-8026-8002-ec5cb92a31ae"><g class="fills" id="fills-cf397e4b-3ad5-8026-8002-ec5cb92a31ae"><path rx="0" ry="0" d="M87.142,257.688C85.204,257.251,83.395,256.651,81.817,255.903C83.395,256.651,85.204,257.251,87.142,257.688Z" style="fill-rule: nonzero; fill: rgb(178, 27, 105); fill-opacity: 1;"/></g></g><g id="shape-cf397e4b-3ad5-8026-8002-ec5cb92a31af"><g class="fills" id="fills-cf397e4b-3ad5-8026-8002-ec5cb92a31af"><path rx="0" ry="0" d="M77.619,252.939C77.001,252.250,76.531,251.504,76.238,250.705C76.154,250.474,76.081,250.247,76.020,250.024C76.081,250.248,76.154,250.474,76.239,250.705C76.531,251.504,77.002,252.250,77.619,252.939Z" style="fill-rule: nonzero; fill: rgb(178, 27, 105); fill-opacity: 1;"/></g></g><g id="shape-cf397e4b-3ad5-8026-8002-ec5cb92a31b0"><g class="fills" id="fills-cf397e4b-3ad5-8026-8002-ec5cb92a31b0"><path rx="0" ry="0" d="M118.703,229.719C118.708,223.746,117.502,217.218,114.695,210.335C114.695,210.335,113.630,209.615,112.116,209.615C111.531,209.615,110.878,209.722,110.195,210.022C110.165,210.035,110.135,210.047,110.105,210.059C110.136,210.046,110.166,210.034,110.196,210.020C110.878,209.722,111.530,209.614,112.116,209.614C113.629,209.614,114.696,210.334,114.696,210.334C117.494,217.197,118.701,223.707,118.703,229.719ZC118.703,229.684,118.703,229.702,118.703,229.719Z" style="fill-rule: nonzero; fill: rgb(178, 27, 105); fill-opacity: 1;"/></g></g><g id="shape-cf397e4b-3ad5-8026-8002-ec5cb92a31b1"><g class="fills" id="fills-cf397e4b-3ad5-8026-8002-ec5cb92a31b1"><path rx="0" ry="0" d="M114.077,228.390C113.136,222.476,109.810,217.105,103.872,214.716L103.872,214.716C103.807,211.578,102.173,209.308,102.173,209.308C102.173,209.308,105.463,210.363,108.098,210.363C108.704,210.363,109.273,210.307,109.762,210.171C109.825,210.154,109.886,210.137,109.946,210.116C109.886,210.137,109.825,210.155,109.762,210.172C112.680,217.404,113.892,223.427,114.077,228.390Z" style="fill-rule: nonzero; fill: rgb(178, 27, 105); fill-opacity: 1;"/></g></g><g id="shape-cf397e4b-3ad5-8026-8002-ec5cb92a31b2"><g class="fills" id="fills-cf397e4b-3ad5-8026-8002-ec5cb92a31b2"><path rx="0" ry="0" d="M94.991,258.543C92.310,258.543,89.621,258.248,87.142,257.688L87.142,257.688C85.204,257.251,83.395,256.651,81.817,255.903L81.817,255.903L81.817,255.903L81.817,255.903C81.816,255.902,81.816,255.902,81.816,255.902L81.816,255.902C80.095,255.085,78.651,254.091,77.619,252.939L77.619,252.939C77.002,252.250,76.531,251.504,76.239,250.705C76.154,250.474,76.081,250.248,76.020,250.024L76.020,250.024C75.239,247.170,76.346,244.955,78.151,243.275C81.233,246.666,87.219,251.692,95.622,251.692C97.665,251.692,99.851,251.395,102.173,250.705C111.281,248.000,115.535,237.545,114.077,228.390C113.892,223.427,112.680,217.404,109.762,210.172C109.825,210.155,109.886,210.137,109.946,210.116C110.000,210.099,110.054,210.080,110.105,210.059C110.135,210.047,110.165,210.035,110.195,210.022C110.878,209.722,111.531,209.615,112.116,209.615C113.630,209.615,114.695,210.335,114.695,210.335C117.502,217.218,118.708,223.746,118.703,229.719L118.703,229.719C118.696,238.732,115.933,246.482,111.752,252.292C108.639,256.620,101.839,258.543,94.991,258.543Z" style="fill-rule: nonzero; fill: rgb(178, 178, 212); fill-opacity: 1;"/></g></g><g id="shape-cf397e4b-3ad5-8026-8002-ec5cb92a31b3"><g class="fills" id="fills-cf397e4b-3ad5-8026-8002-ec5cb92a31b3"><path rx="0" ry="0" d="M96.707,216.063C96.365,216.063,95.927,216.173,95.374,216.551C91.444,219.245,91.958,221.036,92.610,223.305C92.653,223.455,92.671,223.610,92.665,223.767C92.653,224.086,92.322,231.655,89.130,239.324C88.944,239.771,88.550,240.097,88.077,240.193C85.865,240.646,79.706,242.576,77.805,246.003C77.100,247.275,77.034,248.647,77.603,250.199C78.737,253.286,83.674,255.859,90.183,256.754C97.443,257.754,106.919,256.514,110.574,251.436C118.321,240.669,119.395,226.093,113.544,211.374C113.024,211.149,111.965,210.840,110.776,211.361C109.162,212.068,106.753,211.853,104.801,211.478C105.560,213.867,105.877,217.394,103.372,221.048C103.065,221.497,102.533,221.736,101.994,221.670C101.456,221.604,100.999,221.240,100.809,220.730C100.430,219.718,98.956,216.697,97.221,216.147C97.082,216.103,96.912,216.063,96.707,216.063ZZM94.953,260.000C93.193,260.000,91.450,259.878,89.788,259.649C81.994,258.578,76.418,255.422,74.871,251.209C74.002,248.841,74.135,246.609,75.264,244.575C77.740,240.121,84.425,238.091,86.722,237.510C89.172,231.272,89.667,225.105,89.744,223.873C88.909,220.860,88.637,217.629,93.732,214.138C95.518,212.914,97.095,213.040,98.105,213.363C99.880,213.929,101.229,215.491,102.141,216.931C103.158,213.299,101.097,210.308,100.990,210.156C100.628,209.644,100.631,208.954,101.000,208.446C101.370,207.939,102.019,207.722,102.616,207.915C104.715,208.586,108.272,209.269,109.613,208.683C112.760,207.304,115.398,209.048,115.509,209.123C115.748,209.285,115.933,209.514,116.043,209.781C119.446,218.129,120.751,226.384,119.920,234.318C119.188,241.302,116.772,247.813,112.934,253.147C109.424,258.026,102.049,260.000,94.953,260.000Z" style="fill-rule: nonzero; fill: rgb(0, 0, 114); fill-opacity: 1;"/></g></g><g id="shape-cf397e4b-3ad5-8026-8002-ec5cb92a31b4"><g class="fills" id="fills-cf397e4b-3ad5-8026-8002-ec5cb92a31b4"><path rx="0" ry="0" d="M91.959,224.963L90.461,222.457C90.703,222.311,96.427,218.902,102.137,218.759L102.210,221.680C97.278,221.804,92.011,224.931,91.959,224.963Z" style="fill-rule: nonzero; fill: rgb(0, 0, 114); fill-opacity: 1;"/></g></g><g id="shape-cf397e4b-3ad5-8026-8002-ec5cb92a31b5"><g class="fills" id="fills-cf397e4b-3ad5-8026-8002-ec5cb92a31b5"><path rx="0" ry="0" d="M106.647,248.155C106.631,248.155,106.615,248.154,106.647,248.155ZC105.549,248.140,104.562,247.672,103.894,246.868C98.226,240.054,87.872,239.780,87.769,239.778L87.804,237.744C88.266,237.752,99.180,238.025,105.449,245.564C105.743,245.917,106.160,246.114,106.625,246.119L106.646,246.119C107.107,246.119,107.543,245.923,107.846,245.578C111.722,241.151,116.997,230.697,108.766,210.405L110.643,209.638C119.286,230.944,113.554,242.142,109.368,246.921C108.679,247.706,107.690,248.155,106.647,248.155Z" style="fill-rule: nonzero; fill: rgb(0, 0, 114); fill-opacity: 1;"/></g></g><g id="shape-cf397e4b-3ad5-8026-8002-ec5cb92a31b6"><g class="fills" id="fills-cf397e4b-3ad5-8026-8002-ec5cb92a31b6"><path rx="0" ry="0" d="M81.382,182.633C73.044,186.230,66.594,174.003,66.594,174.003C66.659,180.081,68.353,194.665,68.353,194.665C54.412,200.617,50.197,186.885,50.197,186.885C50.197,186.885,50.185,184.858,50.319,181.771C50.813,170.495,53.257,145.049,65.358,152.096C77.085,158.932,83.551,167.383,84.958,173.775C85.877,177.929,84.666,181.217,81.382,182.633Z" style="fill-rule: nonzero; fill: rgb(252, 175, 3); fill-opacity: 1;"/></g></g><g id="shape-cf397e4b-3ad5-8026-8002-ec5cb92a31b7"><g class="fills" id="fills-cf397e4b-3ad5-8026-8002-ec5cb92a31b7"><path rx="0" ry="0" d="M61.800,194.531C61.375,194.531,60.957,194.505,60.550,194.455C60.203,192.361,58.896,187.520,54.208,187.520C54.089,187.520,53.968,187.523,53.845,187.529C53.845,187.088,53.852,185.813,53.913,183.992C54.392,184.096,54.876,184.146,55.356,184.146C58.615,184.146,61.704,181.826,62.257,178.210C63.061,172.957,64.811,166.605,68.613,164.937L68.879,168.838C69.018,170.880,70.022,172.775,71.660,173.996C73.393,175.288,75.848,176.630,78.571,176.630C80.166,176.630,81.850,176.170,83.536,174.970C83.629,175.619,83.658,176.231,83.623,176.804C83.498,178.910,82.528,180.368,80.743,181.138C79.913,181.496,79.099,181.653,78.309,181.653C72.577,181.653,68.098,173.371,68.027,173.240C67.741,172.697,67.183,172.375,66.594,172.375C66.462,172.375,66.328,172.391,66.195,172.425C65.470,172.609,64.965,173.268,64.973,174.019C65.028,179.137,66.188,189.923,66.601,193.608C64.894,194.223,63.291,194.531,61.800,194.531Z" style="fill-rule: nonzero; fill: rgb(176, 122, 37); fill-opacity: 1;"/></g></g><g id="shape-cf397e4b-3ad5-8026-8002-ec5cb92a31b8"><g class="fills" id="fills-cf397e4b-3ad5-8026-8002-ec5cb92a31b8"><path rx="0" ry="0" d="M53.913,183.992C53.218,183.842,52.531,183.579,51.876,183.194C52.188,173.487,53.906,156.329,59.599,153.017C60.176,152.682,60.792,152.514,61.457,152.514C61.696,152.514,61.941,152.535,62.192,152.579C55.901,156.648,54.349,173.859,53.967,182.584C53.946,183.082,53.928,183.553,53.913,183.992Z" style="fill-rule: nonzero; fill: rgb(254, 231, 179); fill-opacity: 1;"/></g></g><g id="shape-cf397e4b-3ad5-8026-8002-ec5cb92a31b9"><g class="fills" id="fills-cf397e4b-3ad5-8026-8002-ec5cb92a31b9"><path rx="0" ry="0" d="M52.306,187.757C52.062,187.244,51.902,186.837,51.819,186.608C51.818,185.634,51.834,184.479,51.876,183.194C52.531,183.579,53.218,183.842,53.913,183.992C53.852,185.813,53.845,187.088,53.845,187.529C53.366,187.554,52.853,187.627,52.306,187.757Z" style="fill-rule: nonzero; fill: rgb(231, 215, 189); fill-opacity: 1;"/></g></g><g id="shape-cf397e4b-3ad5-8026-8002-ec5cb92a31ba"><g class="fills" id="fills-cf397e4b-3ad5-8026-8002-ec5cb92a31ba"><path rx="0" ry="0" d="M64.974,174.058C64.991,173.429,65.079,172.864,65.188,172.272C65.301,171.690,65.446,171.108,65.632,170.533C65.815,169.960,66.029,169.388,66.329,168.843C66.629,168.305,66.985,167.759,67.506,167.397C67.482,168.017,67.542,168.567,67.600,169.121C67.662,169.670,67.718,170.210,67.792,170.752L68.019,172.368C68.091,172.897,68.168,173.454,68.215,173.946L64.974,174.058Z" style="fill-rule: nonzero; fill: rgb(0, 0, 114); fill-opacity: 1;"/></g></g><g id="shape-cf397e4b-3ad5-8026-8002-ec5cb92a31bb"><g class="fills" id="fills-cf397e4b-3ad5-8026-8002-ec5cb92a31bb"><path rx="0" ry="0" d="M51.819,186.608C52.178,187.592,53.933,191.876,57.852,193.691C60.329,194.838,63.269,194.808,66.601,193.608C66.188,189.923,65.028,179.137,64.973,174.019C64.965,173.268,65.470,172.609,66.195,172.425C66.919,172.240,67.677,172.576,68.027,173.240C68.107,173.389,73.896,184.092,80.743,181.138C82.528,180.368,83.498,178.910,83.623,176.804C83.963,171.133,78.137,161.423,64.543,153.503C62.599,152.371,60.982,152.212,59.599,153.017C53.152,156.768,51.803,178.274,51.819,186.608ZM61.795,197.792C59.901,197.792,58.121,197.406,56.463,196.633C50.730,193.958,48.731,187.630,48.649,187.363C48.602,187.211,48.579,187.053,48.578,186.893C48.559,183.708,48.664,155.617,57.973,150.201C59.653,149.222,62.439,148.514,66.171,150.688C81.033,159.347,87.271,170.142,86.861,176.999C86.661,180.337,84.942,182.869,82.023,184.129C76.292,186.602,71.500,182.983,68.504,179.546C68.999,186.129,69.951,194.368,69.964,194.477C70.047,195.194,69.650,195.880,68.988,196.163C66.444,197.248,64.040,197.792,61.795,197.792Z" style="fill-rule: nonzero; fill: rgb(0, 0, 114); fill-opacity: 1;"/></g></g><g id="shape-cf397e4b-3ad5-8026-8002-ec5cb92a31bc"><g class="fills" id="fills-cf397e4b-3ad5-8026-8002-ec5cb92a31bc"><path rx="0" ry="0" d="M68.592,218.809L68.592,218.809ZC68.139,220.091,67.611,221.246,67.016,222.251L67.016,222.256C64.697,226.141,61.320,227.736,57.149,224.822C46.151,217.141,15.534,202.644,15.976,190.054L15.980,190.050C15.984,189.940,15.988,189.826,16.000,189.716C16.016,189.440,16.053,189.167,16.105,188.895C16.194,188.435,16.300,187.988,16.422,187.560C19.713,176.062,34.772,176.334,41.182,182.385L41.186,182.389C47.830,188.667,52.066,187.817,52.066,187.817C60.080,185.722,60.668,195.401,60.668,195.401C63.675,195.149,65.642,194.502,66.801,193.973C67.754,193.537,68.159,193.179,68.159,193.179C71.268,200.792,71.134,211.627,68.592,218.809Z" style="fill-rule: nonzero; fill: rgb(255, 39, 101); fill-opacity: 1;"/></g></g><g id="shape-cf397e4b-3ad5-8026-8002-ec5cb92a31bd"><g class="fills" id="fills-cf397e4b-3ad5-8026-8002-ec5cb92a31bd"><path rx="0" ry="0" d="M68.592,218.808L68.592,218.808ZL67.011,222.246C67.011,222.246,46.378,196.511,34.562,189.362C22.936,182.327,16.190,189.809,15.980,190.050C15.992,189.659,16.032,189.276,16.105,188.894C18.578,176.049,34.533,176.110,41.182,182.384L41.186,182.388C42.458,185.810,42.564,187.803,42.467,188.809C42.409,189.386,42.609,189.961,43.026,190.367C58.244,205.198,68.592,218.808,68.592,218.808Z" style="fill-rule: nonzero; fill: rgb(255, 255, 255); fill-opacity: 1;"/></g></g><g id="shape-cf397e4b-3ad5-8026-8002-ec5cb92a31be"><g class="fills" id="fills-cf397e4b-3ad5-8026-8002-ec5cb92a31be"><path rx="0" ry="0" d="M53.338,197.166C53.315,197.166,53.293,197.165,53.338,197.166ZC52.376,197.128,51.680,196.370,51.717,195.472C51.792,193.587,49.899,190.575,48.688,189.118C48.114,188.428,48.205,187.402,48.892,186.825C49.578,186.249,50.599,186.340,51.175,187.028C51.578,187.510,55.108,191.852,54.957,195.604C54.922,196.479,54.203,197.166,53.338,197.166Z" style="fill-rule: nonzero; fill: rgb(255, 255, 255); fill-opacity: 1;"/></g></g><g id="shape-cf397e4b-3ad5-8026-8002-ec5cb92a31bf"><g class="fills" id="fills-cf397e4b-3ad5-8026-8002-ec5cb92a31bf"><path rx="0" ry="0" d="M44.998,189.673C44.337,189.673,43.795,189.144,43.782,188.478C43.764,187.617,42.854,185.827,42.212,184.831C41.848,184.266,42.010,183.510,42.573,183.143C43.137,182.778,43.889,182.939,44.254,183.505C44.574,184.001,46.176,186.573,46.214,188.428C46.228,189.102,45.694,189.660,44.998,189.673ZC45.014,189.673,45.005,189.673,44.998,189.673Z" style="fill-rule: nonzero; fill: rgb(255, 255, 255); fill-opacity: 1;"/></g></g><g id="shape-cf397e4b-3ad5-8026-8002-ec5cb92a31c0"><g class="fills" id="fills-cf397e4b-3ad5-8026-8002-ec5cb92a31c0"><path rx="0" ry="0" d="M48.516,193.710L48.516,193.710ZC47.600,193.699,46.883,192.961,46.894,192.063C46.921,189.818,45.547,187.414,45.534,187.390C45.085,186.613,45.346,185.618,46.118,185.166C46.891,184.713,47.881,184.973,48.333,185.748C48.408,185.876,50.174,188.939,50.137,192.102C50.126,192.994,49.403,193.710,48.516,193.710Z" style="fill-rule: nonzero; fill: rgb(255, 255, 255); fill-opacity: 1;"/></g></g><g id="shape-cf397e4b-3ad5-8026-8002-ec5cb92a31c1"><g class="fills" id="fills-cf397e4b-3ad5-8026-8002-ec5cb92a31c1"><path rx="0" ry="0" d="M61.268,226.320C60.002,226.320,58.626,225.854,57.149,224.822C46.232,217.197,15.981,202.856,15.971,190.331C15.971,190.239,15.972,190.146,15.976,190.054L15.980,190.050L15.980,190.050C16.043,189.978,16.682,189.268,17.854,188.488C24.655,192.837,38.185,200.697,49.506,202.374C58.639,211.804,67.011,222.246,67.011,222.246L68.588,218.821L68.592,218.808C68.592,218.808,63.375,211.946,54.899,202.655C60.285,202.326,64.671,199.888,66.801,193.973C67.754,193.537,68.159,193.179,68.159,193.179C69.756,197.090,70.497,201.851,70.497,206.530C70.495,210.959,69.829,215.317,68.592,218.809L68.588,218.822C68.139,220.091,67.611,221.246,67.016,222.251L67.016,222.256C65.518,224.766,63.577,226.320,61.268,226.320ZM16.024,189.436C16.041,189.271,16.066,189.108,16.096,188.945C16.066,189.108,16.042,189.272,16.024,189.436ZM16.247,188.233C16.301,188.004,16.359,187.780,16.422,187.560C16.422,187.561,16.422,187.560,16.422,187.561C16.359,187.781,16.301,188.005,16.247,188.233Z" style="fill-rule: nonzero; fill: rgb(178, 27, 105); fill-opacity: 1;"/></g></g><g id="shape-cf397e4b-3ad5-8026-8002-ec5cb92a31c2"><g class="fills" id="fills-cf397e4b-3ad5-8026-8002-ec5cb92a31c2"><path rx="0" ry="0" d="M67.011,222.246C67.011,222.246,58.639,211.804,49.506,202.374C50.905,202.581,52.272,202.694,53.586,202.694C54.030,202.694,54.467,202.682,54.899,202.655C63.375,211.946,68.592,218.808,68.592,218.808L68.588,218.821L67.011,222.246ZM15.980,190.050C15.984,189.940,15.988,189.826,16.000,189.716C16.005,189.623,16.013,189.529,16.024,189.436C16.042,189.272,16.066,189.108,16.096,188.945C16.099,188.928,16.102,188.912,16.105,188.895C16.149,188.671,16.196,188.450,16.247,188.233C16.301,188.005,16.359,187.781,16.422,187.561C16.858,187.847,17.337,188.158,17.854,188.488C16.682,189.268,16.043,189.978,15.980,190.050Z" style="fill-rule: nonzero; fill: rgb(178, 178, 212); fill-opacity: 1;"/></g></g><g id="shape-cf397e4b-3ad5-8026-8002-ec5cb92a31c3"><g class="fills" id="fills-cf397e4b-3ad5-8026-8002-ec5cb92a31c3"><path rx="0" ry="0" d="M67.016,222.251L67.016,222.251ZC64.697,226.141,61.320,227.735,57.149,224.822C46.151,217.140,15.534,202.643,15.976,190.053L15.980,190.050C15.984,189.940,15.987,189.826,16.000,189.716C16.584,189.126,17.151,188.992,17.151,188.992C33.706,175.581,67.011,222.246,67.016,222.251ZL67.016,222.251Z" style="fill-rule: nonzero; fill: rgb(0, 0, 114); fill-opacity: 1;"/></g></g><g id="shape-cf397e4b-3ad5-8026-8002-ec5cb92a31c4"><g class="fills" id="fills-cf397e4b-3ad5-8026-8002-ec5cb92a31c4"><path rx="0" ry="0" d="M29.782,179.727C28.182,179.727,26.598,179.952,25.135,180.427C22.256,181.360,18.600,183.634,17.533,189.172C15.798,198.178,35.142,209.729,47.942,217.371C51.963,219.773,55.436,221.847,57.979,223.623C60.193,225.169,62.095,225.258,63.791,223.892C68.905,219.774,70.617,205.127,67.389,195.308C66.077,195.907,63.954,196.592,60.786,196.857C60.398,196.889,60.009,196.762,59.713,196.505C59.417,196.248,59.236,195.882,59.213,195.489C59.210,195.452,58.920,191.393,56.595,189.708C55.527,188.934,54.166,188.776,52.433,189.229C52.406,189.236,52.379,189.243,52.352,189.248C51.843,189.351,47.179,190.056,40.189,183.451C37.670,181.072,33.682,179.727,29.782,179.727ZZM61.279,227.777C59.671,227.777,57.991,227.191,56.316,226.022C53.858,224.305,50.427,222.256,46.453,219.883C31.349,210.864,12.552,199.639,14.675,188.617C15.718,183.203,19.115,179.307,24.241,177.646C30.304,175.680,37.849,177.228,42.184,181.324C47.781,186.612,51.412,186.416,51.781,186.380C54.340,185.731,56.538,186.055,58.313,187.348C60.642,189.045,61.556,191.997,61.907,193.793C65.705,193.261,67.204,192.073,67.221,192.059C67.575,191.749,68.047,191.639,68.502,191.748C68.959,191.856,69.327,192.187,69.505,192.623C74.049,203.745,72.049,220.989,65.613,226.171C64.283,227.241,62.814,227.777,61.279,227.777Z" style="fill-rule: nonzero; fill: rgb(0, 0, 114); fill-opacity: 1;"/></g></g><g id="shape-cf397e4b-3ad5-8026-8002-ec5cb92a31c5"><g class="fills" id="fills-cf397e4b-3ad5-8026-8002-ec5cb92a31c5"><path rx="0" ry="0" d="M67.013,223.262C66.708,223.262,66.417,223.125,66.224,222.883C66.018,222.627,45.564,197.209,34.040,190.233C23.084,183.603,16.802,190.646,16.740,190.718L15.209,189.385C15.282,189.300,22.684,180.985,35.086,188.492C45.543,194.820,62.410,215.004,66.773,220.338L67.413,218.944C65.431,216.398,55.717,204.151,42.320,191.098C41.685,190.478,41.370,189.608,41.457,188.710C41.534,187.914,41.479,186.081,40.237,182.744L42.136,182.032C43.451,185.566,43.590,187.722,43.475,188.907C43.447,189.186,43.541,189.452,43.732,189.638C58.831,204.349,69.293,218.055,69.397,218.192C69.624,218.491,69.668,218.893,69.511,219.235L67.934,222.671C67.787,222.991,67.486,223.212,67.138,223.255C67.096,223.260,67.054,223.262,67.013,223.262Z" style="fill-rule: nonzero; fill: rgb(0, 0, 114); fill-opacity: 1;"/></g></g><g id="shape-cf397e4b-3ad5-8026-8002-ec5cb92a31c6"><g class="fills" id="fills-cf397e4b-3ad5-8026-8002-ec5cb92a31c6"><path rx="0" ry="0" d="M59.180,196.556C57.581,196.556,56.156,196.099,54.927,195.190C51.697,192.801,51.085,188.138,51.060,187.941L53.072,187.689L52.067,187.815L53.071,187.688C53.077,187.727,53.610,191.694,56.137,193.558C57.310,194.422,58.774,194.705,60.488,194.400L60.844,196.402C60.271,196.504,59.715,196.556,59.180,196.556Z" style="fill-rule: nonzero; fill: rgb(0, 0, 114); fill-opacity: 1;"/></g></g></g></svg>