<svg xmlns:xlink="http://www.w3.org/1999/xlink" width="279" xmlns="http://www.w3.org/2000/svg" height="195" id="screenshot-cf397e4b-3ad5-8026-8002-ec5c5f23a681" viewBox="0 0 279 195" style="-webkit-print-color-adjust: exact;" fill="none" version="1.1"><g id="shape-cf397e4b-3ad5-8026-8002-ec5c5f23a681" rx="0" ry="0" style="fill: rgb(0, 0, 0);"><g id="shape-cf397e4b-3ad5-8026-8002-ec5c5f23a682"><g class="fills" id="fills-cf397e4b-3ad5-8026-8002-ec5c5f23a682"><path rx="0" ry="0" d="M117.987,187.593C118.017,189.746,116.497,191.629,114.379,192.023C106.269,193.530,98.204,193.495,90.188,191.873C89.345,191.704,87.622,190.228,87.047,188.048C86.727,186.840,86.892,185.676,87.268,184.649C88.013,182.604,89.601,181.099,89.890,180.824C92.076,178.749,94.672,178.309,95.782,178.189L95.782,161.132L117.648,161.132L117.987,187.593Z" style="fill-rule: nonzero; fill: rgb(252, 28, 49); fill-opacity: 1;"/></g></g><g id="shape-cf397e4b-3ad5-8026-8002-ec5c5f23a683"><g class="fills" id="fills-cf397e4b-3ad5-8026-8002-ec5c5f23a683"><path rx="0" ry="0" d="M90.559,190.029L90.559,190.029ZL90.559,190.029ZM90.622,190.042C98.299,191.589,106.176,191.632,114.036,190.173C115.252,189.947,116.123,188.871,116.107,187.615L115.792,163.015L97.663,163.015L97.663,178.190C97.663,179.153,96.938,179.961,95.980,180.061C94.669,180.201,92.772,180.682,91.185,182.191C90.684,182.665,88.226,185.151,88.864,187.569C89.222,188.921,90.239,189.863,90.622,190.042ZM102.600,195.000C98.303,195.000,94.031,194.573,89.813,193.719C88.179,193.388,85.961,191.310,85.228,188.530C84.076,184.171,87.514,180.485,88.595,179.459C90.316,177.825,92.249,177.007,93.901,176.608L93.901,161.133C93.901,160.093,94.744,159.250,95.782,159.250L117.649,159.250C118.678,159.250,119.516,160.079,119.529,161.109L119.868,187.567C119.908,190.660,117.744,193.313,114.722,193.873C110.678,194.624,106.629,195.000,102.600,195.000Z" style="fill-rule: nonzero; fill: rgb(9, 6, 102); fill-opacity: 1;"/></g></g><g id="shape-cf397e4b-3ad5-8026-8002-ec5c5f23a684"><g class="fills" id="fills-cf397e4b-3ad5-8026-8002-ec5c5f23a684"><path rx="0" ry="0" d="M95.782,176.308L103.807,177.312C104.831,177.443,104.822,178.941,103.807,179.069L95.782,180.072C92.964,180.267,92.961,176.115,95.782,176.308Z" style="fill-rule: nonzero; fill: rgb(9, 6, 102); fill-opacity: 1;"/></g></g><g id="shape-cf397e4b-3ad5-8026-8002-ec5c5f23a685"><g class="fills" id="fills-cf397e4b-3ad5-8026-8002-ec5c5f23a685"><path rx="0" ry="0" d="M102.599,191.235C98.574,191.235,94.571,190.837,90.622,190.042C90.239,189.863,89.222,188.921,88.864,187.569C88.744,187.113,88.734,186.655,88.799,186.209C89.982,187.228,91.350,188.042,92.802,188.583C94.644,189.268,96.587,189.568,98.547,189.568C101.131,189.568,103.745,189.047,106.193,188.199C107.661,187.690,109.195,186.971,109.906,185.594C110.557,184.333,110.366,182.823,110.155,181.423C109.749,178.704,109.342,175.986,108.936,173.272C108.605,171.051,108.158,168.619,106.412,167.208C105.463,166.441,104.254,166.110,103.026,166.110C102.224,166.110,101.415,166.251,100.660,166.504C99.589,166.864,98.604,167.414,97.663,168.045L97.663,163.015L115.792,163.015L116.107,187.615C116.123,188.871,115.252,189.947,114.036,190.173C110.220,190.881,106.399,191.235,102.599,191.235Z" style="fill-rule: nonzero; fill: rgb(203, 24, 60); fill-opacity: 1;"/></g></g><g id="shape-cf397e4b-3ad5-8026-8002-ec5c5f23a686"><g class="fills" id="fills-cf397e4b-3ad5-8026-8002-ec5c5f23a686"><path rx="0" ry="0" d="M102.605,193.123C98.453,193.123,94.314,192.708,90.188,191.873C89.345,191.704,87.622,190.228,87.047,188.048C86.727,186.840,86.892,185.676,87.268,184.649C87.731,185.209,88.245,185.731,88.799,186.209C88.734,186.655,88.744,187.113,88.864,187.569C89.222,188.921,90.239,189.863,90.622,190.042C94.571,190.837,98.574,191.235,102.599,191.235C106.399,191.235,110.220,190.881,114.036,190.173C115.252,189.947,116.123,188.871,116.107,187.615L115.792,163.015L117.672,163.015L117.987,187.593C118.017,189.746,116.497,191.629,114.379,192.023C110.444,192.754,106.518,193.123,102.605,193.123ZM90.559,190.029L90.559,190.029ZL90.559,190.029ZM95.782,169.422L95.782,163.015L97.663,163.015L97.663,168.045C97.019,168.477,96.397,168.949,95.782,169.422Z" style="fill-rule: nonzero; fill: rgb(9, 6, 102); fill-opacity: 1;"/></g></g><g id="shape-cf397e4b-3ad5-8026-8002-ec5c5f23a687"><g class="fills" id="fills-cf397e4b-3ad5-8026-8002-ec5c5f23a687"><path rx="0" ry="0" d="M162.665,187.593C162.635,189.746,164.154,191.629,166.273,192.023C174.383,193.530,182.448,193.495,190.464,191.873C191.307,191.704,193.029,190.228,193.605,188.048C193.925,186.840,193.760,185.676,193.383,184.649C192.639,182.604,191.051,181.099,190.761,180.824C188.576,178.749,185.980,178.309,184.870,178.189L184.870,161.132L163.003,161.132L162.665,187.593Z" style="fill-rule: nonzero; fill: rgb(252, 28, 49); fill-opacity: 1;"/></g></g><g id="shape-cf397e4b-3ad5-8026-8002-ec5c5f23a688"><g class="fills" id="fills-cf397e4b-3ad5-8026-8002-ec5c5f23a688"><path rx="0" ry="0" d="M164.860,163.015L164.545,187.615C164.529,188.871,165.400,189.947,166.615,190.173C174.475,191.631,182.353,191.588,190.030,190.042C190.412,189.863,191.430,188.921,191.788,187.569C192.425,185.152,189.967,182.665,189.468,182.191C187.880,180.683,185.983,180.201,184.672,180.061C183.714,179.961,182.988,179.153,182.988,178.190L182.988,163.015L164.860,163.015ZM178.052,195.000C174.023,195.000,169.974,194.625,165.929,193.873C162.908,193.313,160.744,190.660,160.784,187.567L161.122,161.109C161.135,160.079,161.974,159.250,163.003,159.250L184.869,159.250C185.908,159.250,186.750,160.093,186.750,161.133L186.750,176.608C188.403,177.008,190.336,177.825,192.058,179.460C193.138,180.486,196.575,184.172,195.424,188.530C194.690,191.310,192.473,193.388,190.839,193.719C186.622,194.572,182.348,195.000,178.052,195.000Z" style="fill-rule: nonzero; fill: rgb(9, 6, 102); fill-opacity: 1;"/></g></g><g id="shape-cf397e4b-3ad5-8026-8002-ec5c5f23a689"><g class="fills" id="fills-cf397e4b-3ad5-8026-8002-ec5c5f23a689"><path rx="0" ry="0" d="M184.869,180.072L176.844,179.069C175.821,178.937,175.829,177.439,176.844,177.312L184.869,176.308C187.688,176.114,187.691,180.265,184.869,180.072Z" style="fill-rule: nonzero; fill: rgb(9, 6, 102); fill-opacity: 1;"/></g></g><g id="shape-cf397e4b-3ad5-8026-8002-ec5c5f23a68a"><g class="fills" id="fills-cf397e4b-3ad5-8026-8002-ec5c5f23a68a"><path rx="0" ry="0" d="M178.051,191.235C174.253,191.235,170.431,190.881,166.615,190.173C165.400,189.947,164.529,188.871,164.545,187.615L164.860,163.015L182.988,163.015L182.988,168.045C182.048,167.414,181.062,166.864,179.991,166.504C179.237,166.251,178.427,166.110,177.626,166.110C176.397,166.110,175.189,166.441,174.239,167.208C172.494,168.619,172.047,171.051,171.716,173.272C171.309,175.986,170.903,178.704,170.496,181.423C170.286,182.823,170.094,184.333,170.745,185.594C171.456,186.971,172.991,187.690,174.458,188.199C176.907,189.047,179.521,189.568,182.105,189.568C184.064,189.568,186.008,189.268,187.850,188.583C189.302,188.042,190.669,187.228,191.852,186.209C191.918,186.655,191.908,187.113,191.788,187.569C191.430,188.921,190.412,189.863,190.030,190.042C186.080,190.837,182.078,191.235,178.051,191.235Z" style="fill-rule: nonzero; fill: rgb(203, 24, 60); fill-opacity: 1;"/></g></g><g id="shape-cf397e4b-3ad5-8026-8002-ec5c5f23a68b"><g class="fills" id="fills-cf397e4b-3ad5-8026-8002-ec5c5f23a68b"><path rx="0" ry="0" d="M178.047,193.123C174.133,193.123,170.208,192.754,166.273,192.023C164.154,191.629,162.635,189.746,162.665,187.593L162.979,163.015L164.860,163.015L164.545,187.615C164.529,188.871,165.400,189.947,166.615,190.173C170.431,190.881,174.253,191.235,178.051,191.235C182.078,191.235,186.080,190.837,190.030,190.042C190.412,189.863,191.430,188.921,191.788,187.569C191.908,187.113,191.918,186.655,191.852,186.209C192.407,185.731,192.920,185.209,193.383,184.649C193.760,185.676,193.925,186.840,193.605,188.048C193.029,190.228,191.307,191.704,190.464,191.873C186.337,192.708,182.198,193.123,178.047,193.123ZM184.870,169.422C184.255,168.948,183.633,168.477,182.988,168.045L182.988,163.015L184.870,163.015L184.870,169.422Z" style="fill-rule: nonzero; fill: rgb(9, 6, 102); fill-opacity: 1;"/></g></g><g id="shape-cf397e4b-3ad5-8026-8002-ec5c5f23a68c"><g class="fills" id="fills-cf397e4b-3ad5-8026-8002-ec5c5f23a68c"><path rx="0" ry="0" d="M161.542,32.439C161.542,25.474,152.099,19.827,140.449,19.827C128.800,19.827,119.356,25.474,119.356,32.439C119.356,39.404,128.800,45.050,140.449,45.050C152.099,45.050,161.542,39.404,161.542,32.439Z" style="fill-rule: nonzero; fill: rgb(107, 104, 150); fill-opacity: 1;"/></g></g><g id="shape-cf397e4b-3ad5-8026-8002-ec5c5f23a68d"><g class="fills" id="fills-cf397e4b-3ad5-8026-8002-ec5c5f23a68d"><path rx="0" ry="0" d="M159.534,31.231L159.534,31.231ZC156.044,27.008,148.818,24.094,140.449,24.094C132.081,24.094,124.854,27.008,121.447,31.231L121.364,31.231C122.477,25.958,130.764,21.710,140.449,21.710C150.134,21.710,158.422,25.958,159.534,31.231Z" style="fill-rule: nonzero; fill: rgb(196, 195, 213); fill-opacity: 1;"/></g></g><g id="shape-cf397e4b-3ad5-8026-8002-ec5c5f23a68e"><g class="fills" id="fills-cf397e4b-3ad5-8026-8002-ec5c5f23a68e"><path rx="0" ry="0" d="M140.449,21.710C130.035,21.710,121.237,26.623,121.237,32.439C121.237,38.255,130.035,43.168,140.449,43.168C150.864,43.168,159.661,38.255,159.661,32.439C159.661,26.623,150.864,21.710,140.449,21.710ZM140.449,46.932C127.566,46.932,117.475,40.566,117.475,32.439C117.475,24.311,127.566,17.945,140.449,17.945C153.332,17.945,163.423,24.311,163.423,32.439C163.423,40.566,153.332,46.932,140.449,46.932Z" style="fill-rule: nonzero; fill: rgb(9, 6, 102); fill-opacity: 1;"/></g></g><g id="shape-cf397e4b-3ad5-8026-8002-ec5c5f23a68f"><g class="fills" id="fills-cf397e4b-3ad5-8026-8002-ec5c5f23a68f"><path rx="0" ry="0" d="M150.377,23.193C150.111,23.193,149.841,23.137,149.584,23.017C148.643,22.579,148.234,21.459,148.673,20.516L157.713,1.089C158.152,0.145,159.271,-0.262,160.212,0.176C161.154,0.615,161.562,1.735,161.124,2.678L152.083,22.106C151.764,22.791,151.085,23.193,150.377,23.193Z" style="fill-rule: nonzero; fill: rgb(9, 6, 102); fill-opacity: 1;"/></g></g><g id="shape-cf397e4b-3ad5-8026-8002-ec5c5f23a690"><g class="fills" id="fills-cf397e4b-3ad5-8026-8002-ec5c5f23a690"><path rx="0" ry="0" d="M131.083,23.193C130.373,23.193,129.695,22.791,129.376,22.106L120.336,2.678C119.896,1.735,120.305,0.615,121.247,0.176C122.188,-0.262,123.307,0.146,123.745,1.089L132.786,20.516C133.224,21.459,132.817,22.579,131.875,23.017C131.618,23.137,131.348,23.193,131.083,23.193Z" style="fill-rule: nonzero; fill: rgb(9, 6, 102); fill-opacity: 1;"/></g></g><g id="shape-cf397e4b-3ad5-8026-8002-ec5c5f23a691"><g class="fills" id="fills-cf397e4b-3ad5-8026-8002-ec5c5f23a691"><path rx="0" ry="0" d="M204.766,161.133L74.235,161.133C59.547,161.133,47.531,149.107,47.531,134.408L47.531,59.838C47.531,45.140,59.547,33.114,74.235,33.114L204.766,33.114C219.453,33.114,231.470,45.140,231.470,59.838L231.470,134.408C231.470,149.107,219.453,161.133,204.766,161.133Z" style="fill-rule: nonzero; fill: rgb(252, 28, 49); fill-opacity: 1;"/></g></g><g id="shape-cf397e4b-3ad5-8026-8002-ec5c5f23a692"><g class="fills" id="fills-cf397e4b-3ad5-8026-8002-ec5c5f23a692"><path rx="0" ry="0" d="M51.896,50.271L51.896,49.010C55.923,40.722,64.424,34.996,74.235,34.996L204.766,34.996C210.541,34.996,215.862,36.980,220.085,40.303C220.140,40.997,220.170,41.698,220.170,42.407L220.170,43.072C215.810,39.971,210.491,38.145,204.766,38.145L74.235,38.145C64.919,38.145,56.678,42.981,51.896,50.271Z" style="fill-rule: nonzero; fill: rgb(254, 164, 173); fill-opacity: 1;"/></g></g><g id="shape-cf397e4b-3ad5-8026-8002-ec5c5f23a693"><g class="fills" id="fills-cf397e4b-3ad5-8026-8002-ec5c5f23a693"><path rx="0" ry="0" d="M204.766,159.250L74.235,159.250C60.547,159.250,49.411,148.106,49.411,134.408L49.411,59.838C49.411,57.397,49.765,55.036,50.424,52.806C50.869,51.933,51.361,51.086,51.896,50.271L51.896,116.977C51.896,126.624,57.073,135.121,64.784,139.820C68.364,145.172,74.459,148.701,81.363,148.701L157.349,148.701C162.401,148.701,167.019,146.811,170.536,143.701L193.466,143.701C208.153,143.701,220.170,131.675,220.170,116.977L220.170,43.072C223.697,45.581,226.598,48.923,228.576,52.805C229.235,55.036,229.589,57.397,229.589,59.838L229.589,134.408C229.589,148.106,218.453,159.250,204.766,159.250Z" style="fill-rule: nonzero; fill: rgb(203, 24, 60); fill-opacity: 1;"/></g></g><g id="shape-cf397e4b-3ad5-8026-8002-ec5c5f23a694"><g class="fills" id="fills-cf397e4b-3ad5-8026-8002-ec5c5f23a694"><path rx="0" ry="0" d="M50.424,52.806C50.812,51.493,51.306,50.223,51.896,49.010L51.896,50.271C51.361,51.086,50.869,51.933,50.424,52.806ZM228.576,52.805C226.598,48.923,223.697,45.581,220.170,43.072L220.170,42.407C220.170,41.698,220.140,40.997,220.085,40.303C224.085,43.452,227.098,47.801,228.576,52.805Z" style="fill-rule: nonzero; fill: rgb(205, 132, 159); fill-opacity: 1;"/></g></g><g id="shape-cf397e4b-3ad5-8026-8002-ec5c5f23a695"><g class="fills" id="fills-cf397e4b-3ad5-8026-8002-ec5c5f23a695"><path rx="0" ry="0" d="M175.406,67.386L175.406,128.749C175.406,138.687,167.280,146.819,157.349,146.819L81.363,146.819C71.432,146.819,63.307,138.687,63.307,128.749L63.307,67.386C63.307,57.448,71.432,49.317,81.363,49.317L157.349,49.317C167.280,49.317,175.406,57.448,175.406,67.386Z" style="fill-rule: nonzero; fill: rgb(171, 229, 255); fill-opacity: 1;"/></g></g><g id="shape-cf397e4b-3ad5-8026-8002-ec5c5f23a696"><g class="fills" id="fills-cf397e4b-3ad5-8026-8002-ec5c5f23a696"><path rx="0" ry="0" d="M74.235,34.996C60.547,34.996,49.411,46.140,49.411,59.838L49.411,134.408C49.411,148.106,60.547,159.250,74.235,159.250L204.766,159.250C218.453,159.250,229.589,148.106,229.589,134.408L229.589,59.838C229.589,46.140,218.453,34.996,204.766,34.996L74.235,34.996ZM204.766,163.015L74.235,163.015C58.473,163.015,45.650,150.182,45.650,134.408L45.650,59.838C45.650,44.065,58.473,31.231,74.235,31.231L204.766,31.231C220.527,31.231,233.350,44.065,233.350,59.838L233.350,134.408C233.350,150.182,220.527,163.015,204.766,163.015Z" style="fill-rule: nonzero; fill: rgb(9, 6, 102); fill-opacity: 1;"/></g></g><g id="shape-cf397e4b-3ad5-8026-8002-ec5c5f23a697"><g class="fills" id="fills-cf397e4b-3ad5-8026-8002-ec5c5f23a697"><path rx="0" ry="0" d="M69.325,123.509C67.758,121.983,66.360,120.305,65.187,118.497L65.187,67.386C65.187,58.460,72.444,51.199,81.363,51.199L157.349,51.199C165.420,51.199,172.129,57.144,173.333,64.888C170.429,59.213,164.778,55.340,158.319,55.340L86.412,55.340C77.014,55.340,69.325,63.540,69.325,73.561L69.325,123.509Z" style="fill-rule: nonzero; fill: rgb(221, 245, 255); fill-opacity: 1;"/></g></g><g id="shape-cf397e4b-3ad5-8026-8002-ec5c5f23a698"><g class="fills" id="fills-cf397e4b-3ad5-8026-8002-ec5c5f23a698"><path rx="0" ry="0" d="M81.363,51.199C72.444,51.199,65.187,58.460,65.187,67.386L65.187,128.749C65.187,137.674,72.444,144.936,81.363,144.936L157.349,144.936C166.268,144.936,173.525,137.674,173.525,128.749L173.525,67.386C173.525,58.460,166.268,51.199,157.349,51.199L81.363,51.199ZM157.349,148.701L81.363,148.701C70.369,148.701,61.426,139.750,61.426,128.749L61.426,67.386C61.426,56.384,70.369,47.434,81.363,47.434L157.349,47.434C168.343,47.434,177.286,56.384,177.286,67.386L177.286,128.749C177.286,139.750,168.343,148.701,157.349,148.701Z" style="fill-rule: nonzero; fill: rgb(9, 6, 102); fill-opacity: 1;"/></g></g><g id="shape-cf397e4b-3ad5-8026-8002-ec5c5f23a699"><g class="fills" id="fills-cf397e4b-3ad5-8026-8002-ec5c5f23a699"><path rx="0" ry="0" d="M201.613,72.343C197.284,72.343,193.775,69.037,193.775,64.959C193.775,63.749,194.085,62.607,194.632,61.599C194.605,61.846,194.591,62.095,194.590,62.349C194.590,62.354,194.590,62.361,194.590,62.367L194.590,62.367L194.590,62.367L194.590,62.367C194.590,62.511,194.595,62.654,194.604,62.796C194.825,66.477,197.878,69.395,201.613,69.395C205.346,69.395,208.400,66.477,208.622,62.796C208.630,62.654,208.634,62.511,208.634,62.367L208.634,62.367L208.634,62.367L208.634,62.367C208.634,62.361,208.634,62.354,208.634,62.349C208.633,62.095,208.619,61.846,208.593,61.599C209.140,62.607,209.449,63.749,209.449,64.959C209.449,69.037,205.941,72.343,201.613,72.343Z" style="fill-rule: nonzero; fill: rgb(155, 19, 70); fill-opacity: 1;"/></g></g><g id="shape-cf397e4b-3ad5-8026-8002-ec5c5f23a69a"><g class="fills" id="fills-cf397e4b-3ad5-8026-8002-ec5c5f23a69a"><path rx="0" ry="0" d="M208.634,62.367C208.634,66.248,205.491,69.395,201.613,69.395C197.734,69.395,194.590,66.248,194.590,62.367C194.590,58.486,197.734,55.340,201.613,55.340C205.491,55.340,208.634,58.486,208.634,62.367Z" style="fill-rule: nonzero; fill: rgb(255, 255, 255); fill-opacity: 1;"/></g></g><g id="shape-cf397e4b-3ad5-8026-8002-ec5c5f23a69b"><g class="fills" id="fills-cf397e4b-3ad5-8026-8002-ec5c5f23a69b"><path rx="0" ry="0" d="M208.634,62.367C208.634,62.361,208.634,62.354,208.634,62.367ZC208.634,62.354,208.634,62.361,208.634,62.367ZM194.590,62.367C194.590,62.361,194.590,62.354,194.590,62.367ZC194.590,62.354,194.590,62.361,194.590,62.367Z" style="fill-rule: nonzero; fill: rgb(97, 14, 83); fill-opacity: 1;"/></g></g><g id="shape-cf397e4b-3ad5-8026-8002-ec5c5f23a69c"><g class="fills" id="fills-cf397e4b-3ad5-8026-8002-ec5c5f23a69c"><path rx="0" ry="0" d="M201.613,69.395C197.878,69.395,194.825,66.477,194.604,62.796C194.595,62.654,194.590,62.511,194.590,62.367L194.590,62.367C194.590,62.361,194.590,62.354,194.590,62.349C194.592,61.821,194.657,61.308,194.769,60.814C195.476,63.947,198.268,66.289,201.613,66.289C204.956,66.289,207.749,63.947,208.457,60.814C208.568,61.308,208.633,61.821,208.634,62.349C208.634,62.354,208.634,62.361,208.634,62.367L208.634,62.367C208.634,62.511,208.630,62.654,208.622,62.796C208.400,66.477,205.346,69.395,201.613,69.395Z" style="fill-rule: nonzero; fill: rgb(157, 155, 194); fill-opacity: 1;"/></g></g><g id="shape-cf397e4b-3ad5-8026-8002-ec5c5f23a69d"><g class="fills" id="fills-cf397e4b-3ad5-8026-8002-ec5c5f23a69d"><path rx="0" ry="0" d="M201.613,56.469C198.363,56.469,195.719,59.115,195.719,62.367C195.719,65.619,198.363,68.265,201.613,68.265C204.862,68.265,207.506,65.619,207.506,62.367C207.506,59.115,204.862,56.469,201.613,56.469ZZM201.613,70.524C197.118,70.524,193.462,66.865,193.462,62.367C193.462,57.870,197.118,54.211,201.613,54.211C206.107,54.211,209.763,57.870,209.763,62.367C209.763,66.865,206.107,70.524,201.613,70.524Z" style="fill-rule: nonzero; fill: rgb(9, 6, 102); fill-opacity: 1;"/></g></g><g id="shape-cf397e4b-3ad5-8026-8002-ec5c5f23d382"><g class="fills" id="fills-cf397e4b-3ad5-8026-8002-ec5c5f23d382"><path rx="0" ry="0" d="M201.613,94.460C197.284,94.460,193.775,91.154,193.775,87.075C193.775,85.865,194.085,84.723,194.632,83.716C194.605,83.962,194.591,84.212,194.590,84.465C194.590,84.472,194.590,84.477,194.590,84.484L194.590,84.484L194.590,84.484L194.590,84.484C194.590,84.757,194.606,85.026,194.636,85.291C195.036,88.792,198.007,91.511,201.613,91.511C201.613,91.511,201.612,91.511,201.613,91.511C201.613,91.511,201.612,91.511,201.613,91.511C205.491,91.511,208.634,88.365,208.634,84.484L208.634,84.484L208.634,84.484L208.634,84.484C208.634,84.477,208.634,84.472,208.634,84.465C208.633,84.212,208.619,83.962,208.593,83.716C209.140,84.723,209.449,85.866,209.449,87.075C209.449,91.154,205.941,94.460,201.613,94.460Z" style="fill-rule: nonzero; fill: rgb(155, 19, 70); fill-opacity: 1;"/></g></g><g id="shape-cf397e4b-3ad5-8026-8002-ec5c5f23d383"><g class="fills" id="fills-cf397e4b-3ad5-8026-8002-ec5c5f23d383"><path rx="0" ry="0" d="M208.634,84.484C208.634,88.365,205.491,91.511,201.613,91.511C197.734,91.511,194.590,88.365,194.590,84.484C194.590,80.602,197.734,77.456,201.613,77.456C205.491,77.456,208.634,80.602,208.634,84.484Z" style="fill-rule: nonzero; fill: rgb(255, 255, 255); fill-opacity: 1;"/></g></g><g id="shape-cf397e4b-3ad5-8026-8002-ec5c5f23d384"><g class="fills" id="fills-cf397e4b-3ad5-8026-8002-ec5c5f23d384"><path rx="0" ry="0" d="M201.613,91.511C201.612,91.511,201.613,91.511,201.613,91.511ZC205.491,91.511,208.634,88.365,208.634,84.484L208.634,84.484C208.634,88.365,205.491,91.511,201.613,91.511ZM208.634,84.484C208.634,84.477,208.634,84.472,208.634,84.484ZC208.634,84.472,208.634,84.477,208.634,84.484ZM194.590,84.484C194.590,84.477,194.590,84.472,194.590,84.484ZC194.590,84.472,194.590,84.477,194.590,84.484Z" style="fill-rule: nonzero; fill: rgb(97, 14, 83); fill-opacity: 1;"/></g></g><g id="shape-cf397e4b-3ad5-8026-8002-ec5c5f23d385"><g class="fills" id="fills-cf397e4b-3ad5-8026-8002-ec5c5f23d385"><path rx="0" ry="0" d="M201.613,91.511C198.007,91.511,195.036,88.791,194.636,85.291C194.606,85.026,194.590,84.757,194.590,84.484L194.590,84.484C194.590,84.477,194.590,84.472,194.590,84.465C194.592,83.938,194.657,83.426,194.769,82.931C195.476,86.064,198.268,88.405,201.613,88.405C204.956,88.405,207.749,86.064,208.457,82.931C208.568,83.426,208.633,83.938,208.634,84.465C208.634,84.472,208.634,84.477,208.634,84.484L208.634,84.484C208.634,88.365,205.491,91.511,201.613,91.511Z" style="fill-rule: nonzero; fill: rgb(157, 155, 194); fill-opacity: 1;"/></g></g><g id="shape-cf397e4b-3ad5-8026-8002-ec5c5f23d386"><g class="fills" id="fills-cf397e4b-3ad5-8026-8002-ec5c5f23d386"><path rx="0" ry="0" d="M201.613,78.586C198.363,78.586,195.719,81.232,195.719,84.484C195.719,87.736,198.363,90.382,201.613,90.382C204.862,90.382,207.506,87.736,207.506,84.484C207.506,81.232,204.862,78.586,201.613,78.586ZZM201.613,92.640C197.118,92.640,193.462,88.981,193.462,84.484C193.462,79.986,197.118,76.327,201.613,76.327C206.107,76.327,209.763,79.986,209.763,84.484C209.763,88.981,206.107,92.640,201.613,92.640Z" style="fill-rule: nonzero; fill: rgb(9, 6, 102); fill-opacity: 1;"/></g></g><g id="shape-cf397e4b-3ad5-8026-8002-ec5c5f23d387"><g class="fills" id="fills-cf397e4b-3ad5-8026-8002-ec5c5f23d387"><path rx="0" ry="0" d="M201.613,116.169C197.284,116.169,193.775,112.863,193.775,108.785C193.775,107.575,194.085,106.433,194.632,105.424C194.605,105.671,194.591,105.921,194.590,106.174C194.590,106.180,194.590,106.187,194.590,106.193L194.590,106.193L194.590,106.193L194.590,106.193L194.590,106.193C194.590,110.074,197.734,113.220,201.613,113.220C201.613,113.220,201.612,113.220,201.613,113.220C201.613,113.220,201.612,113.220,201.613,113.220C202.760,113.220,203.842,112.945,204.798,112.457C207.075,111.294,208.634,108.926,208.634,106.193L208.634,106.193L208.634,106.193L208.634,106.193L208.634,106.193C208.634,106.187,208.634,106.180,208.634,106.174C208.633,105.921,208.619,105.671,208.593,105.425C209.140,106.433,209.449,107.575,209.449,108.785C209.449,112.863,205.941,116.169,201.613,116.169Z" style="fill-rule: nonzero; fill: rgb(155, 19, 70); fill-opacity: 1;"/></g></g><g id="shape-cf397e4b-3ad5-8026-8002-ec5c5f23d388"><g class="fills" id="fills-cf397e4b-3ad5-8026-8002-ec5c5f23d388"><path rx="0" ry="0" d="M208.634,106.193C208.634,110.074,205.491,113.220,201.613,113.220C197.734,113.220,194.590,110.074,194.590,106.193C194.590,102.312,197.734,99.166,201.613,99.166C205.491,99.166,208.634,102.312,208.634,106.193Z" style="fill-rule: nonzero; fill: rgb(255, 255, 255); fill-opacity: 1;"/></g></g><g id="shape-cf397e4b-3ad5-8026-8002-ec5c5f23d389"><g class="fills" id="fills-cf397e4b-3ad5-8026-8002-ec5c5f23d389"><path rx="0" ry="0" d="M201.613,113.220C201.612,113.220,201.613,113.220,201.613,113.220ZC202.760,113.220,203.842,112.945,204.798,112.457C203.842,112.945,202.760,113.220,201.613,113.220ZM208.634,106.193C208.634,106.187,208.634,106.180,208.634,106.193ZC208.634,106.180,208.634,106.187,208.634,106.193ZM194.590,106.193C194.590,106.187,194.590,106.180,194.590,106.193ZC194.590,106.180,194.590,106.187,194.590,106.193Z" style="fill-rule: nonzero; fill: rgb(97, 14, 83); fill-opacity: 1;"/></g></g><g id="shape-cf397e4b-3ad5-8026-8002-ec5c5f23d38a"><g class="fills" id="fills-cf397e4b-3ad5-8026-8002-ec5c5f23d38a"><path rx="0" ry="0" d="M201.613,113.220C197.735,113.219,194.590,110.073,194.590,106.193L194.590,106.193L194.590,106.193C194.590,106.187,194.590,106.180,194.590,106.174C194.592,105.646,194.657,105.134,194.769,104.640C195.476,107.772,198.268,110.114,201.613,110.114C204.956,110.114,207.749,107.772,208.457,104.640C208.568,105.134,208.633,105.646,208.634,106.174C208.634,106.180,208.634,106.187,208.634,106.193L208.634,106.193L208.634,106.193C208.634,108.926,207.075,111.294,204.798,112.457C203.842,112.945,202.760,113.220,201.613,113.220Z" style="fill-rule: nonzero; fill: rgb(157, 155, 194); fill-opacity: 1;"/></g></g><g id="shape-cf397e4b-3ad5-8026-8002-ec5c5f23d38b"><g class="fills" id="fills-cf397e4b-3ad5-8026-8002-ec5c5f23d38b"><path rx="0" ry="0" d="M201.613,100.295C198.363,100.295,195.719,102.941,195.719,106.193C195.719,109.445,198.363,112.091,201.613,112.091C204.862,112.091,207.506,109.445,207.506,106.193C207.506,102.941,204.862,100.295,201.613,100.295ZZM201.613,114.350C197.118,114.350,193.462,110.691,193.462,106.193C193.462,101.695,197.118,98.036,201.613,98.036C206.107,98.036,209.763,101.695,209.763,106.193C209.763,110.691,206.107,114.350,201.613,114.350Z" style="fill-rule: nonzero; fill: rgb(9, 6, 102); fill-opacity: 1;"/></g></g><g id="shape-cf397e4b-3ad5-8026-8002-ec5c5f23d38c"><g class="fills" id="fills-cf397e4b-3ad5-8026-8002-ec5c5f23d38c"><path rx="0" ry="0" d="M214.716,127.620L187.443,127.620C186.612,127.620,185.939,126.945,185.939,126.114C185.939,125.282,186.612,124.607,187.443,124.607L214.716,124.607C215.547,124.607,216.221,125.282,216.221,126.114C216.221,126.945,215.547,127.620,214.716,127.620Z" style="fill-rule: nonzero; fill: rgb(9, 6, 102); fill-opacity: 1;"/></g></g><g id="shape-cf397e4b-3ad5-8026-8002-ec5c5f23d38d"><g class="fills" id="fills-cf397e4b-3ad5-8026-8002-ec5c5f23d38d"><path rx="0" ry="0" d="M214.716,134.898L187.443,134.898C186.612,134.898,185.939,134.224,185.939,133.392C185.939,132.560,186.612,131.886,187.443,131.886L214.716,131.886C215.547,131.886,216.221,132.560,216.221,133.392C216.221,134.224,215.547,134.898,214.716,134.898Z" style="fill-rule: nonzero; fill: rgb(9, 6, 102); fill-opacity: 1;"/></g></g><g id="shape-cf397e4b-3ad5-8026-8002-ec5c5f23d38e"><g class="fills" id="fills-cf397e4b-3ad5-8026-8002-ec5c5f23d38e"><path rx="0" ry="0" d="M214.716,142.804L187.443,142.804C186.612,142.804,185.939,142.129,185.939,141.298C185.939,140.466,186.612,139.791,187.443,139.791L214.716,139.791C215.547,139.791,216.221,140.466,216.221,141.298C216.221,142.129,215.547,142.804,214.716,142.804Z" style="fill-rule: nonzero; fill: rgb(9, 6, 102); fill-opacity: 1;"/></g></g><g id="shape-cf397e4b-3ad5-8026-8002-ec5c5f23d38f"><g class="fills" id="fills-cf397e4b-3ad5-8026-8002-ec5c5f23d38f"><path rx="0" ry="0" d="M157.349,144.936L81.363,144.936C76.897,144.936,72.849,143.116,69.918,140.178C69.532,138.665,69.325,137.076,69.325,135.437L69.325,123.509C72.417,126.519,76.164,128.941,80.122,130.616C89.040,134.388,98.960,134.945,108.643,134.990C109.025,134.992,109.410,134.993,109.793,134.993C120.494,134.993,131.404,134.286,141.261,130.161C154.332,124.691,164.456,113.540,170.960,100.940C171.878,99.158,172.732,97.348,173.525,95.513L173.525,128.749C173.525,137.674,166.268,144.936,157.349,144.936Z" style="fill-rule: nonzero; fill: rgb(139, 184, 224); fill-opacity: 1;"/></g></g><g id="shape-cf397e4b-3ad5-8026-8002-ec5c5f23d390"><g class="fills" id="fills-cf397e4b-3ad5-8026-8002-ec5c5f23d390"><path rx="0" ry="0" d="M69.918,140.178C66.996,137.247,65.187,133.206,65.187,128.749L65.187,118.497C66.360,120.305,67.758,121.983,69.325,123.509L69.325,135.437C69.325,137.076,69.532,138.665,69.918,140.178Z" style="fill-rule: nonzero; fill: rgb(179, 197, 224); fill-opacity: 1;"/></g></g><g id="shape-cf397e4b-3ad5-8026-8002-ec5c5f23d391"><g class="fills" id="fills-cf397e4b-3ad5-8026-8002-ec5c5f23d391"><path rx="0" ry="0" d="M157.349,146.819L81.363,146.819C71.432,146.819,63.307,138.687,63.307,128.749L63.307,115.046C63.840,116.242,64.472,117.394,65.187,118.497L65.187,128.749C65.187,133.206,66.996,137.247,69.918,140.178C72.849,143.116,76.897,144.936,81.363,144.936L157.349,144.936C166.268,144.936,173.525,137.674,173.525,128.749L173.525,95.513C174.193,93.966,174.819,92.403,175.406,90.824L175.406,128.749C175.406,138.687,167.280,146.819,157.349,146.819Z" style="fill-rule: nonzero; fill: rgb(9, 6, 102); fill-opacity: 1;"/></g></g><g id="shape-cf397e4b-3ad5-8026-8002-ec5c5f23d392"><g class="fills" id="fills-cf397e4b-3ad5-8026-8002-ec5c5f23d392"><path rx="0" ry="0" d="M135.031,96.060C135.031,89.649,138.568,84.452,142.930,84.452C147.293,84.452,150.830,89.649,150.830,96.060C150.830,102.470,147.293,107.667,142.930,107.667C138.568,107.667,135.031,102.470,135.031,96.060Z" style="fill-rule: nonzero; fill: rgb(9, 6, 102); fill-opacity: 1;"/></g></g><g id="shape-cf397e4b-3ad5-8026-8002-ec5c5f23d393"><g class="fills" id="fills-cf397e4b-3ad5-8026-8002-ec5c5f23d393"><path rx="0" ry="0" d="M138.157,94.477C138.157,92.114,139.382,90.198,140.891,90.198C142.400,90.198,143.624,92.114,143.624,94.477C143.624,96.840,142.400,98.756,140.891,98.756C139.382,98.756,138.157,96.840,138.157,94.477Z" style="fill-rule: nonzero; fill: rgb(255, 255, 255); fill-opacity: 1;"/></g></g><g id="shape-cf397e4b-3ad5-8026-8002-ec5c5f23d394"><g class="fills" id="fills-cf397e4b-3ad5-8026-8002-ec5c5f23d394"><path rx="0" ry="0" d="M145.657,102.441C145.526,102.441,145.397,102.419,145.273,102.373C144.411,102.054,144.118,100.702,144.616,99.353C145.044,98.200,145.912,97.422,146.694,97.422C146.826,97.422,146.955,97.444,147.079,97.490C147.940,97.809,148.234,99.161,147.735,100.509C147.308,101.663,146.439,102.441,145.657,102.441Z" style="fill-rule: nonzero; fill: rgb(95, 93, 155); fill-opacity: 1;"/></g></g><g id="shape-cf397e4b-3ad5-8026-8002-ec5c5f23d395"><g class="fills" id="fills-cf397e4b-3ad5-8026-8002-ec5c5f23d395"><path rx="0" ry="0" d="M101.080,95.704C101.080,89.294,97.543,84.097,93.181,84.097C88.818,84.097,85.281,89.294,85.281,95.704C85.281,102.115,88.818,107.312,93.181,107.312C97.543,107.312,101.080,102.115,101.080,95.704Z" style="fill-rule: nonzero; fill: rgb(9, 6, 102); fill-opacity: 1;"/></g></g><g id="shape-cf397e4b-3ad5-8026-8002-ec5c5f23d396"><g class="fills" id="fills-cf397e4b-3ad5-8026-8002-ec5c5f23d396"><path rx="0" ry="0" d="M97.953,94.121C97.953,91.759,96.730,89.843,95.221,89.843C93.711,89.843,92.488,91.759,92.488,94.121C92.488,96.484,93.711,98.400,95.221,98.400C96.730,98.400,97.953,96.484,97.953,94.121Z" style="fill-rule: nonzero; fill: rgb(255, 255, 255); fill-opacity: 1;"/></g></g><g id="shape-cf397e4b-3ad5-8026-8002-ec5c5f23d397"><g class="fills" id="fills-cf397e4b-3ad5-8026-8002-ec5c5f23d397"><path rx="0" ry="0" d="M90.454,102.085C89.673,102.085,88.803,101.308,88.376,100.153C87.878,98.805,88.172,97.453,89.033,97.135C89.157,97.088,89.286,97.066,89.417,97.066C90.199,97.066,91.068,97.844,91.495,98.998C91.994,100.347,91.700,101.698,90.839,102.017C90.714,102.063,90.585,102.085,90.454,102.085Z" style="fill-rule: nonzero; fill: rgb(95, 93, 155); fill-opacity: 1;"/></g></g><g id="shape-cf397e4b-3ad5-8026-8002-ec5c5f23d398"><g class="fills" id="fills-cf397e4b-3ad5-8026-8002-ec5c5f23d398"><path rx="0" ry="0" d="M83.720,73.433C86.783,68.209,94.063,67.335,98.908,70.573C100.483,71.584,101.815,72.914,102.706,74.503C102.917,74.881,102.783,75.360,102.405,75.571C102.162,75.708,101.880,75.701,101.650,75.579C98.844,74.157,96.172,72.887,93.152,72.533C90.134,72.161,87.438,72.963,84.649,74.390C84.050,74.731,83.363,74.015,83.720,73.433Z" style="fill-rule: nonzero; fill: rgb(9, 6, 102); fill-opacity: 1;"/></g></g><g id="shape-cf397e4b-3ad5-8026-8002-ec5c5f23d399"><g class="fills" id="fills-cf397e4b-3ad5-8026-8002-ec5c5f23d399"><path rx="0" ry="0" d="M150.866,74.390C146.659,72.122,142.561,71.855,138.168,73.601C136.762,74.129,135.375,74.824,133.865,75.579C133.476,75.788,132.989,75.634,132.792,75.238C132.672,74.998,132.689,74.722,132.809,74.503C133.700,72.914,135.032,71.584,136.607,70.573C139.778,68.490,144.204,67.980,147.676,69.698C149.419,70.544,150.876,71.855,151.795,73.433C152.152,74.024,151.460,74.729,150.866,74.390Z" style="fill-rule: nonzero; fill: rgb(9, 6, 102); fill-opacity: 1;"/></g></g><g id="shape-cf397e4b-3ad5-8026-8002-ec5c5f23d39a"><g class="fills" id="fills-cf397e4b-3ad5-8026-8002-ec5c5f23d39a"><path rx="0" ry="0" d="M111.006,106.970C111.656,115.695,114.315,120.128,116.714,121.374C117.823,121.950,118.928,121.887,119.998,121.187C122.209,119.742,124.575,115.163,124.396,106.902C119.971,108.650,115.483,108.672,111.006,106.970ZM118.210,124.401C117.300,124.401,116.385,124.172,115.501,123.713C111.236,121.497,108.596,114.659,108.260,104.952C108.244,104.489,108.473,104.051,108.863,103.799C109.252,103.548,109.745,103.519,110.161,103.726C115.207,106.232,120.071,106.233,125.034,103.730C125.428,103.532,125.895,103.543,126.280,103.762C126.663,103.982,126.910,104.379,126.940,104.821C127.526,113.816,125.470,120.758,121.438,123.393C120.412,124.064,119.315,124.401,118.210,124.401Z" style="fill-rule: nonzero; fill: rgb(9, 6, 102); fill-opacity: 1;"/></g></g><g id="shape-cf397e4b-3ad5-8026-8002-ec5c5f23d39b"><g class="fills" id="fills-cf397e4b-3ad5-8026-8002-ec5c5f23d39b"><path rx="0" ry="0" d="M109.575,104.907C110.453,130.255,127.131,127.996,125.625,104.907C120.297,107.595,114.947,107.573,109.575,104.907Z" style="fill-rule: nonzero; fill: rgb(9, 6, 102); fill-opacity: 1;"/></g></g><g id="shape-cf397e4b-3ad5-8026-8002-ec5c5f23d39c"><g class="fills" id="fills-cf397e4b-3ad5-8026-8002-ec5c5f23d39c"><path rx="0" ry="0" d="M111.308,115.715C114.654,112.184,121.237,112.184,124.761,115.715L124.761,116.138C123.477,120.023,121.517,122.798,118.035,123.076C115.407,123.015,113.152,120.639,111.308,115.715Z" style="fill-rule: nonzero; fill: rgb(255, 103, 160); fill-opacity: 1;"/></g></g><g id="shape-cf397e4b-3ad5-8026-8002-ec5c5f23d39d"><g class="fills" id="fills-cf397e4b-3ad5-8026-8002-ec5c5f23d39d"><path rx="0" ry="0" d="M124.107,119.243C123.963,119.093,123.814,118.949,123.663,118.812C124.045,118.070,124.381,117.254,124.680,116.376C124.708,116.410,124.734,116.445,124.761,116.479L124.761,117.024C124.561,117.802,124.343,118.541,124.107,119.243ZM112.141,119.035C111.855,118.250,111.576,117.403,111.308,116.479C111.367,116.397,111.428,116.318,111.491,116.239C111.815,117.129,112.172,117.931,112.555,118.644C112.413,118.769,112.276,118.899,112.141,119.035Z" style="fill-rule: nonzero; fill: rgb(9, 6, 102); fill-opacity: 1;"/></g></g><g id="shape-cf397e4b-3ad5-8026-8002-ec5c5f23d39e"><g class="fills" id="fills-cf397e4b-3ad5-8026-8002-ec5c5f23d39e"><path rx="0" ry="0" d="M112.555,118.644C112.172,117.931,111.815,117.129,111.491,116.239C111.495,116.234,111.499,116.229,111.503,116.223C111.852,117.107,112.215,117.903,112.555,118.644ZC112.579,118.622,112.567,118.633,112.555,118.644ZM117.947,113.068C117.954,113.068,117.961,113.068,117.947,113.068ZC117.961,113.068,117.954,113.068,117.947,113.068ZM117.988,113.068C117.981,113.068,117.975,113.068,117.988,113.068ZC117.975,113.068,117.981,113.068,117.988,113.068Z" style="fill-rule: nonzero; fill: rgb(9, 6, 102); fill-opacity: 1;"/></g></g><g id="shape-cf397e4b-3ad5-8026-8002-ec5c5f23d39f"><g class="fills" id="fills-cf397e4b-3ad5-8026-8002-ec5c5f23d39f"><path rx="0" ry="0" d="M123.663,118.812C122.028,117.330,119.995,116.590,117.976,116.590C116.049,116.590,114.135,117.265,112.592,118.612C112.215,117.903,111.852,117.107,111.503,116.223C113.166,114.125,115.545,113.073,117.947,113.068C117.954,113.068,117.961,113.068,117.968,113.068L117.968,113.068L117.968,113.068C117.975,113.068,117.981,113.068,117.988,113.068C120.448,113.073,122.928,114.177,124.680,116.376C124.381,117.254,124.045,118.070,123.663,118.812Z" style="fill-rule: nonzero; fill: rgb(181, 74, 142); fill-opacity: 1;"/></g></g><g id="shape-cf397e4b-3ad5-8026-8002-ec5c5f23d3a0"><g class="fills" id="fills-cf397e4b-3ad5-8026-8002-ec5c5f23d3a0"><path rx="0" ry="0" d="M112.410,115.958C114.010,119.979,115.892,122.055,118.009,122.134C120.611,121.903,122.452,119.979,123.785,116.088C122.262,114.733,120.127,113.997,117.842,114.009C115.735,114.037,113.790,114.741,112.410,115.958ZZM118.035,124.017L118.035,124.017ZC114.934,123.946,112.382,121.264,110.427,116.045C110.301,115.708,110.378,115.329,110.626,115.067C112.362,113.235,114.983,112.164,117.818,112.127C120.752,112.103,123.534,113.154,125.426,115.050C125.603,115.226,125.701,115.466,125.701,115.715L125.701,116.138C125.701,116.239,125.685,116.338,125.654,116.433C124.060,121.256,121.592,123.736,118.035,124.017ZC118.084,124.016,118.060,124.017,118.035,124.017Z" style="fill-rule: nonzero; fill: rgb(9, 6, 102); fill-opacity: 1;"/></g></g><g id="shape-cf397e4b-3ad5-8026-8002-ec5c5f23d3a1"><g class="fills" id="fills-cf397e4b-3ad5-8026-8002-ec5c5f23d3a1"><path rx="0" ry="0" d="M247.756,79.692C246.310,67.449,250.184,58.205,254.469,57.665C255.794,57.498,256.941,58.606,256.941,59.943L256.941,64.179C256.941,64.571,257.404,64.779,257.697,64.519L264.386,58.568C265.036,57.990,265.962,57.770,266.768,58.093C267.494,58.384,267.937,59.001,268.048,59.997C268.100,60.462,267.988,60.933,267.743,61.331L264.496,66.634L270.336,63.405C271.051,63.010,271.952,63.012,272.609,63.499C272.921,63.731,273.151,64.040,273.252,64.420C273.364,64.843,273.244,65.294,272.988,65.650L268.948,71.276L275.167,70.361C275.283,70.344,275.403,70.334,275.522,70.340C276.562,70.394,277.247,70.922,277.445,71.714C277.639,72.487,277.270,73.295,276.613,73.746L270.703,77.802C267.443,85.080,261.905,90.176,255.781,87.221C254.480,83.903,252.196,81.164,247.756,79.692Z" style="fill-rule: nonzero; fill: rgb(255, 255, 255); fill-opacity: 1;"/></g></g><g id="shape-cf397e4b-3ad5-8026-8002-ec5c5f23d3a2"><g class="fills" id="fills-cf397e4b-3ad5-8026-8002-ec5c5f23d3a2"><path rx="0" ry="0" d="M266.259,62.206L267.988,59.631C268.013,59.744,268.033,59.861,268.047,59.985C268.047,59.986,268.047,59.986,268.047,59.986C268.047,59.990,268.048,59.993,268.048,59.997C268.057,60.074,268.061,60.150,268.060,60.227C268.059,60.615,267.948,60.998,267.743,61.331L267.743,61.331L267.625,61.524L266.259,62.206Z" style="fill-rule: nonzero; fill: rgb(206, 205, 224); fill-opacity: 1;"/></g></g><g id="shape-cf397e4b-3ad5-8026-8002-ec5c5f23d3a3"><g class="fills" id="fills-cf397e4b-3ad5-8026-8002-ec5c5f23d3a3"><path rx="0" ry="0" d="M259.333,88.075C259.333,88.075,259.333,88.075,259.333,88.075ZC259.333,88.075,259.333,88.075,259.333,88.075ZL259.333,88.075ZM259.337,88.075C263.991,88.072,268.058,83.671,270.675,77.866C268.058,83.672,263.992,88.073,259.337,88.075ZM255.825,87.241C255.810,87.235,255.796,87.228,255.825,87.241ZL255.825,87.241ZL255.825,87.241ZL255.825,87.241ZC255.796,87.228,255.810,87.235,255.825,87.241ZM247.751,79.651C247.751,79.647,247.751,79.642,247.751,79.651ZC247.751,79.643,247.751,79.647,247.751,79.651ZM247.746,79.610C247.746,79.605,247.746,79.601,247.746,79.610ZC247.746,79.601,247.746,79.605,247.746,79.610ZM247.741,79.567C247.741,79.563,247.741,79.559,247.741,79.567ZC247.741,79.558,247.741,79.563,247.741,79.567ZM247.731,79.472C247.731,79.471,247.731,79.467,247.731,79.472ZC247.731,79.468,247.731,79.470,247.731,79.472ZM247.726,79.430C247.726,79.427,247.726,79.425,247.726,79.430ZC247.726,79.425,247.726,79.427,247.726,79.430ZM247.721,79.386C247.721,79.385,247.721,79.382,247.721,79.386ZC247.721,79.382,247.721,79.385,247.721,79.386ZM247.706,79.250L247.706,79.250ZC247.706,79.250,247.706,79.250,247.706,79.250ZM247.701,79.207L247.701,79.207ZC247.701,79.206,247.701,79.206,247.701,79.207ZM276.625,73.738C277.267,73.291,277.629,72.502,277.452,71.742C277.466,71.802,277.477,71.863,277.485,71.927C277.578,72.637,277.213,73.330,276.625,73.738Z" style="fill-rule: nonzero; fill: rgb(206, 165, 143); fill-opacity: 1;"/></g></g><g id="shape-cf397e4b-3ad5-8026-8002-ec5c5f23d3a4"><g class="fills" id="fills-cf397e4b-3ad5-8026-8002-ec5c5f23d3a4"><path rx="0" ry="0" d="M259.333,88.075C259.333,88.075,259.333,88.075,259.333,88.075ZC258.194,88.075,257.020,87.811,255.825,87.241C255.810,87.235,255.796,87.228,255.781,87.221L255.781,87.221L255.781,87.221C255.779,87.214,255.776,87.206,255.774,87.199C255.773,87.196,255.772,87.192,255.771,87.189C255.770,87.185,255.769,87.181,255.767,87.177C255.766,87.172,255.764,87.168,255.762,87.163C255.761,87.161,255.761,87.158,255.760,87.156C255.759,87.151,255.757,87.146,255.756,87.141C255.755,87.139,255.754,87.136,255.753,87.134C255.751,87.129,255.750,87.125,255.748,87.120C255.747,87.117,255.746,87.115,255.746,87.112C255.744,87.107,255.742,87.102,255.741,87.097C255.740,87.095,255.739,87.093,255.739,87.091C255.736,87.085,255.735,87.080,255.733,87.075C255.732,87.073,255.732,87.071,255.731,87.070C255.730,87.064,255.727,87.058,255.726,87.052C255.725,87.051,255.725,87.050,255.724,87.049C255.722,87.042,255.720,87.036,255.718,87.030C255.717,87.029,255.717,87.029,255.717,87.028C255.715,87.021,255.712,87.015,255.711,87.008C255.711,87.007,255.710,87.007,255.710,87.007C255.039,85.056,253.913,83.517,252.440,82.291C251.225,81.220,249.697,80.335,247.756,79.692L247.756,79.692C247.755,79.678,247.753,79.665,247.751,79.651C247.751,79.647,247.751,79.643,247.750,79.639C247.749,79.629,247.748,79.619,247.746,79.610C247.746,79.605,247.746,79.601,247.745,79.597C247.744,79.587,247.743,79.577,247.741,79.567C247.741,79.563,247.741,79.558,247.741,79.555C247.737,79.527,247.734,79.500,247.731,79.472C247.731,79.470,247.731,79.468,247.730,79.466C247.729,79.454,247.727,79.442,247.726,79.430C247.726,79.427,247.726,79.425,247.725,79.421C247.724,79.410,247.722,79.398,247.721,79.386C247.721,79.385,247.721,79.382,247.721,79.380C247.716,79.336,247.711,79.294,247.706,79.250C247.706,79.250,247.706,79.250,247.706,79.250C247.705,79.235,247.703,79.221,247.701,79.207C247.701,79.206,247.701,79.206,247.701,79.205C246.912,71.856,248.043,65.632,250.009,61.787C249.325,64.341,248.902,67.341,248.862,70.658C248.837,72.780,249.917,74.757,251.706,75.896C253.329,76.929,254.515,78.195,255.395,79.625C256.739,81.808,259.080,83.072,261.466,83.072C262.623,83.072,263.790,82.775,264.859,82.143C267.653,80.489,270.124,77.371,271.994,73.624L276.689,70.683C277.081,70.929,277.347,71.291,277.452,71.742C277.629,72.502,277.267,73.291,276.625,73.738C276.623,73.739,276.620,73.741,276.618,73.742L270.703,77.802L270.703,77.802C270.694,77.823,270.684,77.844,270.675,77.866C268.058,83.671,263.991,88.072,259.333,88.075ZC259.335,88.075,259.334,88.075,259.333,88.075Z" style="fill-rule: nonzero; fill: rgb(206, 205, 224); fill-opacity: 1;"/></g></g><g id="shape-cf397e4b-3ad5-8026-8002-ec5c5f23d3a5"><g class="fills" id="fills-cf397e4b-3ad5-8026-8002-ec5c5f23d3a5"><path rx="0" ry="0" d="M272.117,66.863L272.988,65.650C273.214,65.336,273.334,64.947,273.282,64.570C273.334,64.947,273.214,65.336,272.989,65.650L272.117,66.863ZL272.117,66.863Z" style="fill-rule: nonzero; fill: rgb(206, 165, 143); fill-opacity: 1;"/></g></g><g id="shape-cf397e4b-3ad5-8026-8002-ec5c5f23d3a6"><g class="fills" id="fills-cf397e4b-3ad5-8026-8002-ec5c5f23d3a6"><path rx="0" ry="0" d="M270.513,67.032L272.986,63.876C273.106,64.037,273.198,64.218,273.252,64.420C273.265,64.470,273.275,64.520,273.282,64.570C273.334,64.947,273.214,65.336,272.988,65.650L272.117,66.863L270.513,67.032Z" style="fill-rule: nonzero; fill: rgb(206, 205, 224); fill-opacity: 1;"/></g></g><g id="shape-cf397e4b-3ad5-8026-8002-ec5c5f23d3a7"><g class="fills" id="fills-cf397e4b-3ad5-8026-8002-ec5c5f23d3a7"><path rx="0" ry="0" d="M231.470,104.640C243.001,102.247,251.628,96.961,255.781,87.221C254.552,83.405,251.621,81.128,247.756,79.692C243.529,84.799,238.612,88.594,231.470,89.221L231.470,104.640Z" style="fill-rule: nonzero; fill: rgb(252, 28, 49); fill-opacity: 1;"/></g></g><g id="shape-cf397e4b-3ad5-8026-8002-ec5c5f23d3a8"><g class="fills" id="fills-cf397e4b-3ad5-8026-8002-ec5c5f23d3a8"><path rx="0" ry="0" d="M247.947,79.763C247.946,79.763,247.946,79.763,247.947,79.763ZC247.946,79.763,247.946,79.763,247.947,79.763ZM247.926,79.756C247.926,79.755,247.925,79.755,247.926,79.756ZC247.925,79.755,247.926,79.755,247.926,79.756ZM247.906,79.748C247.905,79.748,247.903,79.747,247.906,79.748ZC247.903,79.747,247.904,79.748,247.906,79.748ZM247.885,79.740C247.883,79.739,247.881,79.738,247.885,79.740ZC247.881,79.738,247.883,79.739,247.885,79.740ZM247.864,79.732C247.861,79.731,247.860,79.730,247.864,79.732ZC247.860,79.730,247.861,79.731,247.864,79.732ZM247.842,79.724C247.840,79.723,247.838,79.723,247.842,79.724ZC247.838,79.723,247.840,79.723,247.842,79.724ZM247.821,79.716C247.818,79.715,247.816,79.714,247.821,79.716ZC247.816,79.714,247.818,79.715,247.821,79.716ZM247.800,79.708C247.796,79.707,247.793,79.706,247.800,79.708ZC247.793,79.706,247.796,79.707,247.800,79.708ZM247.778,79.700C247.771,79.698,247.763,79.694,247.778,79.700ZC247.764,79.694,247.771,79.698,247.778,79.700Z" style="fill-rule: nonzero; fill: rgb(255, 235, 214); fill-opacity: 1;"/></g></g><g id="shape-cf397e4b-3ad5-8026-8002-ec5c5f23d3a9"><g class="fills" id="fills-cf397e4b-3ad5-8026-8002-ec5c5f23d3a9"><path rx="0" ry="0" d="M231.470,104.640L231.470,89.221C238.612,88.594,243.529,84.799,247.756,79.692L247.756,79.692C247.763,79.694,247.771,79.698,247.778,79.700C247.781,79.702,247.786,79.703,247.790,79.704C247.793,79.706,247.796,79.707,247.800,79.708C247.804,79.709,247.808,79.711,247.812,79.713C247.816,79.714,247.818,79.715,247.821,79.716C247.826,79.718,247.831,79.719,247.836,79.722C247.838,79.723,247.840,79.723,247.842,79.724C247.847,79.726,247.852,79.728,247.857,79.729C247.860,79.730,247.861,79.731,247.864,79.732C247.869,79.734,247.874,79.736,247.880,79.738C247.881,79.738,247.883,79.739,247.885,79.740C247.891,79.742,247.896,79.744,247.901,79.747C247.903,79.747,247.905,79.748,247.906,79.748C247.911,79.750,247.918,79.753,247.924,79.755C247.925,79.755,247.926,79.755,247.926,79.756C247.932,79.758,247.939,79.761,247.945,79.763C247.946,79.763,247.946,79.763,247.947,79.763C250.488,80.734,252.613,82.080,254.099,84.003C252.655,82.136,250.608,80.815,248.164,79.852C248.179,79.866,248.194,79.881,248.209,79.896C249.014,80.697,249.576,81.658,249.892,82.685C249.746,82.628,249.598,82.571,249.449,82.515C245.222,87.623,240.305,91.417,233.163,92.045L233.163,98.587C232.607,98.735,232.042,98.872,231.470,99.000L231.470,104.640ZL231.470,104.640Z" style="fill-rule: nonzero; fill: rgb(254, 164, 173); fill-opacity: 1;"/></g></g><g id="shape-cf397e4b-3ad5-8026-8002-ec5c5f23d3aa"><g class="fills" id="fills-cf397e4b-3ad5-8026-8002-ec5c5f23d3aa"><path rx="0" ry="0" d="M255.781,87.221C255.779,87.214,255.776,87.206,255.781,87.221ZC255.776,87.206,255.779,87.214,255.781,87.221ZM255.771,87.189C255.770,87.186,255.768,87.181,255.771,87.189ZC255.769,87.181,255.770,87.185,255.771,87.189ZM255.762,87.163C255.762,87.161,255.761,87.158,255.762,87.163ZC255.761,87.158,255.761,87.161,255.762,87.163ZM255.756,87.141C255.755,87.139,255.754,87.136,255.756,87.141ZC255.754,87.136,255.755,87.139,255.756,87.141ZM255.748,87.120C255.747,87.117,255.746,87.115,255.748,87.120ZC255.746,87.115,255.747,87.117,255.748,87.120ZM255.741,87.097C255.740,87.095,255.740,87.093,255.741,87.097ZC255.739,87.093,255.740,87.095,255.741,87.097ZM255.733,87.075C255.732,87.073,255.732,87.071,255.733,87.075ZC255.732,87.071,255.732,87.073,255.733,87.075ZM255.726,87.052C255.725,87.051,255.725,87.050,255.726,87.052ZC255.725,87.050,255.725,87.051,255.726,87.052ZM255.718,87.030C255.717,87.029,255.717,87.028,255.718,87.030ZC255.717,87.029,255.717,87.029,255.718,87.030ZM255.711,87.008C255.711,87.007,255.710,87.007,255.711,87.008ZC255.710,87.007,255.711,87.007,255.711,87.008Z" style="fill-rule: nonzero; fill: rgb(167, 165, 200); fill-opacity: 1;"/></g></g><g id="shape-cf397e4b-3ad5-8026-8002-ec5c5f23d3ab"><g class="fills" id="fills-cf397e4b-3ad5-8026-8002-ec5c5f23d3ab"><path rx="0" ry="0" d="M231.470,104.640C232.042,104.521,232.605,104.394,233.163,104.260L233.163,98.587C239.524,96.896,244.798,93.853,248.665,89.060C250.145,87.226,250.548,84.815,249.892,82.685C252.171,83.588,254.100,84.808,255.517,86.491L255.517,86.491L255.517,86.491C255.147,85.568,254.670,84.743,254.099,84.003C254.775,84.878,255.320,85.873,255.710,87.007C255.710,87.007,255.711,87.007,255.711,87.008C255.712,87.015,255.715,87.021,255.717,87.028C255.717,87.028,255.717,87.029,255.718,87.030C255.720,87.036,255.722,87.042,255.724,87.049C255.725,87.050,255.725,87.051,255.726,87.052C255.727,87.058,255.730,87.064,255.731,87.070C255.732,87.071,255.732,87.073,255.733,87.075C255.735,87.080,255.736,87.085,255.739,87.091C255.740,87.093,255.740,87.095,255.741,87.097C255.742,87.102,255.744,87.107,255.746,87.112C255.746,87.115,255.747,87.117,255.748,87.120C255.750,87.125,255.751,87.129,255.753,87.134C255.754,87.136,255.755,87.139,255.756,87.141C255.757,87.146,255.759,87.151,255.760,87.156C255.761,87.158,255.762,87.161,255.762,87.163C255.764,87.168,255.766,87.173,255.767,87.177C255.768,87.181,255.770,87.186,255.771,87.189C255.772,87.192,255.773,87.196,255.774,87.199C255.776,87.206,255.779,87.214,255.781,87.221L255.781,87.221C251.628,96.961,243.001,102.247,231.470,104.640Z" style="fill-rule: nonzero; fill: rgb(203, 24, 60); fill-opacity: 1;"/></g></g><g id="shape-cf397e4b-3ad5-8026-8002-ec5c5f23d3ac"><g class="fills" id="fills-cf397e4b-3ad5-8026-8002-ec5c5f23d3ac"><path rx="0" ry="0" d="M231.470,104.640L231.470,99.000C232.042,98.872,232.607,98.735,233.163,98.587L233.163,104.260C232.605,104.394,232.042,104.521,231.470,104.640ZL231.470,104.640ZM255.517,86.491C254.100,84.808,252.171,83.588,249.892,82.685C249.576,81.658,249.014,80.697,248.209,79.896C248.194,79.881,248.179,79.866,248.164,79.852C250.608,80.815,252.655,82.136,254.099,84.003C254.670,84.743,255.147,85.568,255.517,86.491Z" style="fill-rule: nonzero; fill: rgb(205, 132, 159); fill-opacity: 1;"/></g></g><g id="shape-cf397e4b-3ad5-8026-8002-ec5c5f23d3ad"><g class="fills" id="fills-cf397e4b-3ad5-8026-8002-ec5c5f23d3ad"><path rx="0" ry="0" d="M233.350,90.886L233.350,102.278C243.574,99.707,250.268,94.740,253.755,87.150C252.834,84.879,251.075,83.198,248.304,81.949C243.704,87.176,238.997,89.995,233.350,90.886ZZM231.470,106.522C231.041,106.522,230.621,106.375,230.282,106.100C229.843,105.742,229.589,105.206,229.589,104.640L229.589,89.221C229.589,88.245,230.334,87.431,231.306,87.346C237.028,86.844,241.655,84.113,246.308,78.491C246.818,77.875,247.661,77.648,248.411,77.927C253.267,79.732,256.264,82.582,257.572,86.643C257.710,87.075,257.689,87.543,257.511,87.960C253.357,97.702,244.964,103.761,231.852,106.483C231.725,106.510,231.597,106.522,231.470,106.522Z" style="fill-rule: nonzero; fill: rgb(9, 6, 102); fill-opacity: 1;"/></g></g><g id="shape-cf397e4b-3ad5-8026-8002-ec5c5f23d3ae"><g class="fills" id="fills-cf397e4b-3ad5-8026-8002-ec5c5f23d3ae"><path rx="0" ry="0" d="M256.941,86.089C258.472,86.703,259.958,86.732,261.472,86.179C264.382,85.115,267.246,81.838,269.330,77.186C269.443,76.933,269.624,76.717,269.852,76.560L275.762,72.504C275.920,72.395,276.018,72.209,275.985,72.079C275.939,71.897,275.626,71.853,275.443,71.844C275.428,71.844,275.406,71.848,275.384,71.851L269.166,72.766C268.570,72.855,267.976,72.576,267.662,72.059C267.348,71.543,267.373,70.888,267.726,70.398L271.766,64.771L271.772,64.762C271.760,64.747,271.740,64.730,271.712,64.708C271.556,64.592,271.289,64.598,271.063,64.723L265.224,67.952C264.625,68.283,263.881,68.168,263.408,67.674C262.936,67.179,262.856,66.430,263.213,65.847L266.461,60.545C266.534,60.424,266.567,60.290,266.552,60.165C266.490,59.604,266.313,59.534,266.208,59.491C265.962,59.393,265.632,59.474,265.386,59.693L258.696,65.644C258.120,66.157,257.294,66.282,256.592,65.967C255.891,65.651,255.436,64.949,255.436,64.179L255.436,59.943C255.436,59.706,255.335,59.481,255.157,59.324C255.054,59.233,254.884,59.131,254.657,59.158C251.673,59.534,248.070,67.426,249.152,78.596C252.824,80.039,255.382,82.501,256.941,86.089ZZM259.328,89.586C257.924,89.586,256.521,89.249,255.128,88.578C254.785,88.412,254.519,88.125,254.380,87.771C253.059,84.402,250.804,82.289,247.283,81.121C246.729,80.938,246.330,80.449,246.262,79.868C244.830,67.752,248.502,56.900,254.280,56.171C255.311,56.041,256.356,56.367,257.147,57.066C257.972,57.794,258.446,58.842,258.446,59.943L258.446,61.837L263.386,57.443C264.482,56.468,266.030,56.174,267.328,56.695C268.588,57.201,269.374,58.314,269.544,59.830C269.631,60.618,269.448,61.430,269.026,62.118L268.757,62.558L269.609,62.087C270.870,61.389,272.400,61.469,273.505,62.289C274.107,62.736,274.522,63.339,274.706,64.033C274.928,64.870,274.748,65.780,274.211,66.529L272.242,69.269L274.947,68.872C275.182,68.837,275.394,68.825,275.599,68.837C277.273,68.923,278.539,69.886,278.904,71.349C279.243,72.702,278.664,74.164,277.463,74.988L271.899,78.807C269.464,84.065,266.137,87.680,262.504,89.008C261.449,89.393,260.388,89.586,259.328,89.586Z" style="fill-rule: nonzero; fill: rgb(9, 6, 102); fill-opacity: 1;"/></g></g><g id="shape-cf397e4b-3ad5-8026-8002-ec5c5f23d3af"><g class="fills" id="fills-cf397e4b-3ad5-8026-8002-ec5c5f23d3af"><path rx="0" ry="0" d="M261.770,64.892C265.401,65.965,268.293,68.882,269.844,72.280C270.054,72.769,270.256,73.259,270.415,73.764C270.499,74.029,270.353,74.312,270.088,74.396C269.909,74.453,269.723,74.405,269.594,74.286C268.762,73.527,268.061,72.717,267.402,71.953C266.134,70.495,264.945,69.133,263.587,67.766C262.890,67.068,262.134,66.353,261.379,65.533C261.107,65.260,261.409,64.774,261.770,64.892Z" style="fill-rule: nonzero; fill: rgb(9, 6, 102); fill-opacity: 1;"/></g></g><g id="shape-cf397e4b-3ad5-8026-8002-ec5c5f23d3b0"><g class="fills" id="fills-cf397e4b-3ad5-8026-8002-ec5c5f23d3b0"><path rx="0" ry="0" d="M258.446,63.151L258.232,66.351L257.550,65.213C258.352,65.715,259.118,66.308,259.787,67.016C261.837,69.065,262.415,72.210,261.759,74.947C261.697,75.242,261.408,75.431,261.113,75.369C260.840,75.311,260.659,75.060,260.681,74.791C260.792,73.156,260.533,71.536,259.750,70.270C258.986,68.993,257.734,68.104,256.332,67.490C255.878,67.274,255.649,66.820,255.651,66.351L255.436,63.151C255.379,61.027,258.502,61.022,258.446,63.151Z" style="fill-rule: nonzero; fill: rgb(9, 6, 102); fill-opacity: 1;"/></g></g><g id="shape-cf397e4b-3ad5-8026-8002-ec5c5f23d3b1"><g class="fills" id="fills-cf397e4b-3ad5-8026-8002-ec5c5f23d3b1"><path rx="0" ry="0" d="M31.244,79.692C32.691,67.449,28.816,58.205,24.531,57.665C23.206,57.498,22.059,58.606,22.059,59.943L22.059,64.179C22.059,64.571,21.596,64.779,21.304,64.519L14.614,58.568C13.964,57.990,13.038,57.770,12.231,58.093C11.506,58.384,11.064,59.001,10.952,59.997C10.900,60.462,11.013,60.933,11.257,61.331L14.504,66.634L8.664,63.405C7.949,63.010,7.048,63.012,6.391,63.499C6.078,63.731,5.849,64.040,5.748,64.420C5.636,64.843,5.757,65.294,6.012,65.650L10.053,71.276L3.834,70.361C3.717,70.344,3.597,70.334,3.479,70.340C2.438,70.394,1.753,70.922,1.555,71.714C1.362,72.487,1.730,73.295,2.387,73.746L8.297,77.802C11.557,85.080,17.095,90.176,23.219,87.221C24.519,83.903,26.804,81.164,31.244,79.692Z" style="fill-rule: nonzero; fill: rgb(255, 255, 255); fill-opacity: 1;"/></g></g><g id="shape-cf397e4b-3ad5-8026-8002-ec5c5f23d3b2"><g class="fills" id="fills-cf397e4b-3ad5-8026-8002-ec5c5f23d3b2"><path rx="0" ry="0" d="M10.954,59.986C10.954,59.986,10.954,59.986,10.954,59.986ZC10.954,59.986,10.954,59.986,10.954,59.986Z" style="fill-rule: nonzero; fill: rgb(206, 165, 143); fill-opacity: 1;"/></g></g><g id="shape-cf397e4b-3ad5-8026-8002-ec5c5f23d3b3"><g class="fills" id="fills-cf397e4b-3ad5-8026-8002-ec5c5f23d3b3"><path rx="0" ry="0" d="M12.741,62.206L11.375,61.524L11.257,61.331C11.053,60.998,10.941,60.615,10.940,60.227C10.940,60.150,10.944,60.074,10.952,59.997C10.953,59.993,10.953,59.990,10.954,59.986C10.954,59.986,10.954,59.986,10.954,59.985C10.968,59.861,10.988,59.744,11.012,59.631L12.741,62.206Z" style="fill-rule: nonzero; fill: rgb(206, 205, 224); fill-opacity: 1;"/></g></g><g id="shape-cf397e4b-3ad5-8026-8002-ec5c5f23d3b4"><g class="fills" id="fills-cf397e4b-3ad5-8026-8002-ec5c5f23d3b4"><path rx="0" ry="0" d="M19.667,88.075C14.993,88.075,10.913,83.641,8.297,77.802L8.297,77.802C10.913,83.640,14.994,88.075,19.667,88.075ZL19.667,88.075ZM23.176,87.241C23.190,87.235,23.204,87.228,23.176,87.241ZL23.176,87.241ZL23.176,87.241ZL23.176,87.241ZC23.204,87.228,23.190,87.235,23.176,87.241ZM31.249,79.652C31.249,79.647,31.250,79.642,31.249,79.652ZC31.250,79.642,31.249,79.647,31.249,79.652ZM31.253,79.610C31.254,79.605,31.254,79.601,31.253,79.610ZC31.254,79.601,31.254,79.606,31.253,79.610ZM31.258,79.567C31.259,79.562,31.259,79.559,31.258,79.567ZC31.259,79.559,31.259,79.563,31.258,79.567ZM31.264,79.517C31.264,79.517,31.264,79.515,31.264,79.517ZC31.264,79.516,31.264,79.517,31.264,79.517ZM31.269,79.471C31.269,79.470,31.270,79.469,31.269,79.471ZC31.270,79.469,31.269,79.470,31.269,79.471ZM31.274,79.430C31.274,79.427,31.275,79.425,31.274,79.430ZC31.275,79.425,31.274,79.427,31.274,79.430ZM31.279,79.386C31.279,79.384,31.279,79.382,31.279,79.386ZC31.279,79.382,31.279,79.384,31.279,79.386ZM31.294,79.251C31.294,79.250,31.294,79.250,31.294,79.251ZC31.294,79.250,31.294,79.250,31.294,79.251ZM31.299,79.206C31.299,79.206,31.299,79.206,31.299,79.206ZL31.299,79.206ZM2.375,73.738C1.787,73.330,1.423,72.637,1.515,71.927C1.528,71.825,1.549,71.727,1.577,71.633C1.569,71.660,1.562,71.687,1.555,71.714C1.363,72.483,1.726,73.285,2.375,73.738Z" style="fill-rule: nonzero; fill: rgb(206, 165, 143); fill-opacity: 1;"/></g></g><g id="shape-cf397e4b-3ad5-8026-8002-ec5c5f23d3b5"><g class="fills" id="fills-cf397e4b-3ad5-8026-8002-ec5c5f23d3b5"><path rx="0" ry="0" d="M19.667,88.075C14.994,88.075,10.913,83.640,8.297,77.802L8.297,77.802L2.382,73.742C2.380,73.741,2.378,73.739,2.375,73.738C1.726,73.285,1.363,72.483,1.555,71.714C1.562,71.687,1.569,71.660,1.577,71.633C1.697,71.234,1.951,70.909,2.311,70.683L7.006,73.624C8.876,77.371,11.348,80.489,14.141,82.143C15.210,82.775,16.377,83.072,17.534,83.072C19.920,83.072,22.262,81.808,23.605,79.625C24.485,78.195,25.671,76.929,27.294,75.896C29.084,74.757,30.164,72.780,30.138,70.658C30.099,67.341,29.675,64.341,28.991,61.787C30.957,65.632,32.088,71.856,31.299,79.205C31.299,79.206,31.299,79.206,31.299,79.206C31.297,79.220,31.296,79.235,31.294,79.249C31.294,79.250,31.294,79.250,31.294,79.251C31.289,79.294,31.284,79.337,31.280,79.380C31.279,79.382,31.279,79.384,31.279,79.386C31.277,79.398,31.276,79.411,31.275,79.422C31.275,79.425,31.274,79.427,31.274,79.430C31.273,79.442,31.271,79.455,31.270,79.468C31.270,79.469,31.269,79.470,31.269,79.471C31.268,79.486,31.266,79.500,31.264,79.514C31.264,79.515,31.264,79.517,31.264,79.517C31.263,79.530,31.261,79.542,31.260,79.556C31.259,79.559,31.259,79.562,31.258,79.567C31.257,79.577,31.256,79.586,31.255,79.596C31.254,79.601,31.254,79.605,31.253,79.610C31.252,79.619,31.251,79.629,31.250,79.638C31.250,79.642,31.249,79.647,31.249,79.652C31.247,79.665,31.245,79.678,31.244,79.692L31.244,79.692C29.304,80.335,27.775,81.220,26.560,82.290C25.087,83.517,23.961,85.056,23.290,87.007L23.290,87.007C23.288,87.014,23.285,87.021,23.283,87.028C23.283,87.029,23.283,87.029,23.282,87.030C23.280,87.036,23.278,87.042,23.276,87.049C23.275,87.050,23.275,87.051,23.275,87.052C23.273,87.058,23.271,87.064,23.269,87.070C23.268,87.071,23.268,87.073,23.267,87.075C23.265,87.080,23.263,87.085,23.262,87.091C23.261,87.093,23.260,87.095,23.259,87.097C23.258,87.102,23.256,87.107,23.254,87.112C23.254,87.115,23.253,87.117,23.252,87.120C23.250,87.125,23.249,87.130,23.247,87.134C23.246,87.136,23.245,87.140,23.245,87.142C23.243,87.146,23.242,87.151,23.240,87.156C23.239,87.159,23.238,87.162,23.237,87.165C23.236,87.169,23.234,87.173,23.233,87.177C23.232,87.181,23.231,87.184,23.230,87.187C23.228,87.191,23.227,87.196,23.226,87.199C23.224,87.206,23.221,87.214,23.219,87.221L23.219,87.221L23.219,87.221C23.204,87.228,23.190,87.235,23.176,87.241C21.980,87.812,20.805,88.075,19.667,88.075Z" style="fill-rule: nonzero; fill: rgb(206, 205, 224); fill-opacity: 1;"/></g></g><g id="shape-cf397e4b-3ad5-8026-8002-ec5c5f23d3b6"><g class="fills" id="fills-cf397e4b-3ad5-8026-8002-ec5c5f23d3b6"><path rx="0" ry="0" d="M6.883,66.863L6.883,66.863ZL6.012,65.650C5.757,65.294,5.636,64.843,5.748,64.420C5.753,64.404,5.758,64.386,5.763,64.370C5.758,64.386,5.753,64.404,5.748,64.420C5.636,64.843,5.757,65.294,6.012,65.650L6.883,66.863Z" style="fill-rule: nonzero; fill: rgb(206, 165, 143); fill-opacity: 1;"/></g></g><g id="shape-cf397e4b-3ad5-8026-8002-ec5c5f23d3b7"><g class="fills" id="fills-cf397e4b-3ad5-8026-8002-ec5c5f23d3b7"><path rx="0" ry="0" d="M8.488,67.032L6.883,66.863L6.012,65.650C5.757,65.294,5.636,64.843,5.748,64.420C5.753,64.404,5.758,64.386,5.763,64.370C5.818,64.188,5.905,64.023,6.015,63.876L8.488,67.032Z" style="fill-rule: nonzero; fill: rgb(206, 205, 224); fill-opacity: 1;"/></g></g><g id="shape-cf397e4b-3ad5-8026-8002-ec5c5f23d3b8"><g class="fills" id="fills-cf397e4b-3ad5-8026-8002-ec5c5f23d3b8"><path rx="0" ry="0" d="M47.531,104.640C35.999,102.247,27.372,96.961,23.219,87.221C24.448,83.405,27.380,81.128,31.244,79.692C35.471,84.799,40.388,88.594,47.531,89.221L47.531,104.640Z" style="fill-rule: nonzero; fill: rgb(252, 28, 49); fill-opacity: 1;"/></g></g><g id="shape-cf397e4b-3ad5-8026-8002-ec5c5f23d3b9"><g class="fills" id="fills-cf397e4b-3ad5-8026-8002-ec5c5f23d3b9"><path rx="0" ry="0" d="M31.053,79.763C31.054,79.763,31.054,79.763,31.053,79.763ZC31.054,79.763,31.054,79.763,31.053,79.763ZM31.074,79.756C31.075,79.755,31.075,79.755,31.074,79.756ZC31.075,79.755,31.075,79.755,31.074,79.756ZM31.094,79.748C31.096,79.748,31.097,79.747,31.094,79.748ZC31.097,79.747,31.096,79.748,31.094,79.748ZM31.115,79.740C31.117,79.739,31.119,79.738,31.115,79.740ZC31.119,79.738,31.117,79.739,31.115,79.740ZM31.136,79.732C31.139,79.731,31.141,79.730,31.136,79.732ZC31.141,79.730,31.138,79.731,31.136,79.732ZM31.158,79.724C31.160,79.723,31.162,79.723,31.158,79.724ZC31.162,79.723,31.160,79.723,31.158,79.724ZM31.179,79.716C31.182,79.715,31.185,79.714,31.179,79.716ZC31.185,79.714,31.182,79.715,31.179,79.716ZM31.201,79.708C31.204,79.707,31.207,79.706,31.201,79.708ZC31.207,79.706,31.204,79.707,31.201,79.708ZM31.222,79.700C31.229,79.698,31.237,79.694,31.222,79.700ZC31.237,79.694,31.229,79.698,31.222,79.700Z" style="fill-rule: nonzero; fill: rgb(255, 235, 214); fill-opacity: 1;"/></g></g><g id="shape-cf397e4b-3ad5-8026-8002-ec5c5f23d3ba"><g class="fills" id="fills-cf397e4b-3ad5-8026-8002-ec5c5f23d3ba"><path rx="0" ry="0" d="M47.531,99.000C46.958,98.872,46.394,98.735,45.838,98.587L45.838,92.045C38.695,91.417,33.778,87.623,29.551,82.515C29.402,82.571,29.254,82.628,29.108,82.685C29.424,81.658,29.986,80.697,30.791,79.896C30.806,79.881,30.821,79.866,30.836,79.852C28.392,80.815,26.345,82.136,24.902,84.002C26.387,82.080,28.512,80.734,31.053,79.763C31.054,79.763,31.054,79.763,31.055,79.763C31.061,79.760,31.068,79.758,31.074,79.756C31.075,79.755,31.075,79.755,31.076,79.755C31.082,79.753,31.088,79.750,31.094,79.748C31.096,79.748,31.097,79.747,31.099,79.746C31.104,79.744,31.110,79.742,31.115,79.740C31.117,79.739,31.119,79.738,31.121,79.738C31.126,79.736,31.131,79.734,31.136,79.732C31.138,79.731,31.141,79.730,31.143,79.729C31.148,79.728,31.153,79.726,31.158,79.724C31.160,79.723,31.162,79.723,31.164,79.722C31.169,79.720,31.174,79.718,31.179,79.716C31.182,79.715,31.185,79.714,31.187,79.713C31.192,79.711,31.196,79.710,31.201,79.708C31.204,79.707,31.207,79.706,31.210,79.704C31.214,79.703,31.218,79.702,31.222,79.700C31.229,79.698,31.237,79.694,31.244,79.692L31.244,79.692C35.471,84.799,40.388,88.594,47.531,89.221L47.531,99.000Z" style="fill-rule: nonzero; fill: rgb(254, 164, 173); fill-opacity: 1;"/></g></g><g id="shape-cf397e4b-3ad5-8026-8002-ec5c5f23d3bb"><g class="fills" id="fills-cf397e4b-3ad5-8026-8002-ec5c5f23d3bb"><path rx="0" ry="0" d="M23.219,87.221C23.221,87.214,23.224,87.206,23.219,87.221ZC23.224,87.206,23.221,87.214,23.219,87.221ZM23.230,87.187C23.231,87.184,23.232,87.181,23.230,87.187ZC23.232,87.181,23.231,87.184,23.230,87.187ZM23.237,87.165C23.238,87.162,23.239,87.159,23.237,87.165ZC23.239,87.159,23.238,87.161,23.237,87.165ZM23.245,87.142C23.245,87.140,23.246,87.136,23.245,87.142ZC23.246,87.136,23.245,87.140,23.245,87.142ZM23.252,87.120C23.253,87.117,23.254,87.115,23.252,87.120ZC23.254,87.115,23.253,87.117,23.252,87.120ZM23.259,87.097C23.260,87.095,23.261,87.093,23.259,87.097ZC23.261,87.093,23.260,87.095,23.259,87.097ZM23.267,87.075C23.268,87.073,23.268,87.071,23.267,87.075ZC23.268,87.071,23.268,87.073,23.267,87.075ZM23.275,87.052C23.275,87.051,23.275,87.050,23.275,87.052ZC23.275,87.050,23.275,87.050,23.275,87.052ZM23.282,87.030C23.283,87.029,23.283,87.029,23.282,87.030ZC23.283,87.028,23.282,87.029,23.282,87.030ZM23.290,87.007L23.290,87.007ZC23.290,87.007,23.290,87.007,23.290,87.007Z" style="fill-rule: nonzero; fill: rgb(167, 165, 200); fill-opacity: 1;"/></g></g><g id="shape-cf397e4b-3ad5-8026-8002-ec5c5f23d3bc"><g class="fills" id="fills-cf397e4b-3ad5-8026-8002-ec5c5f23d3bc"><path rx="0" ry="0" d="M47.531,104.640C35.999,102.247,27.372,96.961,23.219,87.221L23.219,87.221C23.221,87.214,23.224,87.206,23.226,87.199C23.227,87.196,23.228,87.191,23.230,87.187C23.231,87.184,23.232,87.181,23.233,87.177C23.234,87.173,23.236,87.169,23.237,87.165C23.238,87.161,23.239,87.159,23.240,87.156C23.242,87.151,23.243,87.146,23.245,87.142C23.245,87.140,23.246,87.136,23.247,87.134C23.249,87.129,23.250,87.125,23.252,87.120C23.253,87.117,23.254,87.115,23.254,87.112C23.256,87.107,23.258,87.102,23.259,87.097C23.260,87.095,23.261,87.093,23.262,87.091C23.263,87.085,23.265,87.080,23.267,87.075C23.268,87.073,23.268,87.071,23.269,87.070C23.271,87.064,23.273,87.058,23.275,87.052C23.275,87.050,23.275,87.050,23.276,87.049C23.278,87.042,23.280,87.036,23.282,87.030C23.282,87.029,23.283,87.028,23.283,87.028C23.285,87.021,23.288,87.014,23.290,87.007C23.290,87.007,23.290,87.007,23.290,87.007C23.680,85.873,24.225,84.878,24.902,84.002C24.330,84.743,23.853,85.568,23.483,86.491C24.900,84.808,26.829,83.588,29.108,82.685C28.453,84.815,28.855,87.226,30.335,89.060C34.202,93.853,39.476,96.896,45.838,98.587L45.838,104.260C46.395,104.394,46.958,104.521,47.531,104.640Z" style="fill-rule: nonzero; fill: rgb(203, 24, 60); fill-opacity: 1;"/></g></g><g id="shape-cf397e4b-3ad5-8026-8002-ec5c5f23d3bd"><g class="fills" id="fills-cf397e4b-3ad5-8026-8002-ec5c5f23d3bd"><path rx="0" ry="0" d="M47.531,104.640L47.531,104.640ZC46.958,104.521,46.395,104.394,45.838,104.260L45.838,98.587C46.394,98.735,46.958,98.872,47.531,99.000L47.531,104.640ZM23.483,86.491C23.853,85.568,24.330,84.743,24.902,84.002C26.345,82.136,28.392,80.815,30.836,79.852C30.821,79.866,30.806,79.881,30.791,79.896C29.986,80.697,29.424,81.658,29.108,82.685C26.829,83.588,24.900,84.808,23.483,86.491Z" style="fill-rule: nonzero; fill: rgb(205, 132, 159); fill-opacity: 1;"/></g></g><g id="shape-cf397e4b-3ad5-8026-8002-ec5c5f23d3be"><g class="fills" id="fills-cf397e4b-3ad5-8026-8002-ec5c5f23d3be"><path rx="0" ry="0" d="M25.244,87.150C28.732,94.740,35.426,99.707,45.650,102.278L45.650,90.886C40.003,89.995,35.296,87.176,30.696,81.949C27.925,83.199,26.165,84.879,25.244,87.150ZZM47.530,106.522C47.403,106.522,47.275,106.510,47.149,106.483C34.036,103.761,25.643,97.702,21.489,87.960C21.311,87.543,21.290,87.075,21.429,86.643C22.736,82.583,25.733,79.732,30.589,77.927C31.338,77.648,32.182,77.875,32.692,78.491C37.345,84.113,41.972,86.844,47.695,87.346C48.666,87.431,49.411,88.245,49.411,89.221L49.411,104.640C49.411,105.206,49.157,105.742,48.718,106.100C48.379,106.375,47.959,106.522,47.530,106.522Z" style="fill-rule: nonzero; fill: rgb(9, 6, 102); fill-opacity: 1;"/></g></g><g id="shape-cf397e4b-3ad5-8026-8002-ec5c5f23d3bf"><g class="fills" id="fills-cf397e4b-3ad5-8026-8002-ec5c5f23d3bf"><path rx="0" ry="0" d="M31.244,79.692L31.244,79.692ZZM3.549,71.844C3.374,71.853,3.061,71.897,3.015,72.079C2.982,72.209,3.080,72.395,3.238,72.504L9.148,76.560C9.377,76.717,9.557,76.933,9.670,77.186C11.754,81.838,14.618,85.115,17.528,86.179C19.042,86.732,20.529,86.703,22.059,86.089C23.618,82.501,26.176,80.039,29.848,78.596C30.930,67.426,27.326,59.534,24.343,59.158C24.116,59.130,23.946,59.233,23.843,59.324C23.666,59.481,23.564,59.706,23.564,59.943L23.564,64.179C23.564,64.950,23.110,65.651,22.407,65.967C21.705,66.283,20.880,66.155,20.304,65.644L13.614,59.693C13.368,59.474,13.036,59.392,12.791,59.491C12.686,59.534,12.510,59.604,12.448,60.165C12.433,60.290,12.466,60.424,12.540,60.545L15.787,65.847C16.144,66.430,16.064,67.179,15.592,67.674C15.120,68.168,14.375,68.282,13.777,67.952L7.937,64.723C7.711,64.598,7.444,64.592,7.288,64.708C7.259,64.730,7.240,64.747,7.228,64.762L7.233,64.771L11.275,70.398C11.627,70.888,11.652,71.543,11.338,72.059C11.024,72.576,10.431,72.853,9.834,72.766L3.549,71.844ZC3.594,71.848,3.572,71.844,3.549,71.844ZZM19.673,89.586C18.611,89.586,17.551,89.393,16.496,89.008C12.863,87.680,9.537,84.065,7.102,78.807L1.536,74.988C0.336,74.164,-0.243,72.702,0.095,71.349C0.461,69.886,1.728,68.923,3.401,68.837C3.606,68.825,3.818,68.837,4.051,68.872L6.758,69.269L4.790,66.529C4.252,65.780,4.072,64.871,4.294,64.033C4.479,63.339,4.894,62.736,5.495,62.289C6.600,61.469,8.130,61.389,9.392,62.087L10.243,62.558L9.974,62.118C9.552,61.429,9.369,60.616,9.457,59.830C9.626,58.314,10.413,57.201,11.671,56.695C12.971,56.175,14.518,56.468,15.614,57.443L20.554,61.837L20.554,59.943C20.554,58.842,21.027,57.794,21.852,57.066C22.644,56.367,23.689,56.040,24.719,56.171C30.498,56.900,34.170,67.752,32.738,79.868C32.669,80.449,32.271,80.938,31.717,81.121C28.196,82.289,25.940,84.402,24.620,87.771C24.481,88.125,24.214,88.412,23.872,88.578C22.480,89.249,21.075,89.586,19.673,89.586Z" style="fill-rule: nonzero; fill: rgb(9, 6, 102); fill-opacity: 1;"/></g></g><g id="shape-cf397e4b-3ad5-8026-8002-ec5c5f23d3c0"><g class="fills" id="fills-cf397e4b-3ad5-8026-8002-ec5c5f23d3c0"><path rx="0" ry="0" d="M18.197,65.814C15.204,67.586,12.755,70.124,10.966,73.103C10.684,73.521,10.440,73.960,10.165,74.385C10.012,74.622,9.696,74.688,9.460,74.535C9.259,74.407,9.206,74.179,9.235,73.964C9.560,69.537,13.377,65.367,17.880,65.093C18.310,65.017,18.562,65.559,18.197,65.814Z" style="fill-rule: nonzero; fill: rgb(9, 6, 102); fill-opacity: 1;"/></g></g><g id="shape-cf397e4b-3ad5-8026-8002-ec5c5f23d3c1"><g class="fills" id="fills-cf397e4b-3ad5-8026-8002-ec5c5f23d3c1"><path rx="0" ry="0" d="M23.564,63.151L23.349,66.351L23.340,66.495C23.310,66.938,23.040,67.309,22.668,67.490C21.266,68.104,20.014,68.993,19.250,70.270C18.468,71.536,18.209,73.156,18.319,74.791C18.344,75.094,18.115,75.359,17.812,75.379C17.537,75.398,17.296,75.210,17.241,74.947C16.853,73.146,16.862,71.197,17.609,69.447C18.348,67.650,19.832,66.216,21.450,65.213L20.768,66.351L20.554,63.151C20.496,61.028,23.620,61.022,23.564,63.151Z" style="fill-rule: nonzero; fill: rgb(9, 6, 102); fill-opacity: 1;"/></g></g></g></svg>